<?xml version="1.0" encoding="UTF-8"?>
<!DOCTYPE svg PUBLIC "-//W3C//DTD SVG 1.1//EN" "http://www.w3.org/Graphics/SVG/1.1/DTD/svg11.dtd">
<svg xmlns="http://www.w3.org/2000/svg">
	<defs>
		<clipPath id="clip0">
			<path fill="#fff" d="M0 0h40v40H0z"/>
		</clipPath>
	</defs>
<symbol id="icon-about-archive" viewBox="0 0 62 77">
	<path d="M18.783 15.057c.8 0 1.45.649 1.45 1.45V58.97a1.45 1.45 0 1 1-2.9 0V16.507c0-.801.65-1.45 1.45-1.45zM26.95 15.055c.8 0 1.45.649 1.45 1.45v42.463a1.45 1.45 0 0 1-2.9 0V16.505c0-.801.649-1.45 1.45-1.45zM35.114 15.055c.801 0 1.45.649 1.45 1.45v42.463a1.45 1.45 0 0 1-2.9 0V16.505c0-.801.65-1.45 1.45-1.45zM43.281 15.055c.8 0 1.45.649 1.45 1.45v42.463a1.45 1.45 0 0 1-2.9 0V16.505c0-.801.65-1.45 1.45-1.45zM51.447 15.055c.801 0 1.45.649 1.45 1.45v42.463a1.45 1.45 0 0 1-2.9 0V16.505c0-.801.65-1.45 1.45-1.45z"/>
	<path d="M1 2.622c0-.801.65-1.45 1.45-1.45h27.765a1.45 1.45 0 1 1 0 2.9H3.9v68.146h26.315a1.45 1.45 0 1 1 0 2.9H2.45c-.8 0-1.45-.65-1.45-1.45V2.622z"/>
	<path d="M8.975 10.596c0-.8.649-1.45 1.45-1.45h48.997c.8 0 1.45.65 1.45 1.45v62.88c0 .8-.65 1.45-1.45 1.45H10.425c-.801 0-1.45-.65-1.45-1.45v-62.88zm2.9 1.45v59.98h46.097v-59.98H11.874z"/>
</symbol>
<symbol id="icon-angle-left-big" viewBox="0 0 43 43">
	<path d="M22.6 42.5c-.4 0-.8-.1-1.1-.4L2.9 23.5c-.6-.6-.6-1.5 0-2.1L21.5 2.8c.6-.6 1.5-.6 2.1 0 .6.6.6 1.5 0 2.1L6.1 22.4l17.5 17.5c.6.6.6 1.5 0 2.1-.3.4-.7.5-1 .5z" class="st0"/>
</symbol>
<symbol id="icon-angle-left-thin" viewBox="0 0 22 41">
	<path d="M20.3 40.6c-.4 0-.8-.1-1.1-.4L.7 21.6c-.6-.6-.6-1.5 0-2.1L19.2.9c.6-.6 1.5-.6 2.1 0 .6.6.6 1.5 0 2.1L3.8 20.5 21.3 38c.6.6.6 1.5 0 2.1-.3.3-.6.5-1 .5z"/>
</symbol>
<symbol id="icon-angle-right-big" viewBox="0 0 45 45">
	<path d="M22.6 42.6c-.4 0-.8-.1-1.1-.4-.6-.6-.6-1.5 0-2.1L39 22.6 21.5 5.1c-.6-.6-.6-1.5 0-2.1.6-.6 1.5-.6 2.1 0l18.6 18.6c.6.6.6 1.5 0 2.1L23.6 42.2c-.3.3-.7.4-1 .4z" class="st0"/>
</symbol>
<symbol id="icon-angle-right-thin" viewBox="0 0 22 41">
	<path d="M1.7 40.6c-.4 0-.8-.1-1.1-.4-.6-.6-.6-1.5 0-2.1l17.5-17.5L.7 3C.1 2.4.1 1.5.7.9 1.3.3 2.2.3 2.8.9l18.6 18.6c.6.6.6 1.5 0 2.1L2.8 40.1c-.3.3-.7.5-1.1.5z"/>
</symbol>
<symbol id="icon-angle-right" viewBox="0 0 12.6 20.1">
	<path d="M2.5 19.1c-.4 0-.8-.1-1.1-.4-.6-.6-.6-1.5 0-2.1l6.5-6.5-6.5-6.5C.9 3 .9 2 1.4 1.4 2 .9 3 .9 3.6 1.4L11.1 9c.6.6.6 1.5 0 2.1l-7.6 7.6c-.2.3-.6.4-1 .4z"/>
</symbol>
<symbol id="icon-arrow-down-pink" viewBox="0 0 21 13">
	<path fill="#f50057" d="M10.5 11.8c-.4 0-.8-.1-1.1-.4L1.9 3.8c-.6-.6-.6-1.5 0-2.1.6-.6 1.5-.6 2.1 0l6.5 6.5L17 1.7c.6-.6 1.5-.6 2.1 0 .6.6.6 1.5 0 2.1l-7.6 7.6c-.2.2-.6.4-1 .4z"/>
</symbol>
<symbol id="icon-arrow-down" viewBox="0 0 21 13">
	<path d="M10.5 11.8c-.4 0-.8-.1-1.1-.4L1.9 3.8c-.6-.6-.6-1.5 0-2.1.6-.6 1.5-.6 2.1 0l6.5 6.5L17 1.7c.6-.6 1.5-.6 2.1 0 .6.6.6 1.5 0 2.1l-7.6 7.6c-.2.2-.6.4-1 .4z"/>
</symbol>
<symbol id="icon-arrow-left" viewBox="0 0 43 43">
	<path d="M40.1 20.1H6.6l16-16c.6-.6.6-1.5 0-2.1-.6-.6-1.5-.6-2.1 0L1.9 20.5c-.1.1-.2.3-.3.5-.1.2-.1.3-.1.5s0 .4.1.5c.1.2.2.3.3.5l18.6 18.6c.3.3.7.4 1.1.4s.8-.1 1.1-.4c.6-.6.6-1.5 0-2.1l-16-16h33.5c.8 0 1.5-.7 1.5-1.5s-.8-1.4-1.6-1.4z"/>
</symbol>
<symbol id="icon-arrow-right-rounded" viewBox="0 0 46 46">
	<circle cx="23" cy="23" r="22" stroke="#000" stroke-opacity=".5" stroke-width="2"/>
	<path stroke="#F50057" stroke-linecap="round" stroke-linejoin="round" stroke-width="2" d="M22.657 30.21l7.553-7.553-7.553-7.553"/>
	<path stroke="#F50057" stroke-linecap="round" stroke-width="2" d="M30.209 22.657H15.105"/>
</symbol>
<symbol id="icon-arrow-right" viewBox="0 0 21 21">
	<path d="M19.6 11.2c.1-.2.1-.4.1-.6 0-.2 0-.4-.1-.5-.1-.2-.2-.3-.3-.5L11.7 2c-.6-.6-1.5-.6-2.1 0-.6.6-.6 1.6 0 2.2l5 5H3.1c-.8 0-1.5.7-1.5 1.5s.7 1.5 1.5 1.5h11.5l-5 5c-.6.6-.6 1.5 0 2.1.3.3.7.4 1.1.4s.8-.1 1.1-.4l7.6-7.6c0-.1.1-.3.2-.5z" class="st0"/>
</symbol>
<symbol id="icon-burger" viewBox="0 0 38 38">
	<path stroke="#fff" stroke-linecap="round" stroke-width="3" d="M2 2h34M2 19h34M2 36h34"/>
</symbol>
<symbol id="icon-camera" viewBox="0 0 43 35">
	<path d="M12.2 6.2c.1-.2.3-.4.4-.7.1-.1.3-.4.4-.6.1-.1.1-.2.2-.3C14.7 2.1 15.8 1 17.8 1h7.3c2 0 3.1 1.1 4.6 3.6 0 0 .1.1.2.3s.3.5.4.6c.2.3.3.5.5.7.1.1.2.2.2.3h5.2c3 0 5.5 2.5 5.5 5.5v16.5c0 3-2.5 5.5-5.5 5.5H6.8c-3 0-5.5-2.5-5.5-5.5V12c0-3 2.5-5.5 5.5-5.5H12c0-.1.1-.2.2-.3zm-5.4 4c-1 0-1.8.8-1.8 1.8v16.5c0 1 .8 1.8 1.8 1.8h29.3c1 0 1.8-.8 1.8-1.8V12c0-1-.8-1.8-1.8-1.8h-5.5c-1.2 0-2-.7-2.9-1.8-.2-.3-.4-.5-.6-.9-.1-.1-.3-.5-.4-.7-.1-.1-.1-.2-.1-.2-.8-1.4-1.3-1.9-1.5-1.9h-7.3c-.2 0-.7.5-1.5 1.9 0 0-.1.1-.1.2-.1.2-.3.6-.4.7-.2.4-.4.7-.6.9-.9 1.1-1.7 1.8-2.9 1.8H6.8zm29.3 3.6c0 1-.8 1.8-1.8 1.8s-1.8-.8-1.8-1.8.8-1.8 1.8-1.8 1.8.8 1.8 1.8zm-23.8 5.5c0 5.1 4.1 9.2 9.2 9.2s9.2-4.1 9.2-9.2-4.1-9.2-9.2-9.2c-5.1.1-9.2 4.2-9.2 9.2zm14.7 0c0 3-2.5 5.5-5.5 5.5S16 22.3 16 19.3s2.5-5.5 5.5-5.5 5.5 2.5 5.5 5.5z"/>
</symbol>
<symbol id="icon-collections" viewBox="0 0 58 81">
	<path d="M38.983 26.885L54.513 1H38.003l-9.285 15.475L19.434 1H2.92l15.483 25.805C8.223 30.866 1 40.805 1 52.417 1 67.627 13.374 80 28.583 80c15.21 0 27.583-12.373 27.583-27.583 0-11.53-7.116-21.416-17.183-25.532zm.536-23.207h10.266L36.405 25.98a27.462 27.462 0 0 0-3.129-.716 28.145 28.145 0 0 0-2.268-.308 27.2 27.2 0 0 0-2.425-.122c-.586 0-1.185.023-1.8.068L39.52 3.678zm-31.87 0h10.266l9.24 15.398-3.758 6.263a26.96 26.96 0 0 0-2.236.538c-.055.015-.115.024-.17.04L7.65 3.678zm20.934 73.644c-13.732 0-24.905-11.172-24.905-24.905 0-11.002 7.178-20.345 17.092-23.632l.032-.01c.5-.165 1.025-.31 1.559-.445.103-.027.206-.055.31-.08a26.253 26.253 0 0 1 1.77-.363h.005c.716-.12 1.395-.208 2.052-.27.688-.057 1.38-.105 2.084-.105.759 0 1.506.047 2.248.114.37.034.736.087 1.105.139.33.046.66.094.986.151.496.09.989.192 1.48.31.146.036.29.076.436.113.58.153 1.159.318 1.733.513l.075.026c9.784 3.36 16.843 12.63 16.843 23.54 0 13.732-11.172 24.904-24.905 24.904z"/>
	<path d="M28.584 30.832C16.682 30.832 7 40.516 7 52.418 7 64.317 16.682 74 28.584 74s21.584-9.682 21.584-21.583c0-11.9-9.682-21.585-21.584-21.585zm0 40.491c-10.425 0-18.907-8.48-18.907-18.905s8.482-18.906 18.907-18.906S47.49 41.993 47.49 52.418c0 10.424-8.48 18.905-18.906 18.905z"/>
	<path d="M44.027 47.45a1.342 1.342 0 0 0-1.08-.911l-9.103-1.323-4.07-8.248c-.452-.916-1.952-.916-2.403 0l-4.07 8.248-9.103 1.323a1.34 1.34 0 0 0-.742 2.283l6.587 6.42-1.556 9.066a1.34 1.34 0 0 0 1.943 1.412l8.142-4.278 8.143 4.278a1.335 1.335 0 0 0 1.41-.102c.412-.3.618-.807.532-1.31l-1.555-9.066 6.586-6.42a1.34 1.34 0 0 0 .339-1.371zm-9.3 6.367c-.316.307-.46.752-.386 1.185l1.215 7.085-6.362-3.343a1.335 1.335 0 0 0-1.246 0l-6.363 3.343 1.216-7.085a1.337 1.337 0 0 0-.385-1.184l-5.149-5.02 7.114-1.033a1.339 1.339 0 0 0 1.009-.732l3.18-6.446 3.182 6.446c.196.395.572.67 1.009.732l7.114 1.034-5.149 5.019z"/>
</symbol>
<symbol id="icon-cross" viewBox="0 0 40 40">
	<path d="M22.3 20.1l16.1-16c.6-.6.6-1.5 0-2.1-.6-.6-1.5-.6-2.1 0L20.1 18 4.1 1.9c-.6-.6-1.5-.6-2.1 0-.6.6-.6 1.5 0 2.1l16 16.1L1.9 36.2c-.6.6-.6 1.5 0 2.1.3.3.7.4 1.1.4s.8-.1 1.1-.4l16.1-16.1 16.1 16.1c.3.3.7.4 1.1.4s.8-.1 1.1-.4c.6-.6.6-1.5 0-2.1L22.3 20.1z"/>
</symbol>
<symbol id="icon-cursor" viewBox="0 0 40 40">
	<g fill="#F50057" clip-path="url(#clip0)">
		<path d="M37.4 15.882l-6.836-7.513a3.48 3.48 0 0 0-5.802 1.515 3.482 3.482 0 0 0-5.456 1.816 3.484 3.484 0 0 0-5.446 1.784l-3.222-3.222a3.48 3.48 0 0 0-4.921.011 3.475 3.475 0 0 0 0 4.91l12.378 12.379-7.342 1.153a4.073 4.073 0 0 0-3.48 4.012A2.73 2.73 0 0 0 10 35.456h17.144a9.933 9.933 0 0 0 7.07-2.93l2.86-2.86A9.917 9.917 0 0 0 40 22.605c0-2.491-.923-4.878-2.6-6.722zM35.79 28.38l-2.86 2.86a8.128 8.128 0 0 1-5.786 2.396H10a.91.91 0 0 1-.909-.909 2.25 2.25 0 0 1 1.933-2.214l9.118-1.433a.91.91 0 0 0 .502-1.54L7.002 13.898a1.663 1.663 0 0 1 2.351-2.35l9.096 9.096a.91.91 0 1 0 1.284-1.287l-3.715-3.715a1.66 1.66 0 0 1 .011-2.35 1.66 1.66 0 0 1 2.34 0l3.717 3.716a.91.91 0 1 0 1.284-1.288l-1.897-1.896a1.66 1.66 0 0 1 .011-2.351 1.66 1.66 0 0 1 2.34 0l1.905 1.905c.004.002.002.002.002.002l.002.002.002.002.002.002h.001l.002.001a.908.908 0 0 0 1.267-1.303l-.078-.079a1.647 1.647 0 0 1-.485-1.17c0-.442.17-.857.494-1.18.648-.644 1.695-.642 2.311-.031l6.808 7.481a8.164 8.164 0 0 1 2.125 5.499c0 2.182-.85 4.233-2.393 5.776z"/>
		<path d="M15.63 9.37a8.196 8.196 0 0 0-7.448-4.824C3.67 4.546 0 8.216 0 12.728a8.2 8.2 0 0 0 4.824 7.449.913.913 0 0 0 1.203-.455.912.912 0 0 0-.454-1.203 6.376 6.376 0 0 1-3.755-5.791 6.37 6.37 0 0 1 6.364-6.364 6.376 6.376 0 0 1 5.79 3.755.91.91 0 0 0 1.656-.749z"/>
	</g>

</symbol>
<symbol id="icon-document" viewBox="0 0 56 56">
	<path d="M7.284 7.297v46.776a.9.9 0 0 0 .9.9h34.183a.9.9 0 0 0 .9-.9v-37.78c0-.02-.01-.038-.012-.057a.851.851 0 0 0-.046-.231c-.01-.03-.017-.057-.03-.085a.89.89 0 0 0-.18-.264l-8.995-8.995a.873.873 0 0 0-.348-.21.891.891 0 0 0-.233-.047c-.015.003-.033-.007-.052-.007H8.184a.9.9 0 0 0-.9.9zm32.911 8.096h-5.924V9.468l5.924 5.925zM9.083 8.196h23.389v8.097a.9.9 0 0 0 .9.899h8.095v35.982H9.083V8.196z" opacity=".5"/>
	<path d="M45.066 47.776v1.8h2.698a.9.9 0 0 0 .9-.9V1.9a.9.9 0 0 0-.9-.9H13.581a.9.9 0 0 0-.9.9v2.698h1.8v-1.8h32.383v44.978h-1.798z" opacity=".5"/>
	<path d="M14.48 18.991h21.59v1.8H14.48v-1.8zM14.48 13.593h7.197v1.8h-7.196v-1.8zM14.48 24.388h14.394v1.8H14.48v-1.8zM30.673 24.388h5.397v1.8h-5.397v-1.8zM14.48 29.785h21.59v1.8H14.48v-1.8z" opacity=".5"/>
	<path fill="#F50057" d="M17.503 38H15v9h1.314v-3.305h1.203c2.103 0 3.693-.849 3.693-2.913 0-1.894-1.41-2.782-3.707-2.782zm-.041 4.715h-1.148v-3.748h1.176c1.41 0 2.323.483 2.323 1.828 0 1.529-.94 1.92-2.351 1.92zM25.028 38h-1.991v9h2.282c2.06 0 4.481-.875 4.481-4.546 0-3.736-2.337-4.454-4.772-4.454zm.29.993c1.522 0 3.085.418 3.085 3.461 0 2.965-1.494 3.566-2.987 3.566H24.35v-7.027h.968zM31.938 47h1.314v-3.958h3.112v-.98h-3.112v-3.07h3.596L37 38h-5.062v9z"/>
</symbol>
<symbol id="icon-dotted-line" viewBox="0 0 174 2">
	<path stroke="#fff" stroke-dasharray="2 4" stroke-linecap="round" d="M1 1h172"/>
</symbol>
<symbol id="icon-expositions" viewBox="0 0 68 90">
	<path d="M33.5 50.9H8.6c-.8 0-1.5-.7-1.5-1.5V3c0-.8.7-1.5 1.5-1.5h20.9C32.5 1.5 35 4 35 7v42.4c0 .9-.7 1.5-1.5 1.5zm-23.4-3H32V7c0-1.4-1.1-2.5-2.5-2.5H10.1v43.4z"/>
	<path d="M58.4 50.9H33.5c-.8 0-1.5-.7-1.5-1.5V7c0-3 2.5-5.5 5.5-5.5h20.9c.8 0 1.5.7 1.5 1.5v46.4c0 .9-.7 1.5-1.5 1.5zm-23.4-3h21.9V4.5H37.5C36.1 4.5 35 5.6 35 7v40.9zM65 88.5H3c-.8 0-1.5-.7-1.5-1.5s.7-1.5 1.5-1.5h62c.8 0 1.5.7 1.5 1.5s-.7 1.5-1.5 1.5zM27.8 14.7H15.4c-.8 0-1.5-.7-1.5-1.5s.7-1.5 1.5-1.5h12.5c.8 0 1.5.7 1.5 1.5s-.7 1.5-1.6 1.5zM27.8 22.6H15.4c-.8 0-1.5-.7-1.5-1.5s.7-1.5 1.5-1.5h12.5c.8 0 1.5.7 1.5 1.5s-.7 1.5-1.6 1.5zM27.8 30.5H15.4c-.8 0-1.5-.7-1.5-1.5s.7-1.5 1.5-1.5h12.5c.8 0 1.5.7 1.5 1.5s-.7 1.5-1.6 1.5z"/>
	<path d="M51.6 14.7H39.2c-.8 0-1.5-.7-1.5-1.5s.7-1.5 1.5-1.5h12.5c.8 0 1.5.7 1.5 1.5s-.8 1.5-1.6 1.5zM51.6 22.6H39.2c-.8 0-1.5-.7-1.5-1.5s.7-1.5 1.5-1.5h12.5c.8 0 1.5.7 1.5 1.5s-.8 1.5-1.6 1.5zM51.6 30.5H39.2c-.8 0-1.5-.7-1.5-1.5s.7-1.5 1.5-1.5h12.5c.8 0 1.5.7 1.5 1.5s-.8 1.5-1.6 1.5zM46 79.2H21c-.8 0-1.5-.7-1.5-1.5V57.4c0-.8.7-1.5 1.5-1.5h25c.8 0 1.5.7 1.5 1.5v20.4c0 .8-.7 1.4-1.5 1.4zm-23.5-3h21.9V58.9H22.5v17.3z"/>
</symbol>
<symbol id="icon-eye" viewBox="0 0 45 45">
	<g transform="translate(1 1)">
		<path d="M42.727 20.664C42.343 20.138 33.19 7.797 21.5 7.797S.657 20.138.273 20.663a1.419 1.419 0 0 0 0 1.674c.384.525 9.537 12.866 21.227 12.866s20.843-12.341 21.227-12.866a1.417 1.417 0 0 0 0-1.673zM21.5 32.368c-8.611 0-16.069-8.191-18.277-10.869 2.205-2.68 9.648-10.867 18.277-10.867 8.61 0 16.068 8.19 18.276 10.87-2.205 2.68-9.647 10.866-18.276 10.866z"/>
		<path d="M21.5 12.994c-4.69 0-8.506 3.816-8.506 8.506s3.816 8.505 8.506 8.505 8.505-3.816 8.505-8.505c0-4.69-3.816-8.506-8.505-8.506zm0 14.176a5.677 5.677 0 0 1-5.67-5.67 5.677 5.677 0 0 1 5.67-5.67 5.677 5.677 0 0 1 5.67 5.67 5.677 5.677 0 0 1-5.67 5.67z"/>
		<circle cx="21.5" cy="21.5" r="2.622"/>
	</g>
</symbol>
<symbol id="icon-folder-inner" viewBox="0 0 41 34">
	<path stroke="#F50057" stroke-width="2" d="M2 13h26M30 13h5"/>
	<path stroke="gray" stroke-linejoin="round" stroke-width="2" d="M17 1H1v32h39V4.5H20L17 1z"/>
</symbol>
<symbol id="icon-folder" viewBox="0 0 44 37">
	<path fill-rule="evenodd" d="M38.5 5.375c2.025 0 3.667 1.679 3.667 3.75v22.5c0 2.071-1.642 3.75-3.667 3.75h-33c-2.025 0-3.667-1.679-3.667-3.75V5.375c0-2.071 1.642-3.75 3.667-3.75h11c2.053 0 3.36.891 4.673 2.585l.223.292v.001c.139.183.296.39.352.461l.144.18v.001c.162.2.185.23.111.23H38.5zm0 7.5v-3.75H21.99c-1.316-.007-2.174-.638-3.096-1.806-.083-.106-.286-.374-.434-.568l-.16-.211c-.687-.886-1.096-1.165-1.8-1.165h-11v7.5h33zm0 3.75h-33v15h33v-15z" clip-rule="evenodd"/>
</symbol>
<symbol id="icon-media-play-filled" viewBox="0 0 34 39">
	<path d="M34 19.5L.25 38.986V.014L34 19.5z"/>
</symbol>
<symbol id="icon-media-play" viewBox="0 0 18 24">
	<path fill-rule="evenodd" d="M1 3v18a1 1 0 0 0 1.54.841l14-9a1 1 0 0 0 0-1.682l-14-9a1 1 0 0 0-1.54.84zm13.15 9L3 19.168V4.832L14.15 12z" clip-rule="evenodd"/>
</symbol>
<symbol id="icon-music-note" viewBox="0 0 40 40">
	<path fill-rule="evenodd" d="M16.3 19.9L35 16.8v8c-1.1-.6-2.4-.9-3.7-.9-4.1 0-7.5 2.9-7.5 6.6 0 3.7 3.4 6.6 7.5 6.6s7.5-2.9 7.5-6.6V1.1L12.5 5.5v21.2c-1.1-.6-2.4-.9-3.7-.9-4.1 0-7.5 2.9-7.5 6.6 0 3.7 3.4 6.6 7.5 6.6s7.5-2.9 7.5-6.6V19.9zm-3.8 12.5c0 1.5-1.6 2.8-3.7 2.8s-3.7-1.3-3.7-2.8c0-1.5 1.6-2.8 3.7-2.8 2.1-.1 3.7 1.3 3.7 2.8zm18.7.9c2.1 0 3.7-1.3 3.7-2.8 0-1.5-1.6-2.8-3.7-2.8s-3.7 1.3-3.7 2.8c0 1.4 1.6 2.8 3.7 2.8zM16.3 16.1V8.6L35 5.5V13l-18.7 3.1z" clip-rule="evenodd"/>
</symbol>
<symbol id="icon-publications" viewBox="0 0 86 86">
	<path d="M7.383 6.88H63.72a1.266 1.266 0 0 1 1.275 1.318v50.92h15.62a1.37 1.37 0 0 1 1.345 1.373v10.483a10.291 10.291 0 0 1-2.837 7.17 9.54 9.54 0 0 1-6.955 2.977H14.892c-4.882 0-8.853-4.098-8.853-9.166V8.198A1.323 1.323 0 0 1 7.383 6.88zm64.786 71.579a6.89 6.89 0 0 0 5.013-2.16 7.647 7.647 0 0 0 2.091-5.325v-9.17H64.996v9.17a7.677 7.677 0 0 0 2.126 5.325 6.963 6.963 0 0 0 5.047 2.16zM8.726 71.954c0 3.586 2.766 6.479 6.166 6.479h50.624c-.102 0-.237-.187-.335-.29a10.323 10.323 0 0 1-2.873-7.17V9.567H8.726v62.388z"/>
	<path d="M56.469 19.645H34.025a1.344 1.344 0 1 1 0-2.688H56.47a1.344 1.344 0 0 1 0 2.688zM56.469 26.363H14.54a1.344 1.344 0 0 1 0-2.687h41.928a1.344 1.344 0 0 1 0 2.687zM56.469 32.914H14.54a1.344 1.344 0 0 1 0-2.687h41.928a1.344 1.344 0 1 1 0 2.687zM13.766 39.297a1.344 1.344 0 0 1 1.343-1.344h41.153a1.344 1.344 0 0 1 1.343 1.344V68.69a1.344 1.344 0 0 1-1.343 1.344H15.109a1.344 1.344 0 0 1-1.343-1.344V39.297zm2.52 1.344v16.672l10.205-7.207a1.365 1.365 0 0 1 1.734.139l7.987 7.842 9.247-4.505a1.413 1.413 0 0 1 1.297.045l8.162 4.715V40.64H16.285zm38.632 20.807l-8.89-5.137-7.76 3.8 7.493 7.405h9.157v-6.068zm-12.99 6.068L27.126 52.975l-10.842 7.632v6.909h25.642z"/>
	<path d="M37.802 53.571a4.571 4.571 0 1 1 0-9.142 4.571 4.571 0 0 1 0 9.142zm0-6.456a1.884 1.884 0 1 0 0 3.769 1.884 1.884 0 0 0 0-3.769z"/>
</symbol>
<symbol id="icon-question" viewBox="0 0 34 34">
	<path d="M1.417 17c0 8.607 6.976 15.584 15.583 15.584 8.606 0 15.583-6.977 15.583-15.584 0-8.606-6.977-15.583-15.583-15.583C8.393 1.417 1.417 8.394 1.417 17zm28.333 0c0 7.042-5.709 12.75-12.75 12.75-7.042 0-12.75-5.708-12.75-12.75C4.25 9.96 9.958 4.25 17 4.25 24.04 4.25 29.75 9.96 29.75 17zM17 24.081a1.417 1.417 0 1 0 0-2.833 1.417 1.417 0 0 0 0 2.833zm-1.417-4.247h2.833c0-1.131.178-1.339 1.342-1.92 2.024-1.012 2.909-2.045 2.909-4.455C22.666 10.37 20.235 8.5 17 8.5a5.667 5.667 0 0 0-5.667 5.667h2.833A2.833 2.833 0 0 1 17 11.334c1.81 0 2.833.788 2.833 2.125 0 1.13-.177 1.338-1.342 1.92-2.023 1.012-2.908 2.044-2.908 4.455z"/>
</symbol>
<symbol id="icon-sound-record" viewBox="0 0 31 24">
	<path d="M2.4 17.8c-.6 0-1-.4-1-1V7.2c0-.6.4-1 1-1s1 .4 1 1v9.6c0 .5-.4 1-1 1zM15.5 18.1c-.6 0-1-.4-1-1V7.5c0-.6.4-1 1-1s1 .4 1 1v9.6c0 .5-.4 1-1 1zM15.5 3.9c-.6 0-1-.4-1-1V2c0-.6.4-1 1-1s1 .4 1 1v.9c0 .5-.4 1-1 1zM15.5 23c-.6 0-1-.4-1-1v-.9c0-.6.4-1 1-1s1 .4 1 1v.9c0 .6-.4 1-1 1zM28.6 17.8c-.6 0-1-.4-1-1V7.2c0-.6.4-1 1-1s1 .4 1 1v9.6c0 .5-.5 1-1 1zM24.2 14.9c-.6 0-1-.4-1-1v-3.8c0-.6.4-1 1-1s1 .4 1 1v3.8c0 .5-.4 1-1 1zM19.9 16.6c-.6 0-1-.4-1-1V8.4c0-.6.4-1 1-1s1 .4 1 1v7.3c0 .5-.5.9-1 .9zM11.1 16.6c-.6 0-1-.4-1-1V8.4c0-.6.4-1 1-1s1 .4 1 1v7.3c0 .5-.4.9-1 .9zM6.8 14.9c-.6 0-1-.4-1-1v-3.8c0-.6.4-1 1-1s1 .4 1 1v3.8c0 .5-.5 1-1 1z"/>
</symbol>
<symbol id="icon-sound" viewBox="0 0 45 36">
	<path fill-rule="evenodd" d="M13.8 10.5l7.7-3.8v20.6l-7.7-3.8v-13zm-2.3-3.1L25.4.5v33l-13.9-6.9H4.2c-2.1 0-3.8-1.7-3.8-3.8V11.2c0-2.1 1.7-3.8 3.8-3.8h7.3zM10 11.2H4.2v11.5H10V11.2zM36.2.6c3.9 3.9 6.4 9.8 6.4 16.4s-2.5 12.5-6.4 16.4l-3-2.4c3.3-3.1 5.6-8.2 5.6-14 0-5.8-2.2-10.8-5.6-14l3-2.4zM34.9 17c0-4.6-1.8-8.8-4.6-11.6l-3 2.4c2.3 2.1 3.8 5.4 3.8 9.2 0 3.8-1.5 7.1-3.8 9.2l3 2.4c2.8-2.8 4.6-7 4.6-11.6z" clip-rule="evenodd"/>
</symbol>
<symbol id="icon-videocamera" viewBox="0 0 48 32">
	<path d="M5.3 1.4h25c2.3 0 4.2 1.9 4.2 4.2v2.9L47 2.3v27.6l-12.5-6.2v2.9c0 2.3-1.9 4.2-4.2 4.2h-25c-2.3 0-4.2-1.9-4.2-4.2v-21c0-2.3 1.8-4.2 4.2-4.2zm29.1 17.5l8.3 4.2V9l-8.3 4.2v5.7zM5.3 5.6v20.8h25V5.6h-25z"/>
</symbol>
<symbol id="icon-watch" viewBox="0 0 36 36">
	<circle cx="18" cy="18" r="17" stroke="#F50057" stroke-width="2"/>
	<path stroke="#F50057" stroke-linecap="round" stroke-linejoin="round" stroke-width="2" d="M18 8.4v10.8h8.4"/>
</symbol>
<symbol id="icon-zoom" viewBox="0 0 40 40">
	<path fill-rule="evenodd" d="M39 36.9L27.8 25.7c2.2-2.7 3.5-6.1 3.5-9.8C31.3 7.4 24.4.5 15.9.5S.5 7.4.5 15.9s6.9 15.4 15.4 15.4c3.7 0 7.1-1.3 9.8-3.5L36.9 39c.6.6 1.5.6 2.1 0 .6-.5.6-1.5 0-2.1zm-23.1-8.6c-6.8 0-12.4-5.5-12.4-12.4C3.5 9.1 9 3.5 15.9 3.5S28.3 9 28.3 15.9s-5.5 12.4-12.4 12.4z" clip-rule="evenodd"/>
</symbol>
</svg>