<svg width="34" height="34" viewBox="0 0 34 34" xmlns="http://www.w3.org/2000/svg">
	<g transform="translate(1,1)">
		<path
			d="M0.416504 16.0003C0.416504 24.6068 7.3934 31.5837 15.9998 31.5837C24.6063 31.5837 31.5832 24.6068 31.5832 16.0003C31.5832 7.39389 24.6063 0.416992 15.9998 0.416992C7.3934 0.416992 0.416504 7.39389 0.416504 16.0003ZM28.7498 16.0003C28.7498 23.042 23.0415 28.7503 15.9998 28.7503C8.95821 28.7503 3.24984 23.042 3.24984 16.0003C3.24984 8.95869 8.95821 3.25033 15.9998 3.25033C23.0415 3.25033 28.7498 8.95869 28.7498 16.0003ZM16.0003 23.0813C16.783 23.0813 17.4174 22.4471 17.4174 21.6647C17.4174 20.8822 16.783 20.248 16.0003 20.248C15.2176 20.248 14.5832 20.8822 14.5832 21.6647C14.5832 22.4471 15.2176 23.0813 16.0003 23.0813ZM14.5832 18.8337H17.4165C17.4165 17.7027 17.5942 17.4954 18.7584 16.9133C20.7817 15.9016 21.6665 14.8693 21.6665 12.4587C21.6665 9.37121 19.236 7.50033 15.9998 7.50033C12.8702 7.50033 10.3332 10.0374 10.3332 13.167H13.1665C13.1665 11.6022 14.435 10.3337 15.9998 10.3337C17.8091 10.3337 18.8332 11.1219 18.8332 12.4587C18.8332 13.5897 18.6555 13.7969 17.4913 14.3791C15.468 15.3907 14.5832 16.423 14.5832 18.8337Z"/>
	</g>
</svg>
