<svg version="1.1" xmlns="http://www.w3.org/2000/svg" width="45" height="36" viewBox="0 0 45 36">
<path d="M13.8,10.5l7.7-3.8v20.6l-7.7-3.8V10.5z M11.5,7.4l13.9-6.9v33l-13.9-6.9H4.2c-2.1,0-3.8-1.7-3.8-3.8V11.2
	c0-2.1,1.7-3.8,3.8-3.8H11.5z M10,11.2H4.2v11.5H10V11.2z M36.2,0.6c3.9,3.9,6.4,9.8,6.4,16.4s-2.5,12.5-6.4,16.4l-3-2.4
	c3.3-3.1,5.6-8.2,5.6-14c0-5.8-2.2-10.8-5.6-14L36.2,0.6z M34.9,17c0-4.6-1.8-8.8-4.6-11.6l-3,2.4c2.3,2.1,3.8,5.4,3.8,9.2
	c0,3.8-1.5,7.1-3.8,9.2l3,2.4C33.1,25.8,34.9,21.6,34.9,17z" fill-rule="evenodd" clip-rule="evenodd"/>
</svg>
