<svg width="58" height="81" viewBox="0 0 58 81" xmlns="http://www.w3.org/2000/svg">
	<g transform="translate(1,1)" fill="#fff">
		<path
			d="M37.983 25.8853L53.5139 0H37.0015L27.717 15.4747L18.4338 0H1.92011L17.4028 25.8049C7.22249 29.8661 0 39.8054 0 51.4171C0 66.6266 12.3736 79.0002 27.5831 79.0002C42.7926 79.0002 55.1662 66.6266 55.1662 51.4171C55.1662 39.887 48.0495 30.0013 37.983 25.8853ZM38.5186 2.67797H48.7846L35.4041 24.9801C34.3865 24.6788 33.3394 24.4472 32.2763 24.2638C31.8344 24.1861 31.3925 24.1165 30.9493 24.0602C30.636 24.0214 30.324 23.9839 30.008 23.9558C29.2006 23.8835 28.3919 23.8339 27.5831 23.8339C26.9966 23.8339 26.3981 23.8567 25.7835 23.9022L38.5186 2.67797ZM6.6494 2.67797H16.9154L26.1544 18.0763L22.3972 24.3387C21.638 24.4834 20.8962 24.6708 20.1611 24.877C20.1062 24.8917 20.046 24.9011 19.9911 24.9172L6.6494 2.67797ZM27.5831 76.3222C13.8505 76.3222 2.67797 65.1497 2.67797 51.4171C2.67797 40.4146 9.85628 31.0725 19.7701 27.7853L19.8023 27.7746C20.3017 27.6099 20.8266 27.4653 21.3608 27.33C21.4639 27.3033 21.567 27.2751 21.6701 27.2497C22.2459 27.1118 22.8351 26.9886 23.4416 26.8868H23.4456C24.162 26.7663 24.8409 26.6793 25.4983 26.6177C26.1865 26.5601 26.8788 26.5119 27.5818 26.5119C28.341 26.5119 29.0881 26.5588 29.8299 26.6257C30.1995 26.6605 30.5664 26.7128 30.9346 26.765C31.2653 26.8105 31.5947 26.8587 31.9214 26.9163C32.4168 27.006 32.9096 27.1078 33.401 27.2269C33.547 27.2617 33.6916 27.3019 33.8375 27.3394C34.4173 27.4921 34.9957 27.6567 35.5702 27.8522L35.6451 27.8777C45.4291 31.2385 52.4882 40.5083 52.4882 51.4171C52.4882 65.1497 41.3157 76.3222 27.5831 76.3222Z"/>
		<path
			d="M27.584 29.8325C15.6817 29.8325 5.99951 39.5147 5.99951 51.417C5.99951 63.3179 15.6817 73.0001 27.584 73.0001C39.4862 73.0001 49.1684 63.3179 49.1684 51.417C49.1684 39.5161 39.4862 29.8325 27.584 29.8325ZM27.584 70.3234C17.1586 70.3234 8.67748 61.8423 8.67748 51.4183C8.67748 40.993 17.1586 32.5118 27.584 32.5118C38.0093 32.5118 46.4904 40.993 46.4904 51.4183C46.4904 61.8423 38.0093 70.3234 27.584 70.3234Z"/>
		<path
			d="M43.0268 46.4506C42.8688 45.9659 42.4497 45.6124 41.9462 45.5387L32.8438 44.2158L28.7733 35.9677C28.3221 35.0518 26.8224 35.0518 26.3712 35.9677L22.3006 44.2158L13.1982 45.5387C12.6948 45.6124 12.2757 45.9645 12.1177 46.4506C11.9597 46.934 12.0909 47.4669 12.4564 47.8217L19.0429 54.2421L17.487 63.3084C17.4013 63.8105 17.6075 64.318 18.0199 64.6179C18.4323 64.9179 18.9773 64.958 19.4299 64.7197L27.5722 60.4416L35.7146 64.7197C35.9101 64.8228 36.1243 64.8737 36.3372 64.8737C36.6144 64.8737 36.8916 64.788 37.1246 64.6179C37.537 64.318 37.7432 63.8105 37.6575 63.3084L36.1016 54.2421L42.688 47.8217C43.0522 47.4669 43.1835 46.9353 43.0268 46.4506ZM33.7262 52.8175C33.4115 53.1241 33.2669 53.5686 33.3406 54.0025L34.5564 61.087L28.1935 57.7436C27.998 57.6405 27.7838 57.5896 27.5709 57.5896C27.358 57.5896 27.1424 57.6405 26.9483 57.7436L20.5854 61.087L21.8012 54.0025C21.8762 53.5686 21.7316 53.1254 21.4156 52.8175L16.2672 47.7989L23.3812 46.7652C23.8177 46.7023 24.194 46.4278 24.3895 46.0328L27.5709 39.5869L30.7523 46.0328C30.9478 46.4278 31.3241 46.7023 31.7606 46.7652L38.8746 47.7989L33.7262 52.8175Z"/>
	</g>
</svg>
