<svg width="44" height="37" viewBox="0 0 44 37" xmlns="http://www.w3.org/2000/svg">
	<g transform="translate(1,1)">
		<path fill-rule="evenodd" clip-rule="evenodd" d="M37.5002 4.375C39.5252 4.375 41.1668 6.05393 41.1668 8.125V30.625C41.1668 32.6961 39.5252 34.375 37.5002 34.375H4.50016C2.47512 34.375 0.833496 32.6961 0.833496 30.625V4.375C0.833496 2.30393 2.47512 0.625 4.50016 0.625H15.5002C17.5535 0.625 18.8606 1.51647 20.1733 3.21035C20.2095 3.25711 20.2977 3.37334 20.3955 3.50218L20.3963 3.50322L20.3964 3.50334C20.5347 3.68564 20.6919 3.8928 20.7481 3.96404C20.8049 4.03609 20.8528 4.09568 20.8924 4.14493L20.8924 4.14496L20.8924 4.14497C21.0537 4.34553 21.077 4.37459 21.0034 4.375H37.5002ZM37.5001 11.875V8.125L20.9903 8.12497C19.6737 8.11776 18.816 7.48733 17.8941 6.31851C17.8106 6.21261 17.6076 5.94502 17.4602 5.75075C17.3831 5.6491 17.3213 5.56752 17.2997 5.53967C16.613 4.65356 16.2045 4.375 15.5001 4.375H4.50009V11.875H37.5001ZM37.5001 15.625H4.50009V30.625H37.5001V15.625Z"/>
	</g>
</svg>
