<svg xmlns="http://www.w3.org/2000/svg" width="40" height="40" viewBox="0 0 40 40">
	<g transform="translate(1,1)">
		<path d="M15.3,18.9L34,15.8v8c-1.1-0.6-2.4-0.9-3.7-0.9c-4.1,0-7.5,2.9-7.5,6.6c0,3.7,3.4,6.6,7.5,6.6
	c4.1,0,7.5-2.9,7.5-6.6V0.1L11.5,4.5v21.2c-1.1-0.6-2.4-0.9-3.7-0.9c-4.1,0-7.5,2.9-7.5,6.6c0,3.7,3.4,6.6,7.5,6.6s7.5-2.9,7.5-6.6
	V18.9z M11.5,31.4c0,1.5-1.6,2.8-3.7,2.8c-2.1,0-3.7-1.3-3.7-2.8c0-1.5,1.6-2.8,3.7-2.8C9.9,28.5,11.5,29.9,11.5,31.4z M30.2,32.3
	c2.1,0,3.7-1.3,3.7-2.8c0-1.5-1.6-2.8-3.7-2.8c-2.1,0-3.7,1.3-3.7,2.8C26.5,30.9,28.1,32.3,30.2,32.3z M15.3,15.1V7.6L34,4.5V12
	L15.3,15.1z" fill-rule="evenodd" clip-rule="evenodd"/>
	</g>
</svg>
