<svg width="56" height="56" viewBox="0 0 56 56" xmlns="http://www.w3.org/2000/svg">
	<g transform="translate(1,1)">
		<path
			d="M6.2843 6.29674V53.0732C6.2843 53.5701 6.68707 53.9728 7.18395 53.9728H41.3668C41.8633 53.9728 42.2661 53.5701 42.2661 53.0732V15.2925C42.2661 15.2725 42.2565 15.2554 42.2546 15.2358C42.2501 15.1569 42.2346 15.079 42.2087 15.0046C42.1986 14.9757 42.1916 14.9479 42.179 14.9197C42.1353 14.8219 42.0745 14.7326 41.9989 14.6563L33.0036 5.66091C32.9272 5.58495 32.8376 5.52418 32.739 5.48083C32.712 5.46934 32.6846 5.45971 32.6564 5.45119C32.5812 5.42525 32.503 5.40969 32.4233 5.4045C32.4081 5.40709 32.3904 5.39746 32.3715 5.39746H7.18395C6.68707 5.39746 6.2843 5.79986 6.2843 6.29674ZM39.1951 14.3928H33.2707V8.46841L39.1951 14.3928ZM8.08322 7.19638H31.4718V15.2925C31.4718 15.789 31.8746 16.1917 32.3711 16.1917H40.4672V52.1739H8.08322V7.19638Z" opacity="0.5"/>
		<path
			d="M44.0656 46.7764V48.5754H46.7642C47.261 48.5754 47.6638 48.173 47.6638 47.6761V0.899647C47.6638 0.402766 47.261 0 46.7642 0H12.5813C12.0844 0 11.6816 0.402766 11.6816 0.899647V3.59822H13.4809V1.79892H45.8645V46.7764H44.0656Z" opacity="0.5"/>
		<path d="M13.4808 17.9912H35.0697V19.7901H13.4808V17.9912Z" opacity="0.5"/>
		<path d="M13.4808 12.5933H20.6772V14.3926H13.4808V12.5933Z" opacity="0.5"/>
		<path d="M13.4808 23.3882H27.8736V25.1875H13.4808V23.3882Z" opacity="0.5"/>
		<path d="M29.6727 23.3882H35.0698V25.1875H29.6727V23.3882Z" opacity="0.5"/>
		<path d="M13.4808 28.7852H35.0697V30.5844H13.4808V28.7852Z" opacity="0.5"/>
		<path
			d="M16.5034 37H14V46H15.314V42.6952H16.5173C18.6196 42.6952 20.2102 41.8462 20.2102 39.7823C20.2102 37.8882 18.7994 37 16.5034 37ZM16.4619 41.7155H15.314V37.9666H16.4896C17.9004 37.9666 18.8132 38.4499 18.8132 39.7954C18.8132 41.3237 17.8727 41.7155 16.4619 41.7155Z"
			fill="#F50057"/>
		<path
			d="M24.0284 37H22.0367V46H24.3188C26.3797 46 28.8001 45.1248 28.8001 41.4543C28.8001 37.7184 26.4626 37 24.0284 37ZM24.3188 37.9927C25.8402 37.9927 27.4032 38.4107 27.4032 41.4543C27.4032 44.4194 25.9094 45.0203 24.4156 45.0203H23.3506V37.9927H24.3188Z"
			fill="#F50057"/>
		<path d="M30.9378 46H32.2517V42.0421H35.3638V41.0624H32.2517V37.9927H35.8479L36 37H30.9378V46Z" fill="#F50057"/>
	</g>
</svg>
