<svg width="86" height="86" viewBox="0 0 86 86" xmlns="http://www.w3.org/2000/svg">
	<g transform="translate(1,1)">
		<path
			d="M6.38252 5.87907H62.7213C62.8928 5.87769 63.0629 5.9112 63.2211 5.97757C63.3793 6.04394 63.5223 6.14179 63.6415 6.26517C63.7607 6.38854 63.8536 6.53486 63.9145 6.69525C63.9754 6.85563 64.0031 7.02672 63.9958 7.19813V58.1174H79.6169C79.9763 58.1241 80.3187 58.2718 80.5701 58.5288C80.8215 58.7857 80.9618 59.1312 80.9607 59.4907V69.9743C80.98 72.6416 79.9629 75.2122 78.1238 77.1442C77.2289 78.0884 76.1502 78.8396 74.9542 79.3516C73.7582 79.8636 72.4701 80.1255 71.1691 80.1213H13.8917C9.01022 80.1213 5.03877 76.0228 5.03877 70.9552V7.19813C5.03926 7.02296 5.07454 6.84963 5.14255 6.6882C5.21056 6.52677 5.30994 6.38046 5.43495 6.25775C5.55996 6.13504 5.70809 6.03838 5.87076 5.97337C6.03342 5.90837 6.20737 5.87631 6.38252 5.87907ZM71.1691 77.4585C72.1078 77.459 73.0366 77.2677 73.8987 76.8963C74.7608 76.5249 75.5378 75.9812 76.1821 75.2986C77.5417 73.8612 78.2913 71.9527 78.2732 69.9743V60.8049H63.9958V69.9743C63.9902 71.957 64.7519 73.8651 66.1215 75.2989C66.7726 75.9821 67.5558 76.5258 68.4235 76.897C69.2912 77.2683 70.2253 77.4593 71.1691 77.4585ZM7.72627 70.9552C7.72627 74.5412 10.492 77.4338 13.8917 77.4338H64.5165C64.4142 77.4338 64.2792 77.2472 64.1806 77.144C62.3315 75.2158 61.3019 72.6458 61.3083 69.9743V8.56657H7.72627V70.9552Z"/>
		<path
			d="M55.4688 18.6445H33.0253C32.6689 18.6445 32.3271 18.503 32.0751 18.251C31.8231 17.999 31.6815 17.6572 31.6815 17.3008C31.6815 16.9444 31.8231 16.6026 32.0751 16.3506C32.3271 16.0986 32.6689 15.957 33.0253 15.957H55.4688C55.8251 15.957 56.1669 16.0986 56.4189 16.3506C56.6709 16.6026 56.8125 16.9444 56.8125 17.3008C56.8125 17.6572 56.6709 17.999 56.4189 18.251C56.1669 18.503 55.8251 18.6445 55.4688 18.6445Z"/>
		<path
			d="M55.4688 25.3633H13.5409C13.1845 25.3633 12.8427 25.2217 12.5907 24.9697C12.3387 24.7177 12.1971 24.3759 12.1971 24.0195C12.1971 23.6631 12.3387 23.3214 12.5907 23.0694C12.8427 22.8174 13.1845 22.6758 13.5409 22.6758H55.4688C55.8251 22.6758 56.1669 22.8174 56.4189 23.0694C56.6709 23.3214 56.8125 23.6631 56.8125 24.0195C56.8125 24.3759 56.6709 24.7177 56.4189 24.9697C56.1669 25.2217 55.8251 25.3633 55.4688 25.3633Z"/>
		<path
			d="M55.4688 31.9141H13.5409C13.1845 31.9141 12.8427 31.7725 12.5907 31.5205C12.3387 31.2685 12.1971 30.9267 12.1971 30.5703C12.1971 30.2139 12.3387 29.8721 12.5907 29.6201C12.8427 29.3681 13.1845 29.2266 13.5409 29.2266H55.4688C55.8251 29.2266 56.1669 29.3681 56.4189 29.6201C56.6709 29.8721 56.8125 30.2139 56.8125 30.5703C56.8125 30.9267 56.6709 31.2685 56.4189 31.5205C56.1669 31.7725 55.8251 31.9141 55.4688 31.9141Z"/>
		<path
			d="M12.7656 38.2969C12.7656 37.9405 12.9072 37.5987 13.1592 37.3467C13.4112 37.0947 13.753 36.9531 14.1094 36.9531H55.2617C55.6181 36.9531 55.9599 37.0947 56.2119 37.3467C56.4639 37.5987 56.6055 37.9405 56.6055 38.2969V67.6914C56.6055 68.0478 56.4639 68.3896 56.2119 68.6416C55.9599 68.8936 55.6181 69.0352 55.2617 69.0352H14.1094C13.753 69.0352 13.4112 68.8936 13.1592 68.6416C12.9072 68.3896 12.7656 68.0478 12.7656 67.6914V38.2969ZM15.2852 39.6406V56.3134L25.4906 49.1065C25.7506 48.9242 26.0661 48.8383 26.3827 48.8635C26.6993 48.8887 26.9972 49.0235 27.225 49.2447L35.2118 57.0865L44.4591 52.5816C44.6632 52.4851 44.8875 52.4388 45.1131 52.4468C45.3388 52.4547 45.5592 52.5165 45.756 52.6271L53.918 57.3415V39.6406H15.2852ZM53.918 60.4483L45.0289 55.3111L37.2687 59.1109L44.761 66.5156H53.918V60.4483ZM40.9271 66.5156L26.1269 51.9749L15.2852 59.6067V66.5156H40.9271Z"/>
		<path
			d="M36.8018 52.5713C35.8975 52.5713 35.0136 52.3032 34.2618 51.8008C33.51 51.2984 32.924 50.5844 32.578 49.749C32.232 48.9136 32.1414 47.9944 32.3178 47.1075C32.4943 46.2207 32.9297 45.4061 33.5691 44.7667C34.2085 44.1274 35.0231 43.6919 35.91 43.5156C36.7968 43.3392 37.716 43.4297 38.5514 43.7758C39.3868 44.1218 40.1008 44.7078 40.6031 45.4597C41.1055 46.2115 41.3736 47.0955 41.3735 47.9997C41.3722 49.2117 40.89 50.3738 40.033 51.2308C39.1759 52.0879 38.0138 52.57 36.8018 52.5713ZM36.8018 46.1154C36.4291 46.1154 36.0648 46.2259 35.7549 46.433C35.445 46.64 35.2035 46.9343 35.0609 47.2786C34.9183 47.6229 34.881 48.0018 34.9537 48.3673C35.0264 48.7328 35.2059 49.0685 35.4694 49.3321C35.7329 49.5956 36.0686 49.775 36.4342 49.8477C36.7997 49.9204 37.1785 49.8831 37.5228 49.7405C37.8671 49.5979 38.1614 49.3564 38.3685 49.0465C38.5755 48.7367 38.686 48.3724 38.686 47.9997C38.6855 47.5001 38.4868 47.0212 38.1335 46.6679C37.7803 46.3147 37.3013 46.116 36.8018 46.1154Z"/>
	</g>
</svg>
