<svg width="45" height="45" viewBox="0 0 45 45" xmlns="http://www.w3.org/2000/svg">
	<g transform="translate(1,1)">
		<path
			d="M42.7267 20.6638C42.3426 20.1383 33.1897 7.79688 21.4998 7.79688C9.8099 7.79688 0.656591 20.1383 0.272866 20.6633C-0.0909552 21.1618 -0.0909552 21.838 0.272866 22.3365C0.656591 22.862 9.8099 35.2035 21.4998 35.2035C33.1897 35.2035 42.3426 22.8619 42.7267 22.3369C43.091 21.8385 43.091 21.1618 42.7267 20.6638ZM21.4998 32.3683C12.8889 32.3683 5.43103 24.177 3.22333 21.4992C5.42817 18.819 12.8705 10.632 21.4998 10.632C30.1102 10.632 37.5676 18.8219 39.7763 21.5011C37.5714 24.1812 30.1291 32.3683 21.4998 32.3683Z"/>
		<path
			d="M21.4997 12.9941C16.8098 12.9941 12.9941 16.8098 12.9941 21.4997C12.9941 26.1895 16.8098 30.0052 21.4997 30.0052C26.1895 30.0052 30.0052 26.1895 30.0052 21.4997C30.0052 16.8098 26.1895 12.9941 21.4997 12.9941ZM21.4997 27.17C18.3729 27.17 15.8294 24.6263 15.8294 21.4997C15.8294 18.373 18.373 15.8294 21.4997 15.8294C24.6263 15.8294 27.17 18.373 27.17 21.4997C27.17 24.6263 24.6264 27.17 21.4997 27.17Z"/>
		<circle cx="21.4999" cy="21.4999" r="2.62195"/>
	</g>
</svg>
