<svg xmlns="http://www.w3.org/2000/svg" width="31" height="24" viewBox="0 0 31 24">
	<g transform="translate(1,1)">
		<path d="M1.4,16.8c-0.6,0-1-0.4-1-1V6.2c0-0.6,0.4-1,1-1s1,0.4,1,1v9.6C2.4,16.3,2,16.8,1.4,16.8z"/>
		<path d="M14.5,17.1c-0.6,0-1-0.4-1-1V6.5c0-0.6,0.4-1,1-1s1,0.4,1,1v9.6C15.5,16.6,15.1,17.1,14.5,17.1z"/>
		<path d="M14.5,2.9c-0.6,0-1-0.4-1-1V1c0-0.6,0.4-1,1-1s1,0.4,1,1v0.9C15.5,2.4,15.1,2.9,14.5,2.9z"/>
		<path d="M14.5,22c-0.6,0-1-0.4-1-1v-0.9c0-0.6,0.4-1,1-1s1,0.4,1,1V21C15.5,21.6,15.1,22,14.5,22z"/>
		<path d="M27.6,16.8c-0.6,0-1-0.4-1-1V6.2c0-0.6,0.4-1,1-1s1,0.4,1,1v9.6C28.6,16.3,28.1,16.8,27.6,16.8z"/>
		<path d="M23.2,13.9c-0.6,0-1-0.4-1-1V9.1c0-0.6,0.4-1,1-1s1,0.4,1,1v3.8C24.2,13.4,23.8,13.9,23.2,13.9z"/>
		<path d="M18.9,15.6c-0.6,0-1-0.4-1-1V7.4c0-0.6,0.4-1,1-1s1,0.4,1,1v7.3C19.9,15.2,19.4,15.6,18.9,15.6z"/>
		<path d="M10.1,15.6c-0.6,0-1-0.4-1-1V7.4c0-0.6,0.4-1,1-1s1,0.4,1,1v7.3C11.1,15.2,10.7,15.6,10.1,15.6z"/>
		<path d="M5.8,13.9c-0.6,0-1-0.4-1-1V9.1c0-0.6,0.4-1,1-1s1,0.4,1,1v3.8C6.8,13.4,6.3,13.9,5.8,13.9z"/>
	</g>
</svg>
