<svg width="62" height="77" viewBox="0 0 62 77" xmlns="http://www.w3.org/2000/svg">
	<g transform="translate(1,1)">
		<path
			d="M17.7829 14.0566C18.5837 14.0566 19.2328 14.7058 19.2328 15.5066L19.2328 57.9699C19.2328 58.7707 18.5837 59.4198 17.7829 59.4198C16.9822 59.4198 16.333 58.7707 16.333 57.9699L16.333 15.5066C16.333 14.7058 16.9822 14.0566 17.7829 14.0566Z"/>
		<path
			d="M25.9494 14.0547C26.7502 14.0547 27.3993 14.7038 27.3993 15.5046L27.3993 57.968C27.3993 58.7687 26.7502 59.4179 25.9494 59.4179C25.1487 59.4179 24.4995 58.7687 24.4995 57.968L24.4995 15.5046C24.4995 14.7038 25.1487 14.0547 25.9494 14.0547Z"/>
		<path
			d="M34.1145 14.0547C34.9152 14.0547 35.5644 14.7038 35.5644 15.5046L35.5644 57.968C35.5644 58.7687 34.9152 59.4179 34.1145 59.4179C33.3137 59.4179 32.6645 58.7687 32.6645 57.968L32.6646 15.5046C32.6646 14.7038 33.3137 14.0547 34.1145 14.0547Z"/>
		<path
			d="M42.281 14.0547C43.0817 14.0547 43.7309 14.7038 43.7309 15.5046L43.7309 57.968C43.7309 58.7687 43.0817 59.4179 42.281 59.4179C41.4802 59.4179 40.8311 58.7687 40.8311 57.968L40.8311 15.5046C40.8311 14.7038 41.4802 14.0547 42.281 14.0547Z"/>
		<path
			d="M50.4475 14.0547C51.2482 14.0547 51.8974 14.7038 51.8974 15.5046L51.8974 57.968C51.8974 58.7687 51.2482 59.4179 50.4475 59.4179C49.6467 59.4179 48.9976 58.7687 48.9976 57.968L48.9976 15.5046C48.9976 14.7038 49.6467 14.0547 50.4475 14.0547Z"/>
		<path
			d="M0 1.62179C0 0.821023 0.649148 0.171875 1.44991 0.171875H29.2149C30.0157 0.171875 30.6648 0.821023 30.6648 1.62179C30.6648 2.42255 30.0157 3.0717 29.2149 3.0717H2.89983V71.2177H29.2149C30.0157 71.2177 30.6648 71.8668 30.6648 72.6676C30.6648 73.4684 30.0157 74.1175 29.2149 74.1175H1.44991C0.649148 74.1175 0 73.4684 0 72.6676V1.62179Z"/>
		<path
			d="M7.97461 9.5964C7.97461 8.79563 8.62376 8.14648 9.42452 8.14648H58.4216C59.2224 8.14648 59.8715 8.79563 59.8715 9.5964V72.476C59.8715 73.2768 59.2224 73.9259 58.4216 73.9259H9.42452C8.62376 73.9259 7.97461 73.2768 7.97461 72.476V9.5964ZM10.8744 11.0463V71.0261H56.9717V11.0463H10.8744Z"/>
	</g>
</svg>
