<svg xmlns="http://www.w3.org/2000/svg" width="43" height="35" viewBox="0 0 43 35">
	<g transform="translate(1,1)">
			<path d="M11.2,5.2c0.1-0.2,0.3-0.4,0.4-0.7c0.1-0.1,0.3-0.4,0.4-0.6c0.1-0.1,0.1-0.2,0.2-0.3C13.7,1.1,14.8,0,16.8,0h7.3
		c2,0,3.1,1.1,4.6,3.6c0,0,0.1,0.1,0.2,0.3s0.3,0.5,0.4,0.6c0.2,0.3,0.3,0.5,0.5,0.7C29.9,5.3,30,5.4,30,5.5h5.2c3,0,5.5,2.5,5.5,5.5
		v16.5c0,3-2.5,5.5-5.5,5.5H5.8c-3,0-5.5-2.5-5.5-5.5V11c0-3,2.5-5.5,5.5-5.5H11C11,5.4,11.1,5.3,11.2,5.2z M5.8,9.2
		C4.8,9.2,4,10,4,11v16.5c0,1,0.8,1.8,1.8,1.8h29.3c1,0,1.8-0.8,1.8-1.8V11c0-1-0.8-1.8-1.8-1.8h-5.5c-1.2,0-2-0.7-2.9-1.8
		c-0.2-0.3-0.4-0.5-0.6-0.9C26,6.4,25.8,6,25.7,5.8c-0.1-0.1-0.1-0.2-0.1-0.2c-0.8-1.4-1.3-1.9-1.5-1.9h-7.3c-0.2,0-0.7,0.5-1.5,1.9
		c0,0-0.1,0.1-0.1,0.2c-0.1,0.2-0.3,0.6-0.4,0.7c-0.2,0.4-0.4,0.7-0.6,0.9c-0.9,1.1-1.7,1.8-2.9,1.8H5.8z M35.1,12.8
		c0,1-0.8,1.8-1.8,1.8s-1.8-0.8-1.8-1.8s0.8-1.8,1.8-1.8S35.1,11.8,35.1,12.8z M11.3,18.3c0,5.1,4.1,9.2,9.2,9.2s9.2-4.1,9.2-9.2
		s-4.1-9.2-9.2-9.2C15.4,9.2,11.3,13.3,11.3,18.3z M26,18.3c0,3-2.5,5.5-5.5,5.5S15,21.3,15,18.3s2.5-5.5,5.5-5.5
		C23.5,12.8,26,15.3,26,18.3z"/>
	</g>
</svg>
