<svg version="1.1" id="Слой_1" xmlns="http://www.w3.org/2000/svg" width="68" height="90" viewBox="0 0 68 90">
	<g transform="translate(1,1)">
		<path d="M32.5,49.9H7.6c-0.8,0-1.5-0.7-1.5-1.5V2c0-0.8,0.7-1.5,1.5-1.5h20.9C31.5,0.5,34,3,34,6v42.4
		C34,49.3,33.3,49.9,32.5,49.9z M9.1,46.9H31V6c0-1.4-1.1-2.5-2.5-2.5H9.1V46.9z"/>
		<path d="M57.4,49.9H32.5c-0.8,0-1.5-0.7-1.5-1.5V6c0-3,2.5-5.5,5.5-5.5h20.9c0.8,0,1.5,0.7,1.5,1.5v46.4
		C58.9,49.3,58.2,49.9,57.4,49.9z M34,46.9h21.9V3.5H36.5C35.1,3.5,34,4.6,34,6V46.9z"/>
		<path
			d="M64,87.5H2c-0.8,0-1.5-0.7-1.5-1.5s0.7-1.5,1.5-1.5h62c0.8,0,1.5,0.7,1.5,1.5S64.8,87.5,64,87.5z"/>
		<path
			d="M26.8,13.7H14.4c-0.8,0-1.5-0.7-1.5-1.5s0.7-1.5,1.5-1.5h12.5c0.8,0,1.5,0.7,1.5,1.5S27.7,13.7,26.8,13.7z"/>
		<path
			d="M26.8,21.6H14.4c-0.8,0-1.5-0.7-1.5-1.5s0.7-1.5,1.5-1.5h12.5c0.8,0,1.5,0.7,1.5,1.5S27.7,21.6,26.8,21.6z"/>
		<path
			d="M26.8,29.5H14.4c-0.8,0-1.5-0.7-1.5-1.5s0.7-1.5,1.5-1.5h12.5c0.8,0,1.5,0.7,1.5,1.5S27.7,29.5,26.8,29.5z"/>
		<path
			d="M50.6,13.7H38.2c-0.8,0-1.5-0.7-1.5-1.5s0.7-1.5,1.5-1.5h12.5c0.8,0,1.5,0.7,1.5,1.5S51.4,13.7,50.6,13.7z"/>
		<path
			d="M50.6,21.6H38.2c-0.8,0-1.5-0.7-1.5-1.5s0.7-1.5,1.5-1.5h12.5c0.8,0,1.5,0.7,1.5,1.5S51.4,21.6,50.6,21.6z"/>
		<path
			d="M50.6,29.5H38.2c-0.8,0-1.5-0.7-1.5-1.5s0.7-1.5,1.5-1.5h12.5c0.8,0,1.5,0.7,1.5,1.5S51.4,29.5,50.6,29.5z"/>
		<path d="M45,78.2H20c-0.8,0-1.5-0.7-1.5-1.5V56.4c0-0.8,0.7-1.5,1.5-1.5H45c0.8,0,1.5,0.7,1.5,1.5v20.4
		C46.5,77.6,45.8,78.2,45,78.2z M21.5,75.2h21.9V57.9H21.5V75.2z"/>
	</g>
</svg>
