<?xml version="1.0" encoding="UTF-8"?>
<!DOCTYPE svg PUBLIC "-//W3C//DTD SVG 1.1//EN" "http://www.w3.org/Graphics/SVG/1.1/DTD/svg11.dtd">
<svg xmlns="http://www.w3.org/2000/svg">
<symbol id="icon-arrow-left" viewBox="0 0 22 41">
	<path d="M21.914 39.592L20.5 41.006 1.408 21.914-.006 20.5 20.5-.006l1.414 1.414L2.822 20.5l19.092 19.092z"/>
</symbol>
<symbol id="icon-arrow-right" viewBox="0 0 22 41">
	<path d="M20.586 21.914L1.412 41.006l-1.42-1.414L19.166 20.5-.008 1.408l1.42-1.414L22.006 20.5l-1.42 1.414z"/>
</symbol>
<symbol id="icon-logo-5th" viewBox="0 0 51 55">
	<path fill="#C6D0EB" fill-rule="evenodd" d="M10.77 13.377l4.666.046L21.93 6.85c.116-.133.243-.255.38-.365l.038-.022.255-.21.046-.026a6.261 6.261 0 0 1 2.178-1.112l.068-.04a5.132 5.132 0 0 1 2.165-.145s-6.576-1.413-9.792 1.882l-6.499 6.565zm17.045 29.524l-2.589-.006 1.625-1.646-.267-.461a18.678 18.678 0 0 0-1.48-2.105l-.063-.11c-.036-.062-.067-.117-.142-.157l-6.973 7.1 8.881.082.139-.007c1.863-.034 1.634-1.1.826-2.676l.043-.014zm-3.543-12.834a9.5 9.5 0 0 1 6.071 2.882l1.095-1.1c2.294-2.284 2.639-4.014 1.337-6.639l-8.157-14.129c1.882-1.868 3.504-1.72 4.81.349l.055.093.167.29.126.218 7.264 12.582c1.197 2.11 1.035 4.716-.41 6.604l-.136.171-.127.167-.084.049-.046.026-.046.027-3.853 3.902.068.117.05.086 2.4 4.158.108.187c.122.176.23.361.32.555 1.034 2.425-.51 5.004-.91 5.475l-2.367 2.721.069-.04.164-.209a6.156 6.156 0 0 0 .358-5.25l-.04-.07-.127-.219-.054-.094a.313.313 0 0 1-.045-.078l-8.06-12.83zm8.084 12.661l-2.211-3.83-.352-.609-.027-.047c-.154-.265-.311-.539-.497-.755l-.045-.078c-.33-.477-.684-.937-1.06-1.378l-.023-.039a12.52 12.52 0 0 0-1.044-1.033l-.09-.156a8.276 8.276 0 0 0-3.388-1.848 7.06 7.06 0 0 0-1.95-.239l-6.516-.04 2.633-2.667 6.486.058 8.084 12.661zM5.546 24.072l11.468.12-1.566-2.71-7.27-.076-2.632 2.666z" clip-rule="evenodd"/>
	<path fill="#768FC8" fill-rule="evenodd" d="M18.076 30.372l-.855-1.48-4.261.023 2.4 4.157 4.68-2.703-1.98.012.017-.009zm6.528-1.485l2.708-2.695-6.158-10.667 3.884-3.867c2.64-2.634 4.158-1.588 5.463.6.036.054.07.11.098.17l7.085 12.27c1.278 2.298.903 5.17-.927 7.096l-3.964 3.944.067.116.049.084 2.369 4.104 4.498-4.46c3.09-3.133 3.784-7.883 1.714-11.714L32.762 8.751C30.536 4.895 25.95 3.923 22.611 7.24l-6.671 6.659 8.656 14.993.008-.004zm2.478 12.544l-1.67 1.664 2.583-.011-.806-1.396-.107-.257z" clip-rule="evenodd"/>
	<path fill="#B7689A" fill-rule="evenodd" d="M18.24 46.06l9.23-.073c2.67-.018 1.597-1.784.258-4.197l-.35-.607c-1.052-1.653-2.397-3.873-4.727-3.82l-9.391.07-7.511-13.01 11.917-.078-6.3-10.912 4.858-.04 8.85 15.327-11.944.052 2.454 4.25 6.732-.05c4.349-.072 6.962 3.067 8.709 6.074l2.235 3.871c1.297 2.247 1.182 7.413-2.923 7.48l-9.57.038-2.527-4.376z" clip-rule="evenodd"/>
</symbol>
</svg>