<svg width="15" height="19" viewBox="0 0 15 19" fill="none" xmlns="http://www.w3.org/2000/svg">
<path fill-rule="evenodd" clip-rule="evenodd" d="M7.5 18.4675L8.0207 18.0128C12.3994 14.1895 14.625 10.851 14.625 7.9165C14.625 3.76078 11.3815 0.791504 7.5 0.791504C3.6185 0.791504 0.375 3.76078 0.375 7.9165C0.375 10.851 2.60062 14.1895 6.9793 18.0128L7.5 18.4675ZM7.5 16.3584C3.7844 13.0097 1.95833 10.1721 1.95833 7.9165C1.95833 4.66798 4.46326 2.37484 7.5 2.37484C10.5367 2.37484 13.0417 4.66798 13.0417 7.9165C13.0417 10.1721 11.2156 13.0097 7.5 16.3584ZM7.5 3.95817C9.68613 3.95817 11.4583 5.73038 11.4583 7.9165C11.4583 10.1026 9.68613 11.8748 7.5 11.8748C5.31387 11.8748 3.54167 10.1026 3.54167 7.9165C3.54167 5.73038 5.31387 3.95817 7.5 3.95817ZM5.125 7.9165C5.125 6.60483 6.18832 5.5415 7.5 5.5415C8.81168 5.5415 9.875 6.60483 9.875 7.9165C9.875 9.22818 8.81168 10.2915 7.5 10.2915C6.18832 10.2915 5.125 9.22818 5.125 7.9165Z" fill="black"/>
</svg>
