<svg width="19" height="19" viewBox="0 0 19 19" fill="none" xmlns="http://www.w3.org/2000/svg">
<path fill-rule="evenodd" clip-rule="evenodd" d="M9.50002 18.2084C4.69054 18.2084 0.791687 14.3096 0.791687 9.50008C0.791687 4.6906 4.69054 0.791748 9.50002 0.791748C14.3095 0.791748 18.2084 4.6906 18.2084 9.50008C18.2084 14.3096 14.3095 18.2084 9.50002 18.2084ZM9.50002 16.6251C13.435 16.6251 16.625 13.4351 16.625 9.50008C16.625 5.56505 13.435 2.37508 9.50002 2.37508C5.56499 2.37508 2.37502 5.56505 2.37502 9.50008C2.37502 13.4351 5.56499 16.6251 9.50002 16.6251ZM13.4584 8.70841H10.2917V4.75008H8.70835V10.2917H13.4584V8.70841Z" fill="black"/>
</svg>
