<svg width="16" height="19" viewBox="0 0 16 19" fill="none" xmlns="http://www.w3.org/2000/svg">
<path fill-rule="evenodd" clip-rule="evenodd" d="M6.50006 0.625C9.8828 0.625 12.6251 3.36726 12.6251 6.75C12.6251 10.1327 9.8828 12.875 6.50006 12.875C3.11732 12.875 0.375059 10.1327 0.375059 6.75C0.375059 3.36726 3.11732 0.625 6.50006 0.625ZM7.37506 15.4568V16.375H9.12506V18.125H3.87506V16.375H5.62506V15.4566C3.62408 15.2575 1.77268 14.3794 0.351318 12.9754L1.58111 11.7304C2.88332 13.0166 4.63263 13.75 6.50006 13.75C10.3661 13.75 13.5001 10.616 13.5001 6.75C13.5001 4.91224 12.79 3.18852 11.5399 1.89198L12.7997 0.677316C14.3612 2.29683 15.2501 4.45458 15.2501 6.75C15.2501 11.2872 11.7967 15.0178 7.37506 15.4568ZM2.12506 6.75C2.12506 4.33376 4.08381 2.375 6.50006 2.375C8.9163 2.375 10.8751 4.33376 10.8751 6.75C10.8751 9.16625 8.9163 11.125 6.50006 11.125C4.08381 11.125 2.12506 9.16625 2.12506 6.75Z" fill="black"/>
</svg>
