<svg width="19" height="19" viewBox="0 0 19 19" fill="none" xmlns="http://www.w3.org/2000/svg">
<path fill-rule="evenodd" clip-rule="evenodd" d="M9.49999 18.2084C4.69051 18.2084 0.791656 14.3096 0.791656 9.50008C0.791656 4.6906 4.69051 0.791748 9.49999 0.791748C14.3095 0.791748 18.2083 4.6906 18.2083 9.50008C18.2083 14.3096 14.3095 18.2084 9.49999 18.2084ZM15.3579 13.5571C16.1568 12.4058 16.625 11.0076 16.625 9.50008C16.625 5.56505 13.435 2.37508 9.49999 2.37508C5.56496 2.37508 2.37499 5.56505 2.37499 9.50008C2.37499 11.0076 2.84317 12.4058 3.64206 13.5571C4.53304 12.3802 6.62672 11.8751 9.49999 11.8751C12.3733 11.8751 14.4669 12.3802 15.3579 13.5571ZM14.222 14.8357C13.9903 14.0026 12.3257 13.4584 9.49999 13.4584C6.67423 13.4584 5.00966 14.0026 4.77795 14.8357C6.0351 15.9491 7.68861 16.6251 9.49999 16.6251C11.3114 16.6251 12.9649 15.9491 14.222 14.8357ZM9.49999 4.75008C7.58344 4.75008 6.33332 6.14006 6.33332 7.91675C6.33332 10.6301 7.72734 11.8751 9.49999 11.8751C11.256 11.8751 12.6667 10.6714 12.6667 8.07508C12.6667 6.27133 11.4112 4.75008 9.49999 4.75008ZM7.91666 7.91675C7.91666 9.71324 8.56441 10.2917 9.49999 10.2917C10.4323 10.2917 11.0833 9.73631 11.0833 8.07508C11.0833 7.08583 10.4624 6.33342 9.49999 6.33342C8.49753 6.33342 7.91666 6.97928 7.91666 7.91675Z" fill="black"/>
</svg>
