<svg width="14" height="14" viewBox="0 0 14 14" fill="none" xmlns="http://www.w3.org/2000/svg">
<path fill-rule="evenodd" clip-rule="evenodd" d="M9.30035 0.93519C10.0084 0.732891 10.7464 1.14288 10.9487 1.85093C10.9827 1.97005 11 2.09333 11 2.21722V10.1639C11 10.7592 10.6053 11.2824 10.0329 11.4459L5.76025 12.6667H12.3333V7.33333H11V6H12.3333V4.66667H11V3.33333H12.3333C13.0697 3.33333 13.6667 3.93029 13.6667 4.66667V12.6667C13.6667 13.403 13.0697 14 12.3333 14H1.66667C0.930287 14 0.333333 13.403 0.333333 12.6667H0.351104C0.339277 12.595 0.333313 12.5224 0.333313 12.4496V4.50294C0.333313 3.90763 0.727949 3.38445 1.30035 3.2209L9.30035 0.93519ZM1.66667 4.50284V12.4495L9.66667 10.1638V2.21712L1.66667 4.50284ZM8.33333 6C8.33333 6.36819 8.03486 6.66667 7.66667 6.66667C7.29848 6.66667 7 6.36819 7 6C7 5.63181 7.29848 5.33333 7.66667 5.33333C8.03486 5.33333 8.33333 5.63181 8.33333 6Z" fill="black"/>
</svg>
