<svg width="17" height="17" viewBox="0 0 17 17" fill="none" xmlns="http://www.w3.org/2000/svg">
<path fill-rule="evenodd" clip-rule="evenodd" d="M5.33334 6.12492C5.33334 3.06434 7.81443 0.583252 10.875 0.583252C13.9356 0.583252 16.4167 3.06434 16.4167 6.12492C16.4167 9.1855 13.9356 11.6666 10.875 11.6666H9.29168V13.2499H7.70834V14.8333H6.12501V16.4166H0.583344V12.1303L5.45051 7.26316C5.37289 6.89162 5.33334 6.5107 5.33334 6.12492ZM7.70834 10.0833H10.875C13.0611 10.0833 14.8333 8.31105 14.8333 6.12492C14.8333 3.93879 13.0611 2.16659 10.875 2.16659C8.68888 2.16659 6.91668 3.93879 6.91668 6.12492C6.91668 6.51967 6.97422 6.9058 7.08616 7.2751L7.22376 7.72909L2.16668 12.7862V14.8333H4.54168V13.2499H6.12501V11.6666H7.70834V10.0833ZM9.29168 6.12492C9.29168 6.99937 10.0006 7.70825 10.875 7.70825C11.7495 7.70825 12.4583 6.99937 12.4583 6.12492C12.4583 5.25047 11.7495 4.54158 10.875 4.54158C10.0006 4.54158 9.29168 5.25047 9.29168 6.12492Z" fill="black"/>
</svg>
