<svg width="14" height="14" viewBox="0 0 14 14" fill="none" xmlns="http://www.w3.org/2000/svg">
<path fill-rule="evenodd" clip-rule="evenodd" d="M7 13.6077L7.38367 13.2727C10.6101 10.4554 12.25 7.99553 12.25 5.83325C12.25 2.77114 9.86005 0.583252 7 0.583252C4.13995 0.583252 1.75 2.77114 1.75 5.83325C1.75 7.99553 3.38993 10.4554 6.61633 13.2727L7 13.6077ZM7 12.0536C4.26219 9.58615 2.91667 7.4953 2.91667 5.83325C2.91667 3.4396 4.7624 1.74992 7 1.74992C9.2376 1.74992 11.0833 3.4396 11.0833 5.83325C11.0833 7.4953 9.73781 9.58615 7 12.0536ZM7 2.91658C8.61083 2.91658 9.91667 4.22242 9.91667 5.83325C9.91667 7.44408 8.61083 8.74992 7 8.74992C5.38917 8.74992 4.08333 7.44408 4.08333 5.83325C4.08333 4.22242 5.38917 2.91658 7 2.91658ZM5.25 5.83325C5.25 4.86675 6.0335 4.08325 7 4.08325C7.9665 4.08325 8.75 4.86675 8.75 5.83325C8.75 6.79975 7.9665 7.58325 7 7.58325C6.0335 7.58325 5.25 6.79975 5.25 5.83325Z" fill="#FF8336"/>
</svg>
