<?xml version="1.0" encoding="UTF-8"?><!DOCTYPE svg PUBLIC "-//W3C//DTD SVG 1.1//EN" "http://www.w3.org/Graphics/SVG/1.1/DTD/svg11.dtd"><svg xmlns="http://www.w3.org/2000/svg"><symbol id="icon-check" viewBox="0 0 16 13"><path stroke="#FF8336" stroke-linecap="round" stroke-width="4" d="M2 6l4 4 8-8"/></symbol><symbol id="icon-clock" viewBox="0 0 19 19"><path fill="#000" fill-rule="evenodd" d="M9.5 18.208A8.708 8.708 0 1 1 9.5.792a8.708 8.708 0 0 1 0 17.416zm0-1.583a7.125 7.125 0 1 0 0-14.25 7.125 7.125 0 0 0 0 14.25zm3.958-7.917h-3.166V4.75H8.708v5.542h4.75V8.708z" clip-rule="evenodd"/></symbol><symbol id="icon-close" viewBox="0 0 12 12"><path fill="#000" fill-rule="evenodd" d="M6 7.091l-4.293 4.07L.293 9.82l4.293-4.07L.293 1.682 1.707.341 6 4.41 10.293.34l1.414 1.341-4.293 4.07 4.293 4.069-1.414 1.34L6 7.092z" clip-rule="evenodd"/></symbol><symbol id="icon-globe" viewBox="0 0 16 19"><path fill="#000" fill-rule="evenodd" d="M6.5.625a6.125 6.125 0 1 1 0 12.25 6.125 6.125 0 0 1 0-12.25zm.875 14.832v.918h1.75v1.75h-5.25v-1.75h1.75v-.918a8.72 8.72 0 0 1-5.274-2.482l1.23-1.245a7 7 0 0 0 9.959-9.838L12.8.677a8.751 8.751 0 0 1-5.425 14.78zM2.125 6.75a4.375 4.375 0 1 1 8.75 0 4.375 4.375 0 0 1-8.75 0z" clip-rule="evenodd"/></symbol><symbol id="icon-key" viewBox="0 0 17 17"><path fill="#000" fill-rule="evenodd" d="M5.333 6.125a5.542 5.542 0 1 1 5.542 5.542H9.292v1.583H7.708v1.583H6.125v1.584H.583V12.13l4.868-4.867a5.562 5.562 0 0 1-.118-1.138zm2.375 3.958h3.167a3.958 3.958 0 1 0-3.789-2.808l.138.454-5.057 5.057v2.047h2.375V13.25h1.583v-1.583h1.583v-1.584zm1.584-3.958a1.583 1.583 0 1 0 3.166 0 1.583 1.583 0 0 0-3.166 0z" clip-rule="evenodd"/></symbol><symbol id="icon-map-pin" viewBox="0 0 15 19"><path fill="#000" fill-rule="evenodd" d="M7.5 18.468l.52-.455c4.38-3.824 6.605-7.162 6.605-10.097 0-4.155-3.243-7.124-7.125-7.124C3.619.792.375 3.76.375 7.917c0 2.934 2.226 6.273 6.604 10.096l.521.454zm0-2.11c-3.716-3.348-5.542-6.186-5.542-8.442 0-3.248 2.505-5.541 5.542-5.541s5.542 2.293 5.542 5.542c0 2.255-1.826 5.093-5.542 8.441zm0-12.4a3.958 3.958 0 1 1 0 7.917 3.958 3.958 0 0 1 0-7.917zM5.125 7.916a2.375 2.375 0 1 1 4.75 0 2.375 2.375 0 0 1-4.75 0z" clip-rule="evenodd"/></symbol><symbol id="icon-placing" viewBox="0 0 14 14"><path fill="#000" fill-rule="evenodd" d="M9.3.935A1.333 1.333 0 0 1 11 2.217v7.947c0 .595-.395 1.118-.967 1.282l-4.273 1.22h6.573V7.334H11V6h1.333V4.667H11V3.333h1.333c.737 0 1.334.597 1.334 1.334v8c0 .736-.597 1.333-1.334 1.333H1.667a1.333 1.333 0 0 1-1.334-1.333h.018a1.334 1.334 0 0 1-.018-.217V4.503c0-.595.395-1.119.967-1.282l8-2.286zM1.667 4.503v7.947l8-2.286V2.217l-8 2.286zM8.333 6A.667.667 0 1 1 7 6a.667.667 0 0 1 1.333 0z" clip-rule="evenodd"/></symbol><symbol id="icon-user" viewBox="0 0 19 19"><path fill="#000" fill-rule="evenodd" d="M9.5 18.208A8.708 8.708 0 1 1 9.5.792a8.708 8.708 0 0 1 0 17.416zm5.858-4.65a7.125 7.125 0 1 0-11.716 0c.891-1.178 2.985-1.683 5.858-1.683 2.873 0 4.967.505 5.858 1.682zm-1.136 1.278c-.232-.833-1.896-1.378-4.722-1.378-2.826 0-4.49.545-4.722 1.378a7.098 7.098 0 0 0 4.722 1.79 7.098 7.098 0 0 0 4.722-1.79zM9.5 4.75c-1.917 0-3.167 1.39-3.167 3.167 0 2.713 1.394 3.958 3.167 3.958 1.756 0 3.167-1.204 3.167-3.8 0-1.804-1.256-3.325-3.167-3.325zM7.917 7.917c0 1.796.647 2.375 1.583 2.375.932 0 1.583-.556 1.583-2.217 0-.99-.62-1.742-1.583-1.742-1.002 0-1.583.646-1.583 1.584z" clip-rule="evenodd"/></symbol><symbol id="map-pin" viewBox="0 0 14 14"><path fill="#FF8336" fill-rule="evenodd" d="M7 13.608l.384-.335c3.226-2.818 4.866-5.277 4.866-7.44 0-3.062-2.39-5.25-5.25-5.25s-5.25 2.188-5.25 5.25c0 2.163 1.64 4.622 4.866 7.44l.384.335zm0-1.554c-2.738-2.468-4.083-4.559-4.083-6.22C2.917 3.44 4.762 1.75 7 1.75c2.238 0 4.083 1.69 4.083 4.083 0 1.662-1.345 3.753-4.083 6.22zm0-9.137A2.917 2.917 0 1 1 7 8.75a2.917 2.917 0 0 1 0-5.833zM5.25 5.833a1.75 1.75 0 1 1 3.5 0 1.75 1.75 0 0 1-3.5 0z" clip-rule="evenodd"/></symbol><symbol id="slider-arrow-left" viewBox="0 0 20 19"><path fill="#C4C4C4" fill-rule="evenodd" d="M8.018 9.46l6.616 6.206-1.768 1.659L4.482 9.46l8.384-7.864 1.768 1.658L8.018 9.46z" clip-rule="evenodd"/></symbol><symbol id="slider-arrow-right" viewBox="0 0 20 19"><path fill="#C4C4C4" fill-rule="evenodd" d="M11.982 9.46L5.366 3.255l1.768-1.658 8.384 7.865-8.384 7.864-1.768-1.658 6.616-6.206z" clip-rule="evenodd"/></symbol></svg>