<?xml version="1.0" encoding="UTF-8"?><!DOCTYPE svg PUBLIC "-//W3C//DTD SVG 1.1//EN" "http://www.w3.org/Graphics/SVG/1.1/DTD/svg11.dtd"><svg xmlns="http://www.w3.org/2000/svg"><symbol id="map-pin" viewBox="0 0 14 14"><path fill="#FF8336" fill-rule="evenodd" d="M7 13.608l.384-.335c3.226-2.818 4.866-5.277 4.866-7.44 0-3.062-2.39-5.25-5.25-5.25s-5.25 2.188-5.25 5.25c0 2.163 1.64 4.622 4.866 7.44l.384.335zm0-1.554c-2.738-2.468-4.083-4.559-4.083-6.22C2.917 3.44 4.762 1.75 7 1.75c2.238 0 4.083 1.69 4.083 4.083 0 1.662-1.345 3.753-4.083 6.22zm0-9.137A2.917 2.917 0 1 1 7 8.75a2.917 2.917 0 0 1 0-5.833zM5.25 5.833a1.75 1.75 0 1 1 3.5 0 1.75 1.75 0 0 1-3.5 0z" clip-rule="evenodd"/></symbol></svg>