<svg
	xmlns="http://www.w3.org/2000/svg" width="25" height="25" viewBox="0 0 25 25">
	<g transform="translate(1,1)">
		<path d="M9.532,4.884 L13.884,14.858 L4.973,14.858 L9.531,4.884 L9.532,4.884 ZM22.999,22.185 C22.584,22.185 22.170,21.982 21.755,21.982 C21.384,21.825 21.035,21.620 20.719,21.372 C20.373,21.015 20.093,20.602 19.890,20.151 C19.499,19.638 19.152,19.093 18.854,18.523 L11.188,-0.000 L10.152,-0.000 L-0.000,23.000 L1.450,23.000 L4.352,16.283 L14.712,16.283 L15.541,18.522 C15.852,19.424 16.345,20.255 16.992,20.965 C17.443,21.543 18.006,22.027 18.650,22.389 C19.188,22.626 19.742,22.830 20.307,23.000 L23.000,23.000 L23.000,22.185 L23.000,22.185 "/>
	</g>
</svg>
