<svg xmlns="http://www.w3.org/2000/svg" width="28" height="28" viewBox="0 0 28 28">
	<path d="M23.8,11.8c-0.5,0-1.5-1.5-2.1-2.8c0-0.2,0-0.7,0-0.9c0-0.4,0-0.7-0.1-1.1c0-0.4-0.1-0.7-0.2-1.1c-0.1-0.4-0.3-0.7-0.5-1.1
	C20.1,4,19.2,3.4,18.2,3c-1.5-0.5-3-0.8-4.5-0.7c-1.4,0-2.8,0.2-4,0.8C8.4,3.6,7.4,4.3,6.5,5.3c-0.9,0.9-1.6,2-2,3.2
	c-0.5,1.3-0.7,2.6-0.7,4c0,1.4,0.3,2.9,0.8,4.2c0.5,1.3,1.3,2.4,2.2,3.4c1,1,2.1,1.7,3.4,2.3c1.3,0.6,2.7,0.8,4.2,0.8
	c0.1,0,0.2,0,0.2,0c1.3,0,2.7-0.2,4-0.5c1.3-0.3,2.5-0.8,3.6-1.5l0.2-0.1l0-5.4c0-0.6,0.1-1.2,0.4-1.7c0.2-0.3,0.6-0.5,0.9-0.5
	l0.5,0v-1.8H23.8z M22,13.5c-0.4,0.7-0.5,1.5-0.5,2.2v4.8c-1,0.6-2,1-3.1,1.2c-1.3,0.3-2.6,0.4-3.9,0.4c-1.3,0-2.6-0.2-3.9-0.8
	c-1.2-0.5-2.2-1.2-3.1-2.1c-0.9-0.9-1.6-1.9-2-3.1c-0.5-1.2-0.7-2.5-0.7-3.8c0-1.2,0.2-2.5,0.6-3.6c0.4-1.1,1-2.1,1.8-2.9
	C8,5.1,8.9,4.5,10,4c1.2-0.5,2.4-0.7,3.7-0.7c1.4,0,2.8,0.2,4.2,0.7c0.9,0.3,1.7,0.8,2.3,1.4c0.2,0.2,0.3,0.4,0.3,0.7
	c0.1,0.3,0.2,0.6,0.2,0.9c0,0.3,0.1,0.7,0.1,1c0,0.4,0,1,0,1l0,0.2c0.3,0.7,1.2,2.7,2.3,3.3C22.6,12.7,22.2,13,22,13.5z"/>
</svg>
