<svg id="Слой_1" data-name="Слой 1" xmlns="http://www.w3.org/2000/svg" width="100" height="100" viewBox="0 0 100 100"><defs><style>.cls-1{fill:#06c;}.cls-2{fill:#c03;}</style></defs><title>Сердечки</title><path class="cls-1" d="M48.3,38.34a1,1,0,0,1-.57-.18c-4.65-3.23-10-7.53-10.4-12.06a6.69,6.69,0,0,1,4.5-7.21A6,6,0,0,1,48.3,21.2a6,6,0,0,1,6.47-2.31,6.69,6.69,0,0,1,4.5,7.21c-.37,4.53-5.75,8.83-10.4,12.06A1,1,0,0,1,48.3,38.34ZM43.41,20.66a3.65,3.65,0,0,0-1,.15,4.64,4.64,0,0,0-3.07,5.13c.32,3.89,6.15,8.2,9,10.19,2.83-2,8.66-6.29,9-10.19a4.64,4.64,0,0,0-3.07-5.13c-1.51-.44-3.62,0-5,2.68a1,1,0,0,1-1.77,0C46.31,21.4,44.76,20.66,43.41,20.66Z"/><path class="cls-2" d="M48.3,76.51a1,1,0,0,1-.57-.18c-4.65-3.23-10-7.53-10.4-12.06a6.69,6.69,0,0,1,4.5-7.21,6,6,0,0,1,6.47,2.31,6,6,0,0,1,6.47-2.31,6.69,6.69,0,0,1,4.5,7.21c-.37,4.53-5.75,8.83-10.4,12.06A1,1,0,0,1,48.3,76.51ZM43.41,58.83a3.65,3.65,0,0,0-1,.15,4.64,4.64,0,0,0-3.07,5.13c.32,3.89,6.15,8.2,9,10.19,2.83-2,8.66-6.29,9-10.19A4.64,4.64,0,0,0,54.21,59c-1.51-.44-3.62,0-5,2.68a1,1,0,0,1-1.77,0C46.31,59.57,44.76,58.83,43.41,58.83Z"/></svg>