<svg id="Слой_1" data-name="Слой 1" xmlns="http://www.w3.org/2000/svg" width="1500" height="1500" viewBox="0 0 1500 1500"><defs><style>.cls-1,.cls-2{fill:#06c;}.cls-10,.cls-11,.cls-15,.cls-2,.cls-4,.cls-7{fill-rule:evenodd;}.cls-3,.cls-4{fill:#fff;}.cls-5,.cls-7{fill:#929292;}.cls-6{fill:#535353;}.cls-10,.cls-8{fill:#c03;}.cls-11,.cls-9{fill:#7aade0;}.cls-12{fill:#f2f2f2;}.cls-13{fill:#f14336;}.cls-14{fill:#d32e2a;}.cls-15{fill:#38a3db;}.cls-16{fill:#3c5a99;}</style></defs><title>All icon</title><rect class="cls-1" x="0.83" width="200" height="1500"/><rect class="cls-1" x="186.64" y="1302.16" width="1313.36" height="200"/><path class="cls-1" d="M249.15,452.77a11.49,11.49,0,1,1,8.12-3.37A11.41,11.41,0,0,1,249.15,452.77Zm0-21a9.49,9.49,0,1,0,6.71,2.77A9.46,9.46,0,0,0,249.15,431.79Z"/><path class="cls-1" d="M262.66,455.79a1,1,0,0,1-.71-.29l-6.09-6.09a1,1,0,1,1,1.41-1.41l6.09,6.09a1,1,0,0,1-.71,1.71Z"/><path class="cls-1" d="M262.09,503.25H239.24a1,1,0,0,1-1-1V490H233.6a1,1,0,0,1-.62-1.78L250,474.7a1,1,0,0,1,1.24,0l3.79,3a1,1,0,0,1-1.24,1.57l-3.16-2.51L236.46,488h2.77a1,1,0,0,1,1,1v12.21h20.85V489a1,1,0,0,1,1-1h2.77l-3.63-2.89a1,1,0,1,1,1.24-1.57l5.88,4.67a1,1,0,0,1-.62,1.78h-4.64v12.21A1,1,0,0,1,262.09,503.25Z"/><path class="cls-1" d="M248.9,495.83a1,1,0,0,1-.75-.34l-6.07-7a1,1,0,0,1,.13-1.44L259.63,473a1,1,0,0,1,1.38.12l6.07,7a1,1,0,0,1-.13,1.44L249.52,495.6A1,1,0,0,1,248.9,495.83ZM244.27,488l4.75,5.45,15.87-12.81-4.75-5.45Z"/><path class="cls-2" d="M249.13,489.93c.56.62,1.44.57,2.29-.12s1.06-1.56.47-2.23c-.45-.52-1-.57-1.78-.15l-.51.27c-.41.22-.65.24-.81.06s-.11-.51.19-.76a.67.67,0,0,1,.89-.05l.79-.64a1.58,1.58,0,0,0-2.23.08c-.82.66-1,1.5-.43,2.14a1.31,1.31,0,0,0,1.76.19l.52-.27c.45-.24.68-.26.84-.08s.1.54-.22.8-.73.33-1,.11l-.82.66Zm6.45-3.62-.84-.55-1.1.89.41.89-.85.69-1.7-4.17,1.05-.85,4,2.34-.94.76Zm-3-1.89.69,1.51.78-.63-1.42-.92,0,0Zm6.18-1.86-1.44,1.16-2.24-2.57-.86.69,2.84,3.25,2.29-1.85-.6-.68Zm3-2.36.58.66L260,482.73l-2.84-3.25,2.32-1.87.58.66-1.46,1.18.57.65,1.37-1.11.53.61-1.37,1.11.58.66Z"/><path class="cls-1" d="M261.38,549.26H240a1,1,0,0,1-1-1v-13.8h-4.29a1,1,0,0,1-.69-1.73l16-15.2a1,1,0,0,1,1.38,0l16,15.2a1,1,0,0,1-.69,1.73h-4.29v13.8A1,1,0,0,1,261.38,549.26Zm-20.42-2h19.42v-13.8a1,1,0,0,1,1-1h2.78l-13.5-12.82-13.5,12.82H240a1,1,0,0,1,1,1Z"/><path class="cls-1" d="M250.66,567.19a9.93,9.93,0,0,1,9.93,9.93c0,4.74-4,8.45-7.92,12-.64.59-1.3,1.2-1.95,1.82-.7-.67-1.42-1.33-2.13-2-3.86-3.53-7.86-7.17-7.86-11.88a9.93,9.93,0,0,1,9.93-9.93m0,15.07a5.36,5.36,0,1,0-5.33-5.36,5.35,5.35,0,0,0,5.33,5.36m0-17.07a11.93,11.93,0,0,0-11.93,11.93c0,5.59,4.43,9.64,8.51,13.36.93.84,1.83,1.67,2.7,2.54l.78.78.78-.78c.82-.82,1.67-1.6,2.53-2.4,4.07-3.75,8.55-7.89,8.55-13.5a11.93,11.93,0,0,0-11.93-11.93Zm0,15.07A3.36,3.36,0,1,1,254,576.9a3.36,3.36,0,0,1-3.33,3.36Z"/><path class="cls-1" d="M236,638.53a1,1,0,0,1-1-1V614.14a1,1,0,0,1,2,0v23.39A1,1,0,0,1,236,638.53Z"/><path class="cls-1" d="M236,638.53h0a1,1,0,0,1-.71-.3l-2.86-2.89a1,1,0,0,1,1.42-1.41l2.14,2.17,2.14-2.17a1,1,0,0,1,1.42,1.41l-2.86,2.89A1,1,0,0,1,236,638.53Z"/><path class="cls-1" d="M233.16,617.34a1,1,0,0,1-.71-1.7l2.86-2.89a1,1,0,0,1,.71-.3h0a1,1,0,0,1,.71.3l2.86,2.89a1,1,0,1,1-1.42,1.41L236,614.87,233.87,617A1,1,0,0,1,233.16,617.34Z"/><path class="cls-1" d="M268.16,646.55h-23.1a1,1,0,0,1,0-2h23.1a1,1,0,0,1,0,2Z"/><path class="cls-1" d="M265.31,649.44a1,1,0,0,1-.71-1.7l2.16-2.19-2.16-2.19A1,1,0,0,1,266,642l2.86,2.89a1,1,0,0,1,0,1.41L266,649.15A1,1,0,0,1,265.31,649.44Z"/><path class="cls-1" d="M247.23,649.44a1,1,0,0,1-.71-.3l-2.86-2.89a1,1,0,0,1,0-1.41l2.86-2.89a1,1,0,1,1,1.42,1.41l-2.16,2.19,2.16,2.19a1,1,0,0,1-.71,1.7Z"/><path class="cls-1" d="M268.16,638.53H256.34a1,1,0,0,1,0-2h10.82V614.44H245.38v23.09a1,1,0,0,1-2,0V613.44a1,1,0,0,1,1-1h23.79a1,1,0,0,1,1,1v24.09A1,1,0,0,1,268.16,638.53Z"/><path class="cls-1" d="M268.16,629.93H256.6a1,1,0,0,1,0-2h11.56a1,1,0,0,1,0,2Z"/><path class="cls-1" d="M256.6,629.93a1,1,0,0,1-1-1v-2.07a1,1,0,0,1,2,0v2.07A1,1,0,0,1,256.6,629.93Z"/><path class="cls-1" d="M256.6,632a1,1,0,0,1-1-1v-2.07a1,1,0,0,1,2,0V631A1,1,0,0,1,256.6,632Z"/><path class="cls-1" d="M246.42,623h-2a1,1,0,1,1,0-2h2a1,1,0,1,1,0,2Z"/><path class="cls-1" d="M246.42,638.53h-2a1,1,0,1,1,0-2h2a1,1,0,1,1,0,2Z"/><path class="cls-1" d="M256.6,623h-2a1,1,0,1,1,0-2h2a1,1,0,0,1,0,2Z"/><path class="cls-1" d="M256.6,623a1,1,0,0,1-1-1v-8.52a1,1,0,0,1,2,0V622A1,1,0,0,1,256.6,623Z"/><path class="cls-1" d="M270.66,703.63h-7.15V700.5A1.49,1.49,0,0,0,262,699H239.3a1.49,1.49,0,0,0-1.48,1.49v3.13h-7.15V693.36a5.43,5.43,0,0,1,5.41-5.43h29.17a5.43,5.43,0,0,1,5.41,5.43Zm-5.15-2h3.15v-8.27a3.43,3.43,0,0,0-3.41-3.43H236.08a3.43,3.43,0,0,0-3.41,3.43v8.27h3.15V700.5A3.49,3.49,0,0,1,239.3,697H262a3.49,3.49,0,0,1,3.48,3.49Z"/><path class="cls-1" d="M264.24,688.9h-2v-2.1a1.6,1.6,0,0,0-1.59-1.6h-7.4a1.6,1.6,0,0,0-1.59,1.6v2h-2v-2a3.6,3.6,0,0,1,3.59-3.6h7.4a3.6,3.6,0,0,1,3.59,3.6Z"/><path class="cls-1" d="M239.09,688.9h-2v-2.1a3.6,3.6,0,0,1,3.59-3.6h7.4a3.6,3.6,0,0,1,3.59,3.6v2h-2v-2a1.6,1.6,0,0,0-1.59-1.6h-7.4a1.6,1.6,0,0,0-1.59,1.6Z"/><path class="cls-1" d="M268.17,689.23h-2v-5.81a2.78,2.78,0,0,0-2.77-2.79H237.92a2.78,2.78,0,0,0-2.77,2.79v5.81h-2v-5.81a4.78,4.78,0,0,1,4.77-4.79H263.4a4.78,4.78,0,0,1,4.77,4.79Z"/><path class="cls-1" d="M256,754.55l-.31,1.56h-7a6.27,6.27,0,0,0,1.65,3,4.54,4.54,0,0,0,3.29,1.27,6.43,6.43,0,0,0,3.67-1h.16v2.19a10,10,0,0,1-3.84.79,7.09,7.09,0,0,1-5-1.79,8,8,0,0,1-2.3-4.45H245l.32-1.56h.78q0-.45,0-.92c0-.22,0-.43,0-.65H245l.32-1.56h.94a8.19,8.19,0,0,1,2.35-4.69,7.07,7.07,0,0,1,5.05-1.86,9.19,9.19,0,0,1,3.81.8v2.21h-.18a6.29,6.29,0,0,0-3.65-1.1,4.53,4.53,0,0,0-3.42,1.39,6.61,6.61,0,0,0-1.59,3.24h8l-.31,1.56h-7.93c0,.21,0,.43,0,.65s0,.62,0,.92Z"/><path class="cls-1" d="M252,770.61a17,17,0,1,1,17-17A17,17,0,0,1,252,770.61Zm0-32a15,15,0,1,0,15,15A15,15,0,0,0,252,738.61Z"/><path class="cls-1" d="M258.66,815.49H238.35a1,1,0,0,1,0-2h20.31a1,1,0,0,1,0,2Z"/><path class="cls-1" d="M258.66,796.22H238.35a1,1,0,0,1,0-2h20.31a1,1,0,0,1,0,2Z"/><path class="cls-1" d="M272,815.49h-5.08a1,1,0,0,1,0-2H272a1,1,0,0,1,0,2Z"/><path class="cls-1" d="M272,796.22h-5.08a1,1,0,0,1,0-2H272a1,1,0,0,1,0,2Z"/><path class="cls-1" d="M262.68,800.23a5,5,0,1,1,5-5A5,5,0,0,1,262.68,800.23Zm0-8a3,3,0,1,0,3,3A3,3,0,0,0,262.68,792.2Z"/><path class="cls-1" d="M262.68,819.51a5,5,0,1,1,5-5A5,5,0,0,1,262.68,819.51Zm0-8a3,3,0,1,0,3,3A3,3,0,0,0,262.68,811.48Z"/><path class="cls-1" d="M243.43,805.86h-5.08a1,1,0,1,1,0-2h5.08a1,1,0,1,1,0,2Z"/><path class="cls-1" d="M272,805.86H251.66a1,1,0,1,1,0-2H272a1,1,0,1,1,0,2Z"/><path class="cls-1" d="M247.64,809.87a5,5,0,1,1,5-5A5,5,0,0,1,247.64,809.87Zm0-8a3,3,0,1,0,3,3A3,3,0,0,0,247.64,801.84Z"/><path class="cls-1" d="M309.14,505.33a1,1,0,0,1-1-1v-10h-5.78v10a1,1,0,1,1-2,0v-11a1,1,0,0,1,1-1h7.78a1,1,0,0,1,1,1v11A1,1,0,0,1,309.14,505.33Z"/><path class="cls-1" d="M317,505.33H293.53a1,1,0,0,1-1-1V490.76h-4.78a1,1,0,0,1-.65-1.76l17.5-15a1,1,0,0,1,1.3,0l2.52,2.15a1,1,0,0,1-1.3,1.52l-1.87-1.6-14.79,12.64h3.08a1,1,0,0,1,1,1v13.57H316V489.76a1,1,0,0,1,1-1H320l-2.8-2.4a1,1,0,0,1,1.3-1.52L323.4,489a1,1,0,0,1-.65,1.76H318v13.57A1,1,0,0,1,317,505.33Z"/><path class="cls-1" d="M313,488.75a7.71,7.71,0,1,1,7.63-7.71A7.68,7.68,0,0,1,313,488.75Zm0-13.43a5.71,5.71,0,1,0,5.63,5.71A5.68,5.68,0,0,0,313,475.33Z"/><path class="cls-1" d="M315.74,482.55h-2.86a1,1,0,0,1-1-1v-3.61a1,1,0,0,1,2,0v2.61h1.86a1,1,0,0,1,0,2Z"/><path class="cls-1" d="M363,506.36h-8a1,1,0,0,1-1-1V491.87a1,1,0,0,1,1-1h8a1,1,0,0,1,1,1v13.49A1,1,0,0,1,363,506.36Zm-7-2h6V492.87h-6Z"/><path class="cls-1" d="M349.12,484.64a1,1,0,0,1-1-1v-4.49a1,1,0,0,1,1-1h0a1,1,0,0,1,1,1v4.49a1,1,0,0,1-1,1Z"/><path class="cls-1" d="M371,506.36h-24.1a1,1,0,0,1-1-1v-13.8H341a1,1,0,0,1-.65-1.76l18-15.2a1,1,0,0,1,1.29,0l18,15.2a1,1,0,0,1-.65,1.76H372v13.8A1,1,0,0,1,371,506.36Zm-23.1-2H370v-13.8a1,1,0,0,1,1-1h3.21L359,476.66l-15.27,12.89h3.22a1,1,0,0,1,1,1Z"/><path class="cls-1" d="M429.38,507.69h-32a1,1,0,0,1-1-1v-32a1,1,0,0,1,1-1h32a1,1,0,0,1,1,1v32A1,1,0,0,1,429.38,507.69Zm-31-2h30v-30h-30Z"/><path class="cls-1" d="M403.31,493.32a1,1,0,0,1-1-1v-2.13a1,1,0,0,1,2,0v2.13A1,1,0,0,1,403.31,493.32Z"/><path class="cls-1" d="M417.16,493.32a1,1,0,0,1-1-1v-2.13a1,1,0,0,1,2,0v2.13A1,1,0,0,1,417.16,493.32Z"/><path class="cls-1" d="M423.46,493.32a1,1,0,0,1-1-1v-2.13a1,1,0,0,1,2,0v2.13A1,1,0,0,1,423.46,493.32Z"/><path class="cls-1" d="M403.31,484.32a1,1,0,0,1-1-1v-2.13a1,1,0,0,1,2,0v2.13A1,1,0,0,1,403.31,484.32Z"/><path class="cls-1" d="M417.16,484.32a1,1,0,0,1-1-1v-2.13a1,1,0,0,1,2,0v2.13A1,1,0,0,1,417.16,484.32Z"/><path class="cls-1" d="M423.46,484.32a1,1,0,0,1-1-1v-2.13a1,1,0,1,1,2,0v2.13A1,1,0,0,1,423.46,484.32Z"/><path class="cls-1" d="M403.31,501.18a1,1,0,0,1-1-1v-2.13a1,1,0,0,1,2,0v2.13A1,1,0,0,1,403.31,501.18Z"/><path class="cls-1" d="M410.23,493.32a1,1,0,0,1-1-1v-2.13a1,1,0,0,1,2,0v2.13A1,1,0,0,1,410.23,493.32Z"/><path class="cls-1" d="M410.23,484.32a1,1,0,0,1-1-1v-2.13a1,1,0,0,1,2,0v2.13A1,1,0,0,1,410.23,484.32Z"/><path class="cls-1" d="M423.46,501.18a1,1,0,0,1-1-1v-2.13a1,1,0,0,1,2,0v2.13A1,1,0,0,1,423.46,501.18Z"/><path class="cls-1" d="M416.94,507.44a1,1,0,0,1-1-1v-7.27h-4.31v7.27a1,1,0,0,1-2,0v-8.27a1,1,0,0,1,1-1h6.31a1,1,0,0,1,1,1v8.27A1,1,0,0,1,416.94,507.44Z"/><path class="cls-1" d="M472.11,498.25a4.88,4.88,0,0,1-3.87-2,4.88,4.88,0,0,1-3.87,2,5.08,5.08,0,0,1-4.93-5.2,5.33,5.33,0,0,1,1.37-3.59,7.79,7.79,0,0,1-.16-1.57,7.6,7.6,0,1,1,15.2,0,7.78,7.78,0,0,1-.16,1.57A5.33,5.33,0,0,1,477,493,5.08,5.08,0,0,1,472.11,498.25Zm-3.67-4.69a1,1,0,0,1,.94.66,2.93,2.93,0,0,0,2.73,2A3.08,3.08,0,0,0,475,493a3.3,3.3,0,0,0-1.13-2.52,1,1,0,0,1-.31-1,5.78,5.78,0,0,0,.23-1.61,5.6,5.6,0,1,0-11.2,0,5.76,5.76,0,0,0,.23,1.61,1,1,0,0,1-.31,1,3.3,3.3,0,0,0-1.13,2.52,3.08,3.08,0,0,0,2.93,3.2,2.94,2.94,0,0,0,2.73-2,1,1,0,0,1,1-.66h.38Z"/><path class="cls-1" d="M468.23,503.09a1,1,0,0,1-1-1V488.9a1,1,0,0,1,2,0v13.19A1,1,0,0,1,468.23,503.09Z"/><path class="cls-1" d="M468.23,494.58h0a1,1,0,0,1-.71-.3L465,491.76a1,1,0,0,1,1.42-1.41l1.78,1.8,1.78-1.8a1,1,0,1,1,1.42,1.41l-2.49,2.52A1,1,0,0,1,468.23,494.58Z"/><path class="cls-1" d="M484.23,508.64h-32a1,1,0,0,1-1-1v-32a1,1,0,0,1,1-1h32a1,1,0,0,1,1,1v32A1,1,0,0,1,484.23,508.64Zm-31-2h30v-30h-30Z"/><path class="cls-1" d="M501.21,507.51a1,1,0,0,1-1-1V501a1,1,0,0,1,1-1h2l1-1.25a1,1,0,0,1,.78-.37h1.72l1.78-2.54a1,1,0,0,1,.82-.43h10.73a10.84,10.84,0,0,1,6.72,3h6.43a1,1,0,0,1,.95,1.32c-1.71,5.13-4.68,7.7-9.07,7.86Zm1-2h22.85c3.09-.11,5.26-1.76,6.71-5.17H526.4a1,1,0,0,1-.67-.25,9.29,9.29,0,0,0-5.68-2.71H509.85l-1.78,2.54a1,1,0,0,1-.82.43h-1.76l-1,1.25a1,1,0,0,1-.78.37h-1.48Z"/><path class="cls-1" d="M531.21,495H514.72a1,1,0,0,1,0-2h14.34L514,475.16a1,1,0,0,1,1.53-1.29L532,493.38a1,1,0,0,1-.76,1.65Z"/><path class="cls-1" d="M514.72,493.72H504.39a1,1,0,0,1-.87-1.49L513.85,474a1,1,0,0,1,1.74,1l-9.48,16.71h8.61a1,1,0,0,1,0,2Z"/><path class="cls-1" d="M514.72,497.37a1,1,0,0,1-1-1V474.82a1,1,0,0,1,2,0v21.55A1,1,0,0,1,514.72,497.37Z"/><path class="cls-1" d="M526.4,500.34H510.92a1,1,0,1,1,0-2H526.4a1,1,0,0,1,0,2Z"/><path class="cls-3" d="M132.18,460.11a11.49,11.49,0,1,1,8.13-3.37A11.41,11.41,0,0,1,132.18,460.11Zm0-21a9.49,9.49,0,1,0,6.71,2.77A9.46,9.46,0,0,0,132.18,439.14Z"/><path class="cls-3" d="M145.69,463.13a1,1,0,0,1-.71-.29l-6.09-6.09a1,1,0,0,1,1.41-1.41l6.09,6.09a1,1,0,0,1-.71,1.71Z"/><path class="cls-3" d="M145.12,510.59H122.26a1,1,0,0,1-1-1V497.39h-4.64a1,1,0,0,1-.62-1.78L133.07,482a1,1,0,0,1,1.24,0l3.79,3a1,1,0,0,1-1.24,1.57l-3.16-2.51-14.2,11.28h2.77a1,1,0,0,1,1,1v12.21h20.85V496.39a1,1,0,0,1,1-1h2.77l-3.63-2.89a1,1,0,0,1,1.24-1.57l5.88,4.67a1,1,0,0,1-.62,1.78h-4.64v12.21A1,1,0,0,1,145.12,510.59Z"/><path class="cls-3" d="M131.92,503.17a1,1,0,0,1-.75-.34l-6.07-7a1,1,0,0,1,.13-1.44l17.43-14.07a1,1,0,0,1,1.38.12l6.07,7a1,1,0,0,1-.13,1.44l-17.43,14.07A1,1,0,0,1,131.92,503.17Zm-4.63-7.83,4.75,5.45L147.92,488l-4.75-5.45Z"/><path class="cls-4" d="M132.16,497.27c.56.62,1.44.57,2.29-.12s1.06-1.56.47-2.23c-.45-.52-1-.57-1.78-.15l-.51.27c-.41.22-.65.24-.81.06s-.11-.51.19-.76a.67.67,0,0,1,.89-.05l.79-.64a1.58,1.58,0,0,0-2.23.08c-.82.66-1,1.5-.43,2.14a1.31,1.31,0,0,0,1.76.19l.52-.27c.45-.24.68-.26.84-.08s.1.54-.22.8-.73.33-1,.11l-.82.66Zm6.45-3.62-.84-.55-1.1.89.41.89-.85.69-1.7-4.17,1.05-.85,4,2.34-.94.76Zm-3-1.89.69,1.51.78-.63-1.42-.92,0,0Zm6.18-1.86-1.44,1.16-2.24-2.57-.86.69,2.84,3.25,2.29-1.85-.6-.68Zm3-2.36.58.66L143,490.08l-2.84-3.25,2.32-1.87.58.66-1.46,1.18.57.65,1.37-1.11.53.61-1.37,1.11.58.66Z"/><path class="cls-3" d="M144.4,556.6H123a1,1,0,0,1-1-1V541.8h-4.29a1,1,0,0,1-.69-1.73l16-15.2a1,1,0,0,1,1.38,0l16,15.2a1,1,0,0,1-.69,1.73H145.4v13.8A1,1,0,0,1,144.4,556.6Zm-20.42-2H143.4V540.8a1,1,0,0,1,1-1h2.78L133.69,527l-13.5,12.82H123a1,1,0,0,1,1,1Z"/><path class="cls-3" d="M133.69,574.54a9.93,9.93,0,0,1,9.93,9.93c0,4.74-4,8.45-7.92,12-.64.59-1.3,1.2-1.95,1.82-.7-.67-1.42-1.33-2.13-2-3.86-3.53-7.86-7.17-7.86-11.88a9.93,9.93,0,0,1,9.93-9.93m0,15.07a5.36,5.36,0,1,0-5.33-5.36,5.35,5.35,0,0,0,5.33,5.36m0-17.07a11.93,11.93,0,0,0-11.93,11.93c0,5.59,4.43,9.64,8.51,13.36.93.84,1.83,1.67,2.7,2.54l.78.78.78-.78c.82-.82,1.67-1.6,2.53-2.4,4.07-3.75,8.55-7.89,8.55-13.5a11.93,11.93,0,0,0-11.93-11.93Zm0,15.07a3.36,3.36,0,1,1,3.33-3.36,3.36,3.36,0,0,1-3.33,3.36Z"/><path class="cls-3" d="M119,645.88a1,1,0,0,1-1-1V621.48a1,1,0,0,1,2,0v23.39A1,1,0,0,1,119,645.88Z"/><path class="cls-3" d="M119,645.88h0a1,1,0,0,1-.71-.3l-2.86-2.89a1,1,0,0,1,1.42-1.41l2.14,2.17,2.14-2.17a1,1,0,1,1,1.42,1.41l-2.86,2.89A1,1,0,0,1,119,645.88Z"/><path class="cls-3" d="M116.19,624.68a1,1,0,0,1-.71-1.7l2.86-2.89a1,1,0,0,1,.71-.3h0a1,1,0,0,1,.71.3l2.86,2.89a1,1,0,0,1-1.42,1.41L119,622.21l-2.15,2.17A1,1,0,0,1,116.19,624.68Z"/><path class="cls-3" d="M151.19,653.9h-23.1a1,1,0,1,1,0-2h23.1a1,1,0,0,1,0,2Z"/><path class="cls-3" d="M148.33,656.79a1,1,0,0,1-.71-1.7l2.16-2.19-2.16-2.19A1,1,0,0,1,149,649.3l2.86,2.89a1,1,0,0,1,0,1.41L149,656.49A1,1,0,0,1,148.33,656.79Z"/><path class="cls-3" d="M130.26,656.79a1,1,0,0,1-.71-.3l-2.86-2.89a1,1,0,0,1,0-1.41l2.86-2.89a1,1,0,0,1,1.42,1.41l-2.16,2.19,2.16,2.19a1,1,0,0,1-.71,1.7Z"/><path class="cls-3" d="M151.19,645.88H139.37a1,1,0,1,1,0-2h10.82V621.79H128.4v23.09a1,1,0,0,1-2,0V620.79a1,1,0,0,1,1-1h23.79a1,1,0,0,1,1,1v24.09A1,1,0,0,1,151.19,645.88Z"/><path class="cls-3" d="M151.19,637.27H139.63a1,1,0,0,1,0-2h11.56a1,1,0,1,1,0,2Z"/><path class="cls-3" d="M139.63,637.27a1,1,0,0,1-1-1V634.2a1,1,0,0,1,2,0v2.07A1,1,0,0,1,139.63,637.27Z"/><path class="cls-3" d="M139.63,639.34a1,1,0,0,1-1-1v-2.07a1,1,0,0,1,2,0v2.07A1,1,0,0,1,139.63,639.34Z"/><path class="cls-3" d="M129.45,630.31h-2a1,1,0,0,1,0-2h2a1,1,0,1,1,0,2Z"/><path class="cls-3" d="M129.45,645.88h-2a1,1,0,0,1,0-2h2a1,1,0,0,1,0,2Z"/><path class="cls-3" d="M139.63,630.31h-2a1,1,0,0,1,0-2h2a1,1,0,0,1,0,2Z"/><path class="cls-3" d="M139.63,630.31a1,1,0,0,1-1-1v-8.52a1,1,0,0,1,2,0v8.52A1,1,0,0,1,139.63,630.31Z"/><path class="cls-3" d="M153.69,711h-7.15v-3.13a1.49,1.49,0,0,0-1.48-1.49H122.32a1.49,1.49,0,0,0-1.48,1.49V711h-7.15V700.71a5.43,5.43,0,0,1,5.41-5.43h29.17a5.43,5.43,0,0,1,5.41,5.43Zm-5.15-2h3.15v-8.27a3.43,3.43,0,0,0-3.41-3.43H119.1a3.43,3.43,0,0,0-3.41,3.43V709h3.15v-1.13a3.49,3.49,0,0,1,3.48-3.49h22.73a3.49,3.49,0,0,1,3.48,3.49Z"/><path class="cls-3" d="M147.27,696.24h-2v-2.1a1.6,1.6,0,0,0-1.59-1.6h-7.4a1.6,1.6,0,0,0-1.59,1.6v2h-2v-2a3.6,3.6,0,0,1,3.59-3.6h7.4a3.6,3.6,0,0,1,3.59,3.6Z"/><path class="cls-3" d="M122.11,696.24h-2v-2.1a3.6,3.6,0,0,1,3.59-3.6h7.4a3.6,3.6,0,0,1,3.59,3.6v2h-2v-2a1.6,1.6,0,0,0-1.59-1.6h-7.4a1.6,1.6,0,0,0-1.59,1.6Z"/><path class="cls-3" d="M151.2,696.57h-2v-5.81a2.78,2.78,0,0,0-2.77-2.79H120.95a2.78,2.78,0,0,0-2.77,2.79v5.81h-2v-5.81a4.78,4.78,0,0,1,4.77-4.79h25.48a4.78,4.78,0,0,1,4.77,4.79Z"/><path class="cls-3" d="M139,761.89l-.31,1.56h-7a6.27,6.27,0,0,0,1.65,3,4.54,4.54,0,0,0,3.29,1.27,6.43,6.43,0,0,0,3.67-1h.16v2.19a10,10,0,0,1-3.84.79,7.09,7.09,0,0,1-5-1.79,8,8,0,0,1-2.3-4.45H128l.32-1.56h.78q0-.45,0-.92c0-.22,0-.43,0-.65H128l.32-1.56h.94a8.19,8.19,0,0,1,2.35-4.69,7.07,7.07,0,0,1,5.05-1.86,9.19,9.19,0,0,1,3.81.8v2.21h-.18a6.29,6.29,0,0,0-3.65-1.1,4.53,4.53,0,0,0-3.42,1.39,6.61,6.61,0,0,0-1.59,3.24h8l-.31,1.56h-7.93c0,.21,0,.43,0,.65s0,.62,0,.92Z"/><path class="cls-3" d="M135,778a17,17,0,1,1,17-17A17,17,0,0,1,135,778Zm0-32a15,15,0,1,0,15,15A15,15,0,0,0,135,746Z"/><path class="cls-3" d="M141.68,822.84H121.38a1,1,0,0,1,0-2h20.31a1,1,0,0,1,0,2Z"/><path class="cls-3" d="M141.68,803.56H121.38a1,1,0,0,1,0-2h20.31a1,1,0,0,1,0,2Z"/><path class="cls-3" d="M155,822.84h-5.08a1,1,0,0,1,0-2H155a1,1,0,0,1,0,2Z"/><path class="cls-3" d="M155,803.56h-5.08a1,1,0,0,1,0-2H155a1,1,0,0,1,0,2Z"/><path class="cls-3" d="M145.71,807.58a5,5,0,1,1,5-5A5,5,0,0,1,145.71,807.58Zm0-8a3,3,0,1,0,3,3A3,3,0,0,0,145.71,799.55Z"/><path class="cls-3" d="M145.71,826.85a5,5,0,1,1,5-5A5,5,0,0,1,145.71,826.85Zm0-8a3,3,0,1,0,3,3A3,3,0,0,0,145.71,818.82Z"/><path class="cls-3" d="M126.46,813.2h-5.08a1,1,0,0,1,0-2h5.08a1,1,0,0,1,0,2Z"/><path class="cls-3" d="M155,813.2H134.69a1,1,0,1,1,0-2H155a1,1,0,0,1,0,2Z"/><path class="cls-3" d="M130.67,817.22a5,5,0,1,1,5-5A5,5,0,0,1,130.67,817.22Zm0-8a3,3,0,1,0,3,3A3,3,0,0,0,130.67,809.18Z"/><path class="cls-3" d="M154.51,943.69a1,1,0,0,1-.38-.08l-11.28-4.67-11.28,4.67a1,1,0,0,1-.77,0l-11.66-4.83a1,1,0,0,1-.62-.92V912.52a1,1,0,0,1,1.38-.92l11.28,4.67,2.92-1.21a1,1,0,1,1,.76,1.85l-3.3,1.37a1,1,0,0,1-.77,0L120.52,914v23.17l10.66,4.42,11.28-4.67a1,1,0,0,1,.77,0l10.28,4.26V918l-2.66-1.1a1,1,0,0,1,.77-1.85l3.28,1.36a1,1,0,0,1,.62.92v25.33a1,1,0,0,1-1,1Z"/><path class="cls-3" d="M142.84,933.92h0a1,1,0,0,1-.82-.43c-1.67-2.38-5.93-9.15-7.7-13.76a10.16,10.16,0,0,1-.65-5.57,9.37,9.37,0,0,1,18.33,0,10.17,10.17,0,0,1-.65,5.57c-1.78,4.61-6,11.38-7.7,13.76A1,1,0,0,1,142.84,933.92Zm0-25.2a7,7,0,0,0-7.2,5.8h0a8.22,8.22,0,0,0,.54,4.5,78.4,78.4,0,0,0,6.65,12.12A78.35,78.35,0,0,0,149.49,919a8.23,8.23,0,0,0,.54-4.5A7,7,0,0,0,142.84,908.72Z"/><path class="cls-3" d="M143,920a3.7,3.7,0,1,1,3.7-3.7A3.7,3.7,0,0,1,143,920Zm0-5.4a1.7,1.7,0,1,0,1.7,1.7A1.7,1.7,0,0,0,143,914.62Z"/><path class="cls-3" d="M150.57,1025.7H123.46a2.33,2.33,0,0,1-2.32-2.33v-17.07a2.33,2.33,0,0,1,2.32-2.32h27.12a2.33,2.33,0,0,1,2.32,2.32v17.07A2.33,2.33,0,0,1,150.57,1025.7ZM123.46,1006a.33.33,0,0,0-.32.32v17.07a.33.33,0,0,0,.32.33h27.12a.33.33,0,0,0,.32-.33v-17.07a.33.33,0,0,0-.32-.32Z"/><path class="cls-3" d="M137,1018.3a1,1,0,0,1-.62-.22l-14.3-11.3a1,1,0,1,1,1.24-1.57L137,1016l13.68-10.81a1,1,0,1,1,1.24,1.57l-14.3,11.3A1,1,0,0,1,137,1018.3Z"/><path class="cls-3" d="M136.41,891.13a1,1,0,0,1-1-1V877.67l-10.5-14.56a1,1,0,0,1,.81-1.58h28.52a1,1,0,0,1,.81,1.58l-10.5,14.56v8.44a1,1,0,0,1-.51.87l-7.14,4A1,1,0,0,1,136.41,891.13Zm-8.73-27.6,9.55,13.23a1,1,0,0,1,.19.58v11.08l5.14-2.9v-8.18a1,1,0,0,1,.19-.58l9.55-13.23Z"/><path class="cls-3" d="M131.12,1045.7c1.81,0,3.43,1.18,4.56,3.31a2,2,0,0,0,3.53,0c1.13-2.13,2.75-3.31,4.56-3.31a4.43,4.43,0,0,1,3.23,1.47,6,6,0,0,1,1.42,4.63c-.37,4.54-7.4,9.9-11,12.44-3.58-2.54-10.6-7.9-11-12.44a6,6,0,0,1,1.42-4.63,4.43,4.43,0,0,1,3.23-1.47m12.66-2c-2.3,0-4.71,1.32-6.33,4.37-1.62-3.05-4-4.37-6.33-4.37-3.65,0-7,3.31-6.64,8.26.47,5.78,8.63,11.7,13,14.72,4.34-3,12.5-8.94,13-14.72.4-5-3-8.26-6.64-8.26Z"/><rect class="cls-3" x="131.53" y="1081.21" width="12.49" height="2" transform="translate(-551.49 236.59) rotate(-31.93)"/><rect class="cls-3" x="136.78" y="1085.31" width="2" height="12.49" transform="translate(-861.48 631.18) rotate(-58.07)"/><path class="cls-3" d="M145.89,1100.48a4.18,4.18,0,1,1,4.19-4.18A4.19,4.19,0,0,1,145.89,1100.48Zm0-6.37a2.18,2.18,0,1,0,2.19,2.18A2.19,2.19,0,0,0,145.89,1094.11Z"/><path class="cls-3" d="M129.65,1091.09a4.18,4.18,0,1,1,4.19-4.18A4.19,4.19,0,0,1,129.65,1091.09Zm0-6.37a2.18,2.18,0,1,0,2.19,2.18A2.19,2.19,0,0,0,129.65,1084.72Z"/><path class="cls-3" d="M145.89,1081.7a4.18,4.18,0,1,1,4.19-4.18A4.19,4.19,0,0,1,145.89,1081.7Zm0-6.37a2.18,2.18,0,1,0,2.19,2.18A2.19,2.19,0,0,0,145.89,1075.33Z"/><path class="cls-3" d="M156.24,1151.69h-8.16v-2h6.16v-11.25a2.77,2.77,0,0,0-2.76-2.76h-23a2.77,2.77,0,0,0-2.76,2.76v11.25h6.16v2H123.7v-13.25a4.77,4.77,0,0,1,4.76-4.76h23a4.77,4.77,0,0,1,4.76,4.76Z"/><polygon class="cls-3" points="149.09 1134.68 147.09 1134.68 147.09 1126.31 132.85 1126.31 132.85 1134.68 130.85 1134.68 130.85 1124.31 149.09 1124.31 149.09 1134.68"/><path class="cls-3" d="M149.09,1157H130.85v-14h18.23Zm-16.23-2h14.23v-10H132.85Z"/><circle class="cls-3" cx="128.96" cy="1139.12" r="1.29"/><path class="cls-3" d="M383.07,1394.69H372v-2h9.07v-16.22a4.3,4.3,0,0,0-4.29-4.29H344.4a4.3,4.3,0,0,0-4.29,4.29v16.22h9.06v2H338.11v-18.22a6.3,6.3,0,0,1,6.29-6.29h32.37a6.3,6.3,0,0,1,6.29,6.29Z"/><polygon class="cls-3" points="373 1371.17 371 1371.17 371 1359 350.17 1359 350.17 1371.17 348.17 1371.17 348.17 1357 373 1357 373 1371.17"/><path class="cls-3" d="M373,1402.16H348.17v-18.81H373Zm-22.83-2H371v-14.81H350.17Z"/><path class="cls-3" d="M345.1,1380.24a2.82,2.82,0,1,1,2.82-2.82A2.82,2.82,0,0,1,345.1,1380.24Zm0-3.63a.82.82,0,1,0,.82.82A.82.82,0,0,0,345.1,1376.61Z"/><path class="cls-4" d="M692.71,1392.49v-8.69h3.55a3.43,3.43,0,0,1,2.43.83,2.86,2.86,0,0,1,.89,2.2,2.73,2.73,0,0,1-1,2.25,3.89,3.89,0,0,1-2.52.8h-1.45v2.61Zm1.91-4.31h1.51a1.57,1.57,0,0,0,1.11-.37,1.26,1.26,0,0,0,.4-1,1.2,1.2,0,0,0-.41-1,1.73,1.73,0,0,0-1.14-.34h-1.48v2.66Zm6.63,4.31v-8.69h3.39A4.62,4.62,0,0,1,708,1385a4.38,4.38,0,0,1,0,6.21,4.61,4.61,0,0,1-3.32,1.24Zm1.91-1.73h1.48a2.62,2.62,0,1,0,0-5.24h-1.48v5.24Zm8,1.73v-8.69h6.62v1.74h-4.71v1.85h4.15v1.74h-4.15v3.37Z"/><path class="cls-3" d="M721.13,1408.25H688.51a1,1,0,0,1-1-1v-42a1,1,0,0,1,1-1h22.76a1,1,0,0,1,.71.29l9.86,9.8a1,1,0,0,1,.29.71v32.23A1,1,0,0,1,721.13,1408.25Zm-31.62-2h30.62v-30.81l-9.28-9.21H689.51Z"/><path class="cls-3" d="M721.15,1376h-9.88a1,1,0,0,1-1-1v-9.8a1,1,0,0,1,2,0v8.8h8.88a1,1,0,0,1,0,2Z"/><rect class="cls-3" x="1120.52" y="1380.88" width="14.9" height="2" transform="translate(-560.41 806.3) rotate(-31.95)"/><rect class="cls-3" x="1126.96" y="1385.57" width="2" height="14.9" transform="translate(-650.84 1613.66) rotate(-58.07)"/><path class="cls-3" d="M1137.65,1403.48a4.8,4.8,0,1,1,4.81-4.8A4.81,4.81,0,0,1,1137.65,1403.48Zm0-7.6a2.8,2.8,0,1,0,2.81,2.8A2.81,2.81,0,0,0,1137.65,1395.88Z"/><path class="cls-3" d="M1118.27,1392.28a4.8,4.8,0,1,1,4.81-4.8A4.81,4.81,0,0,1,1118.27,1392.28Zm0-7.6a2.8,2.8,0,1,0,2.81,2.8A2.81,2.81,0,0,0,1118.27,1384.68Z"/><path class="cls-3" d="M1137.65,1381.08a4.8,4.8,0,1,1,4.81-4.8A4.81,4.81,0,0,1,1137.65,1381.08Zm0-7.6a2.8,2.8,0,1,0,2.81,2.8A2.81,2.81,0,0,0,1137.65,1373.48Z"/><rect class="cls-5" x="246.42" y="263.14" width="0.96" height="1.18"/><path class="cls-5" d="M247.38,263.14h-1a2.38,2.38,0,0,1,2.38-2.38v1A1.42,1.42,0,0,0,247.38,263.14Z"/><rect class="cls-5" x="248.79" y="260.76" width="5.21" height="0.96"/><path class="cls-5" d="M256.39,263.14h-1a1.42,1.42,0,0,0-1.42-1.42v-1A2.38,2.38,0,0,1,256.39,263.14Z"/><rect class="cls-5" x="255.43" y="263.14" width="0.96" height="1.18"/><rect class="cls-5" x="255.43" y="263.14" width="0.96" height="1.18"/><path class="cls-5" d="M256.39,263.14h-1a2.38,2.38,0,0,1,2.38-2.38v1A1.42,1.42,0,0,0,256.39,263.14Z"/><rect class="cls-5" x="257.81" y="260.76" width="5.21" height="0.96"/><path class="cls-5" d="M265.4,263.14h-1a1.42,1.42,0,0,0-1.42-1.42v-1A2.38,2.38,0,0,1,265.4,263.14Z"/><rect class="cls-5" x="264.44" y="263.14" width="0.96" height="1.18"/><rect class="cls-5" x="245.71" y="263.89" width="20.41" height="0.96"/><path class="cls-5" d="M269.62,267.4h-1a2.55,2.55,0,0,0-2.55-2.55v-1A3.51,3.51,0,0,1,269.62,267.4Z"/><polygon class="cls-5" points="269.62 274.51 264.7 274.51 264.7 272.63 265.66 272.63 265.66 273.55 268.66 273.55 268.66 267.4 269.62 267.4 269.62 274.51"/><path class="cls-5" d="M265.66,272.63h-1a.79.79,0,0,0-.79-.79v-1A1.75,1.75,0,0,1,265.66,272.63Z"/><rect class="cls-5" x="247.91" y="270.88" width="16.01" height="0.96"/><path class="cls-5" d="M247.12,272.63h-1a1.75,1.75,0,0,1,1.75-1.75v1A.79.79,0,0,0,247.12,272.63Z"/><polygon class="cls-5" points="247.12 274.51 242.2 274.51 242.2 267.4 243.16 267.4 243.16 273.55 246.16 273.55 246.16 272.63 247.12 272.63 247.12 274.51"/><path class="cls-5" d="M243.16,267.4h-1a3.51,3.51,0,0,1,3.51-3.51v1A2.55,2.55,0,0,0,243.16,267.4Z"/><rect class="cls-5" x="243.94" y="260.59" width="0.96" height="4.03"/><path class="cls-5" d="M244.9,260.59h-1a3.11,3.11,0,0,1,3.11-3.11v1A2.15,2.15,0,0,0,244.9,260.59Z"/><rect class="cls-5" x="247.05" y="257.48" width="17.72" height="0.96"/><path class="cls-5" d="M267.88,260.59h-1a2.15,2.15,0,0,0-2.15-2.15v-1A3.11,3.11,0,0,1,267.88,260.59Z"/><rect class="cls-5" x="266.92" y="260.59" width="0.96" height="4.03"/><path class="cls-5" d="M357,270.77H343.24a3.86,3.86,0,0,1-3.86-3.86v-5.42h21.44v5.42A3.86,3.86,0,0,1,357,270.77Zm-16.58-8.28v4.42a2.86,2.86,0,0,0,2.86,2.86H357a2.86,2.86,0,0,0,2.86-2.86v-4.42Z"/><path class="cls-5" d="M360.63,273.13a2.07,2.07,0,0,1-2.23-1.46,3,3,0,0,0-.75-1.16l.68-.73a4,4,0,0,1,1,1.5c.25.59.34.81,1.35.85Z"/><path class="cls-5" d="M339.57,273.13l0-1c1,0,1.1-.26,1.35-.85a4,4,0,0,1,1-1.5l.68.73a3,3,0,0,0-.75,1.16A2.07,2.07,0,0,1,339.57,273.13Z"/><rect class="cls-5" x="338.12" y="261.49" width="23.96" height="1"/><path class="cls-5" d="M360.82,262h-1v-9.46a2.41,2.41,0,1,0-4.82,0h-1a3.41,3.41,0,1,1,6.82,0Z"/><rect class="cls-5" x="351.79" y="251.95" width="5.36" height="1"/><rect class="cls-5" x="353.97" y="253.63" width="1" height="0.98"/><rect class="cls-5" x="352.02" y="253.63" width="1" height="0.98"/><rect class="cls-5" x="355.92" y="253.63" width="1" height="0.98"/><rect class="cls-5" x="353.97" y="255.47" width="1" height="0.98"/><rect class="cls-5" x="352.02" y="255.47" width="1" height="0.98"/><rect class="cls-5" x="355.92" y="255.47" width="1" height="0.98"/><rect class="cls-5" x="353.97" y="257.42" width="1" height="0.98"/><path class="cls-5" d="M420.09,267.06a.5.5,0,0,1-.5-.5V250.07a.5.5,0,0,1,1,0v16.49A.5.5,0,0,1,420.09,267.06Z"/><path class="cls-5" d="M420.09,267.06a.5.5,0,0,1-.36-.15l-2-2a.5.5,0,1,1,.71-.7l1.66,1.68,1.66-1.68a.5.5,0,0,1,.71.7l-2,2A.5.5,0,0,1,420.09,267.06Z"/><path class="cls-5" d="M418.08,252.12a.5.5,0,0,1-.36-.85l2-2a.5.5,0,0,1,.36-.15h0a.5.5,0,0,1,.36.15l2,2a.5.5,0,0,1-.71.7l-1.66-1.68L418.43,252A.5.5,0,0,1,418.08,252.12Z"/><path class="cls-5" d="M442.74,272.71H426.46a.5.5,0,0,1,0-1h16.28a.5.5,0,1,1,0,1Z"/><path class="cls-5" d="M440.73,274.74a.5.5,0,0,1-.36-.85l1.67-1.69-1.67-1.69a.5.5,0,0,1,.71-.7l2,2a.5.5,0,0,1,0,.7l-2,2A.5.5,0,0,1,440.73,274.74Z"/><path class="cls-5" d="M428,274.75a.5.5,0,0,1-.36-.15l-2-2a.5.5,0,0,1,0-.7l2-2a.5.5,0,0,1,.71.7l-1.67,1.69,1.67,1.69a.5.5,0,0,1-.36.85Z"/><path class="cls-5" d="M442.74,267.06h-8.33a.5.5,0,0,1,0-1h7.83v-16H426.48v16.48a.5.5,0,0,1-1,0v-17a.5.5,0,0,1,.5-.5h16.76a.5.5,0,0,1,.5.5v17A.5.5,0,0,1,442.74,267.06Z"/><path class="cls-5" d="M442.74,261h-8.15a.5.5,0,0,1,0-1h8.15a.5.5,0,0,1,0,1Z"/><path class="cls-5" d="M434.59,261a.5.5,0,0,1-.5-.5V259a.5.5,0,0,1,1,0v1.46A.5.5,0,0,1,434.59,261Z"/><path class="cls-5" d="M434.59,262.45a.5.5,0,0,1-.5-.5v-1.46a.5.5,0,0,1,1,0v1.46A.5.5,0,0,1,434.59,262.45Z"/><path class="cls-5" d="M427.42,256.09H426a.5.5,0,1,1,0-1h1.44a.5.5,0,1,1,0,1Z"/><path class="cls-5" d="M427.42,267.06H426a.5.5,0,0,1,0-1h1.44a.5.5,0,0,1,0,1Z"/><path class="cls-5" d="M434.59,256.09h-1.44a.5.5,0,0,1,0-1h1.44a.5.5,0,1,1,0,1Z"/><path class="cls-5" d="M434.59,256.09a.5.5,0,0,1-.5-.5v-6a.5.5,0,0,1,1,0v6A.5.5,0,0,1,434.59,256.09Z"/><path class="cls-5" d="M494.66,267.06a.5.5,0,0,1-.5-.5V250.07a.5.5,0,0,1,1,0v16.49A.5.5,0,0,1,494.66,267.06Z"/><path class="cls-5" d="M494.66,267.06a.5.5,0,0,1-.36-.15l-2-2a.5.5,0,1,1,.71-.7l1.66,1.68,1.66-1.68a.5.5,0,1,1,.71.7l-2,2A.5.5,0,0,1,494.66,267.06Z"/><path class="cls-5" d="M492.65,252.12a.5.5,0,0,1-.36-.85l2-2a.52.52,0,0,1,.71,0l2,2a.5.5,0,0,1-.71.7l-1.66-1.68L493,252A.5.5,0,0,1,492.65,252.12Z"/><path class="cls-5" d="M517.31,272.71H501a.5.5,0,0,1,0-1h16.28a.5.5,0,0,1,0,1Z"/><path class="cls-5" d="M515.3,274.74a.5.5,0,0,1-.36-.85l1.67-1.69-1.67-1.69a.5.5,0,1,1,.71-.7l2,2a.5.5,0,0,1,0,.7l-2,2A.5.5,0,0,1,515.3,274.74Z"/><path class="cls-5" d="M502.56,274.75a.5.5,0,0,1-.36-.15l-2-2a.5.5,0,0,1,0-.7l2-2a.5.5,0,0,1,.71.7l-1.67,1.69,1.67,1.69a.5.5,0,0,1-.36.85Z"/><path class="cls-5" d="M517.31,267.05H500.55a.5.5,0,0,1-.5-.5v-17a.5.5,0,0,1,.5-.5h16.76a.5.5,0,0,1,.5.5v17A.5.5,0,0,1,517.31,267.05Zm-16.26-1h15.76v-16H501Z"/><path class="cls-5" d="M510.94,261.47a2.46,2.46,0,0,0-4,0,2.61,2.61,0,0,1-2.54-2.68,2.75,2.75,0,0,1,.71-1.86,4,4,0,0,1-.08-.82,3.92,3.92,0,1,1,7.84,0,4,4,0,0,1-.08.82,2.75,2.75,0,0,1,.71,1.86A2.61,2.61,0,0,1,510.94,261.47Zm-2.09-2.39c.22,0,.58.13.66.33a1.54,1.54,0,0,0,1.43,1.06,1.61,1.61,0,0,0,1.54-1.68,1.73,1.73,0,0,0-.59-1.32.5.5,0,0,1-.15-.52,3,3,0,0,0,.12-.84,2.92,2.92,0,1,0-5.84,0,3,3,0,0,0,.12.84.5.5,0,0,1-.16.52,1.73,1.73,0,0,0-.59,1.32,1.61,1.61,0,0,0,1.54,1.68,1.54,1.54,0,0,0,1.43-1.06.51.51,0,0,1,.48-.33Z"/><path class="cls-5" d="M508.93,264a.5.5,0,0,1-.5-.5v-6.84a.5.5,0,0,1,1,0v6.84A.5.5,0,0,1,508.93,264Z"/><path class="cls-5" d="M508.93,259.57a.5.5,0,0,1-.36-.15l-1.29-1.31a.5.5,0,0,1,.71-.7l.94.95.94-.95a.5.5,0,0,1,.71.7l-1.29,1.31A.5.5,0,0,1,508.93,259.57Z"/><path class="cls-6" d="M605.08,250.4a6.75,6.75,0,0,1,6.75,6.75c0,3.21-2.66,5.66-5.24,8-.51.47-1,.91-1.47,1.38-.52-.51-1.06-1-1.59-1.48-2.56-2.33-5.2-4.75-5.2-7.94a6.75,6.75,0,0,1,6.75-6.75m0,9.78a3.18,3.18,0,1,0-3.16-3.18,3.17,3.17,0,0,0,3.16,3.18m0-10.78a7.75,7.75,0,0,0-7.75,7.75c0,3.63,2.88,6.26,5.53,8.68.6.55,1.19,1.09,1.75,1.65l.51.51.51-.51c.53-.53,1.08-1,1.64-1.56,2.64-2.44,5.55-5.12,5.55-8.77a7.75,7.75,0,0,0-7.75-7.75Zm0,9.78a2.18,2.18,0,1,1,2.16-2.18,2.18,2.18,0,0,1-2.16,2.18Z"/><path class="cls-1" d="M646.34,227.09a16.85,16.85,0,0,1,16.85,16.85c0,8-6.57,14.06-12.94,19.94-1.31,1.21-2.56,2.36-3.8,3.59-1.32-1.31-2.72-2.58-4.09-3.84-6.32-5.77-12.86-11.73-12.86-19.69a16.85,16.85,0,0,1,16.85-16.85m0,24a7.5,7.5,0,1,0-7.45-7.5,7.48,7.48,0,0,0,7.45,7.5m0-26.15a19,19,0,0,0-19,19c0,8.91,7.06,15.35,13.56,21.28,1.47,1.35,2.92,2.66,4.29,4l1.25,1.25,1.25-1.25c1.31-1.31,2.65-2.55,4-3.82,6.48-6,13.62-12.56,13.62-21.5a19,19,0,0,0-19-19Zm0,24a5.35,5.35,0,1,1,5.3-5.35,5.34,5.34,0,0,1-5.3,5.35Z"/><circle class="cls-5" cx="605.99" cy="307.05" r="1.95"/><path class="cls-7" d="M603.69,309.78a1.08,1.08,0,0,0-.71.35l-2.72,2.29a.84.84,0,0,0-.22.45l-.64,3.83a.92.92,0,0,0,.09.45.8.8,0,0,0,1.17.14.55.55,0,0,0,.13-.26l.57-3.29c0-.11.07-.15.18-.26l1.29-1c.09-.07.22,0,.18.09l-.69,3.18a1.53,1.53,0,0,0,.3,1.34l4.88,7.32c1,1.45,2.79.32,2-1l-.36-.55-3.81-6.07c-.12-.16,0-.49,0-.69l.43-1.85.05-.23c0-.12.12-.13.19,0l.62.88a1.35,1.35,0,0,0,.53.39l2.55,1.16c1,.47,1.49-.81.57-1.27L607.69,314a.36.36,0,0,1-.15-.18l-.16-.33-1.45-3.09a1,1,0,0,0-.9-.6Zm-.19,10.06c.06.09.07.07,0,.19l-.53,1.4a1.32,1.32,0,0,1-.12.25l-2.41,3.1c-.79,1-2.16.1-1.42-1l2.18-3.13a1,1,0,0,0,.19-.38l.68-2.38Z"/><path class="cls-7" d="M644.09,308.24H649c1.73,0,2.45-.07,2.92,1.51l.79,2.65c-2.37-.22-5.57-.26-8.58-.24v4h2.39a1.12,1.12,0,0,1,1.12,1.12v.94a1.12,1.12,0,0,1-1.12,1.12h-2.39v2.63c6.21.06,11.13-.38,11.23-.63a39.56,39.56,0,0,0,0-6.09,6,6,0,0,0-1.08-2.48c.57-.05,1.2,0,1.68-.06.7-.08,1.09-1.54.46-1.85a2.68,2.68,0,0,0-1.87-.17c-.65.25-.42.62-.69,1.3-.31-.71-.7-1.75-1.1-2.66-.75-1.71-1.31-2-2.35-2h-6.29v1Zm7.47,7.63a1.85,1.85,0,1,1-1.85,1.85,1.85,1.85,0,0,1,1.85-1.85Zm3.75,6.06a14.61,14.61,0,0,1,0,2c0,.16-.13.2-.28.22a22.91,22.91,0,0,1-3.42,0c0-.37,0-.91.08-1.79C652.87,322.24,654.09,322.09,655.31,321.93Z"/><path class="cls-7" d="M644.13,308.24h-4.86c-1.73,0-2.45-.07-2.92,1.51l-.79,2.65c2.37-.22,5.57-.26,8.58-.24v4h-2.39a1.12,1.12,0,0,0-1.12,1.12v.94a1.12,1.12,0,0,0,1.12,1.12h2.39v2.63c-6.21.06-11.13-.38-11.23-.63a39.56,39.56,0,0,1,0-6.09,6,6,0,0,1,1.08-2.48c-.57-.05-1.2,0-1.68-.06-.7-.08-1.09-1.54-.46-1.85a2.68,2.68,0,0,1,1.87-.17c.65.25.42.62.69,1.3.31-.71.7-1.75,1.1-2.66.75-1.71,1.31-2,2.35-2h6.29v1Zm-7.47,7.63a1.85,1.85,0,1,0,1.85,1.85,1.85,1.85,0,0,0-1.85-1.85Zm-3.75,6.06a14.61,14.61,0,0,0,0,2c0,.16.13.2.28.22a22.91,22.91,0,0,0,3.42,0c0-.37,0-.91-.08-1.79C635.35,322.24,634.13,322.09,632.91,321.93Z"/><path class="cls-7" d="M810.63,247.17v-5.44l5.23,2.73-5.23,2.71Zm2.06-9.33h-.11c-.48,0-4.19,0-6.72.2a2.77,2.77,0,0,0-1.94.82,4.19,4.19,0,0,0-.77,1.92,29.31,29.31,0,0,0-.19,3.14v1.47a29.31,29.31,0,0,0,.19,3.14,4.19,4.19,0,0,0,.77,1.92,3.28,3.28,0,0,0,2.14.83c1.55.15,6.59.19,6.59.19s4.07,0,6.78-.2a2.77,2.77,0,0,0,1.94-.82,4.19,4.19,0,0,0,.77-1.92,29.33,29.33,0,0,0,.19-3.14v-1.47a29.33,29.33,0,0,0-.19-3.14,4.19,4.19,0,0,0-.77-1.92,2.77,2.77,0,0,0-1.94-.82C816.88,237.86,813.17,237.85,812.69,237.85Z"/><path class="cls-5" d="M812.63,226.66a18,18,0,1,1-18,18,18,18,0,0,1,18-18m0-2a20,20,0,1,0,20,20,20,20,0,0,0-20-20Z"/><path class="cls-7" d="M880.88,252.83v-7.45h2.5l.37-2.9h-2.88v-1.85c0-.84.23-1.41,1.44-1.41h1.54v-2.6a20.58,20.58,0,0,0-2.24-.11,3.5,3.5,0,0,0-3.74,3.84v2.14h-2.51v2.9h2.51v7.45Z"/><path class="cls-5" d="M879.61,226.66a18,18,0,1,1-18,18,18,18,0,0,1,18-18m0-2a20,20,0,1,0,20,20,20,20,0,0,0-20-20Z"/><path class="cls-7" d="M946.59,237.8c2.24,0,2.5,0,3.38,0a4.63,4.63,0,0,1,1.55.29,2.77,2.77,0,0,1,1.59,1.59,4.63,4.63,0,0,1,.29,1.55c0,.88,0,1.15,0,3.38s0,2.5,0,3.38a4.63,4.63,0,0,1-.29,1.55,2.77,2.77,0,0,1-1.59,1.59,4.63,4.63,0,0,1-1.55.29c-.88,0-1.15,0-3.38,0s-2.5,0-3.38,0a4.63,4.63,0,0,1-1.55-.29,2.77,2.77,0,0,1-1.59-1.59,4.63,4.63,0,0,1-.29-1.55c0-.88,0-1.15,0-3.38s0-2.5,0-3.38a4.63,4.63,0,0,1,.29-1.55,2.77,2.77,0,0,1,1.59-1.59,4.63,4.63,0,0,1,1.55-.29c.88,0,1.15,0,3.38,0Zm8.37,7.07v-.41c0-2.09,0-2.38-.05-3.24a6.15,6.15,0,0,0-.39-2,4.28,4.28,0,0,0-2.45-2.45,6.15,6.15,0,0,0-2-.39c-.87,0-1.16,0-3.24-.05h-.41c-2.09,0-2.38,0-3.24.05a6.15,6.15,0,0,0-2,.39,4.28,4.28,0,0,0-2.45,2.45,6.15,6.15,0,0,0-.39,2c0,.89-.05,1.18-.05,3.45s0,2.56.05,3.45a6.15,6.15,0,0,0,.39,2,4.28,4.28,0,0,0,2.45,2.45,6.15,6.15,0,0,0,2,.39c.89,0,1.18.05,3.45.05s2.56,0,3.45-.05a6.15,6.15,0,0,0,2-.39,4.28,4.28,0,0,0,2.45-2.45,6.15,6.15,0,0,0,.39-2C955,247.25,955,247,955,244.87Z"/><path class="cls-7" d="M946.59,240.36a4.3,4.3,0,1,0,4.3,4.3,4.3,4.3,0,0,0-4.3-4.3Zm0,7.09a2.79,2.79,0,1,1,2.79-2.79A2.79,2.79,0,0,1,946.59,247.45Z"/><circle class="cls-5" cx="951.06" cy="240.19" r="1"/><path class="cls-5" d="M946.59,226.66a18,18,0,1,1-18,18,18,18,0,0,1,18-18m0-2a20,20,0,1,0,20,20,20,20,0,0,0-20-20Z"/><path class="cls-7" d="M1003.85,244.35a6.17,6.17,0,0,1,6.17-5.87,6.27,6.27,0,0,1,4.13,1.53,22,22,0,0,1-1.57,1.62,4.08,4.08,0,0,0-4.81-.13,4,4,0,0,0-.17,6.17c1.88,1.71,5.43.86,6-1.75-1.18,0-2.36,0-3.54,0,0-.7,0-1.41,0-2.11,2,0,3.94,0,5.91,0a7.09,7.09,0,0,1-1.12,4.78,6.1,6.1,0,0,1-7,1.87,6.19,6.19,0,0,1-3.93-6.08Zm15.92-2.35h1.76c0,.59,0,1.18,0,1.77h1.77v1.76h-1.77q0,.89,0,1.77h-1.76c0-.59,0-1.18,0-1.76l-1.77,0v-1.76h1.77Q1019.76,242.88,1019.77,242Z"/><path class="cls-5" d="M1013.57,226.66a18,18,0,1,1-18,18,18,18,0,0,1,18-18m0-2a20,20,0,1,0,20,20,20,20,0,0,0-20-20Z"/><path class="cls-2" d="M810.63,312.29v-5.44l5.23,2.73-5.23,2.71Zm2.06-9.33h-.11c-.48,0-4.19,0-6.72.2a2.77,2.77,0,0,0-1.94.82,4.19,4.19,0,0,0-.77,1.92,29.31,29.31,0,0,0-.19,3.14v1.47a29.31,29.31,0,0,0,.19,3.14,4.19,4.19,0,0,0,.77,1.92,3.28,3.28,0,0,0,2.14.83c1.55.15,6.59.19,6.59.19s4.07,0,6.78-.2a2.77,2.77,0,0,0,1.94-.82,4.19,4.19,0,0,0,.77-1.92,29.33,29.33,0,0,0,.19-3.14V309a29.33,29.33,0,0,0-.19-3.14,4.19,4.19,0,0,0-.77-1.92,2.77,2.77,0,0,0-1.94-.82C816.88,303,813.17,303,812.69,303Z"/><path class="cls-1" d="M812.63,291.78a18,18,0,1,1-18,18,18,18,0,0,1,18-18m0-2a20,20,0,1,0,20,20,20,20,0,0,0-20-20Z"/><path class="cls-2" d="M880.88,317.94v-7.45h2.5l.37-2.9h-2.88v-1.85c0-.84.23-1.41,1.44-1.41h1.54v-2.6a20.58,20.58,0,0,0-2.24-.11,3.5,3.5,0,0,0-3.74,3.84v2.14h-2.51v2.9h2.51v7.45Z"/><path class="cls-1" d="M879.61,291.78a18,18,0,1,1-18,18,18,18,0,0,1,18-18m0-2a20,20,0,1,0,20,20,20,20,0,0,0-20-20Z"/><path class="cls-2" d="M946.59,302.91c2.24,0,2.5,0,3.38,0a4.63,4.63,0,0,1,1.55.29,2.77,2.77,0,0,1,1.59,1.59,4.63,4.63,0,0,1,.29,1.55c0,.88,0,1.15,0,3.38s0,2.5,0,3.38a4.63,4.63,0,0,1-.29,1.55,2.77,2.77,0,0,1-1.59,1.59,4.63,4.63,0,0,1-1.55.29c-.88,0-1.15,0-3.38,0s-2.5,0-3.38,0a4.63,4.63,0,0,1-1.55-.29,2.77,2.77,0,0,1-1.59-1.59,4.63,4.63,0,0,1-.29-1.55c0-.88,0-1.15,0-3.38s0-2.5,0-3.38a4.63,4.63,0,0,1,.29-1.55,2.77,2.77,0,0,1,1.59-1.59,4.63,4.63,0,0,1,1.55-.29c.88,0,1.15,0,3.38,0ZM955,310v-.41c0-2.09,0-2.38-.05-3.24a6.15,6.15,0,0,0-.39-2,4.28,4.28,0,0,0-2.45-2.45,6.15,6.15,0,0,0-2-.39c-.87,0-1.16,0-3.24-.05h-.41c-2.09,0-2.38,0-3.24.05a6.15,6.15,0,0,0-2,.39,4.28,4.28,0,0,0-2.45,2.45,6.15,6.15,0,0,0-.39,2c0,.89-.05,1.18-.05,3.45s0,2.56.05,3.45a6.15,6.15,0,0,0,.39,2,4.28,4.28,0,0,0,2.45,2.45,6.15,6.15,0,0,0,2,.39c.89,0,1.18.05,3.45.05s2.56,0,3.45-.05a6.15,6.15,0,0,0,2-.39,4.28,4.28,0,0,0,2.45-2.45,6.15,6.15,0,0,0,.39-2C955,312.36,955,312.07,955,310Z"/><path class="cls-2" d="M946.59,305.48a4.3,4.3,0,1,0,4.3,4.3,4.3,4.3,0,0,0-4.3-4.3Zm0,7.09a2.79,2.79,0,1,1,2.79-2.79A2.79,2.79,0,0,1,946.59,312.57Z"/><circle class="cls-1" cx="951.06" cy="305.31" r="1"/><path class="cls-1" d="M946.59,291.78a18,18,0,1,1-18,18,18,18,0,0,1,18-18m0-2a20,20,0,1,0,20,20,20,20,0,0,0-20-20Z"/><path class="cls-2" d="M1003.85,309.47a6.17,6.17,0,0,1,6.17-5.87,6.27,6.27,0,0,1,4.13,1.53,22,22,0,0,1-1.57,1.62,4.08,4.08,0,0,0-4.81-.13,4,4,0,0,0-.17,6.17c1.88,1.71,5.43.86,6-1.75-1.18,0-2.36,0-3.54,0,0-.7,0-1.41,0-2.11,2,0,3.94,0,5.91,0a7.09,7.09,0,0,1-1.12,4.78,6.1,6.1,0,0,1-7,1.87,6.19,6.19,0,0,1-3.93-6.08Zm15.92-2.35h1.76c0,.59,0,1.18,0,1.77h1.77v1.76h-1.77q0,.89,0,1.77h-1.76c0-.59,0-1.18,0-1.76l-1.77,0v-1.76h1.77Q1019.76,308,1019.77,307.12Z"/><path class="cls-1" d="M1013.57,291.78a18,18,0,1,1-18,18,18,18,0,0,1,18-18m0-2a20,20,0,1,0,20,20,20,20,0,0,0-20-20Z"/><path class="cls-1" d="M816.32,97.2a9.08,9.08,0,0,1-2.88-.48,1,1,0,0,0-.8.16l-1.76,1.76a12.48,12.48,0,0,1-5.28-5.28l1.76-1.76a.63.63,0,0,0,.16-.8,10.7,10.7,0,0,1-.4-2.8.76.76,0,0,0-.8-.8h-2.8a.76.76,0,0,0-.8.8,13.59,13.59,0,0,0,13.6,13.6.75.75,0,0,0,.8-.8V98a.76.76,0,0,0-.8-.8Zm-4-2.8"/><path class="cls-8" d="M816.32,138a9.08,9.08,0,0,1-2.88-.48,1,1,0,0,0-.8.16l-1.76,1.76a12.48,12.48,0,0,1-5.28-5.28l1.76-1.76a.63.63,0,0,0,.16-.8,10.7,10.7,0,0,1-.4-2.8.76.76,0,0,0-.8-.8h-2.8a.76.76,0,0,0-.8.8,13.59,13.59,0,0,0,13.6,13.6.75.75,0,0,0,.8-.8v-2.8a.76.76,0,0,0-.8-.8Zm-4-2.8"/><circle class="cls-1" cx="605.56" cy="348.81" r="1.95"/><path class="cls-2" d="M603.25,351.53a1.08,1.08,0,0,0-.71.35l-2.72,2.29a.84.84,0,0,0-.22.45l-.64,3.83a.92.92,0,0,0,.09.45.8.8,0,0,0,1.17.14.55.55,0,0,0,.13-.26l.57-3.29c0-.11.07-.15.18-.26l1.29-1c.09-.07.22,0,.18.09l-.69,3.18a1.53,1.53,0,0,0,.3,1.34l4.88,7.32c1,1.45,2.79.32,2-1l-.36-.55-3.81-6.07c-.12-.16,0-.49,0-.69l.43-1.85.05-.23c0-.12.12-.13.19,0l.62.88a1.35,1.35,0,0,0,.53.39l2.55,1.16c1,.47,1.49-.81.57-1.27l-2.58-1.27a.36.36,0,0,1-.15-.18l-.16-.33-1.45-3.09a1,1,0,0,0-.9-.6Zm-.19,10.06c.06.09.07.07,0,.19l-.53,1.4a1.32,1.32,0,0,1-.12.25l-2.41,3.1c-.79,1-2.16.1-1.42-1l2.18-3.13a1,1,0,0,0,.19-.38l.68-2.38Z"/><path class="cls-2" d="M643.66,350h4.86c1.73,0,2.45-.07,2.92,1.51l.79,2.65c-2.37-.22-5.57-.26-8.58-.24v4H646a1.12,1.12,0,0,1,1.12,1.12v.94a1.12,1.12,0,0,1-1.12,1.12h-2.39v2.63c6.21.06,11.13-.38,11.23-.63a39.56,39.56,0,0,0,0-6.09,6,6,0,0,0-1.08-2.48c.57-.05,1.2,0,1.68-.06.7-.08,1.09-1.54.46-1.85a2.68,2.68,0,0,0-1.87-.17c-.65.25-.42.62-.69,1.3-.31-.71-.7-1.75-1.1-2.66-.75-1.71-1.31-2-2.35-2h-6.29v1Zm7.47,7.63a1.85,1.85,0,1,1-1.85,1.85,1.85,1.85,0,0,1,1.85-1.85Zm3.75,6.06a14.61,14.61,0,0,1,0,2c0,.16-.13.2-.28.22a22.91,22.91,0,0,1-3.42,0c0-.37,0-.91.08-1.79C652.44,364,653.66,363.85,654.87,363.69Z"/><path class="cls-2" d="M643.69,350h-4.86c-1.73,0-2.45-.07-2.92,1.51l-.79,2.65c2.37-.22,5.57-.26,8.58-.24v4h-2.39a1.12,1.12,0,0,0-1.12,1.12v.94a1.12,1.12,0,0,0,1.12,1.12h2.39v2.63c-6.21.06-11.13-.38-11.23-.63a39.56,39.56,0,0,1,0-6.09,6,6,0,0,1,1.08-2.48c-.57-.05-1.2,0-1.68-.06-.7-.08-1.09-1.54-.46-1.85a2.68,2.68,0,0,1,1.87-.17c.65.25.42.62.69,1.3.31-.71.7-1.75,1.1-2.66.75-1.71,1.31-2,2.35-2h6.29v1Zm-7.47,7.63a1.85,1.85,0,1,0,1.85,1.85,1.85,1.85,0,0,0-1.85-1.85Zm-3.75,6.06a14.61,14.61,0,0,0,0,2c0,.16.13.2.28.22a22.91,22.91,0,0,0,3.42,0c0-.37,0-.91-.08-1.79C634.91,364,633.69,363.85,632.48,363.69Z"/><path class="cls-2" d="M549.67,978a8.89,8.89,0,0,1,6.36,2.69,9.23,9.23,0,0,1,2.64,6.49c0,4.32-3.38,7.5-6.45,10.38-.65.61-1.29,1.21-1.91,1.84l-.59.6-.59-.6c-.65-.66-1.34-1.3-2-1.95-3.08-2.86-6.42-6-6.42-10.27a9.23,9.23,0,0,1,2.64-6.49,8.89,8.89,0,0,1,6.36-2.69Zm0,5a4,4,0,1,0,4,4,4,4,0,0,0-4-4Z"/><path class="cls-9" d="M765.63,1164a1,1,0,0,1-.81-.42l-24.33-34.08a1,1,0,0,1,0-1.16l24.33-34.08a1,1,0,0,1,1.63,1.16l-23.91,33.5,23.91,33.5a1,1,0,0,1-.81,1.58Z"/><path class="cls-1" d="M741.3,1164a1,1,0,0,1-.81-.42l-24.33-34.08a1,1,0,0,1,0-1.16l24.33-34.08a1,1,0,0,1,1.63,1.16l-23.91,33.5,23.91,33.5a1,1,0,0,1-.81,1.58Z"/><path class="cls-1" d="M1145.21,262.34a1,1,0,0,1-.57-.18c-4.65-3.23-10-7.53-10.4-12.06a6.69,6.69,0,0,1,4.5-7.21,10.23,10.23,0,0,0,12.95,0,6.69,6.69,0,0,1,4.5,7.21c-.37,4.53-5.75,8.83-10.4,12.06A1,1,0,0,1,1145.21,262.34Zm-4.89-17.68a3.65,3.65,0,0,0-1,.15,4.64,4.64,0,0,0-3.07,5.13c.32,3.89,6.15,8.2,9,10.19,2.83-2,8.66-6.29,9-10.19a4.64,4.64,0,0,0-3.07-5.13c-1.51-.44-3.62,0-5,2.68a1,1,0,0,1-1.77,0C1143.21,245.4,1141.66,244.66,1140.32,244.66Z"/><path class="cls-1" d="M1210.42,263.5a11,11,0,1,1,11-11A11,11,0,0,1,1210.42,263.5Zm0-20a9,9,0,1,0,9,9A9,9,0,0,0,1210.42,243.5Z"/><polygon class="cls-2" points="1207.91 256.77 1207.91 248.22 1214.74 252.5 1207.91 256.77"/><path class="cls-1" d="M1277.65,258.52a13.87,13.87,0,0,1-11.22-5.43,1,1,0,0,1,0-1.18,14.29,14.29,0,0,1,22.43,0,1,1,0,0,1,0,1.18A13.86,13.86,0,0,1,1277.65,258.52Zm-9.14-6a12.38,12.38,0,0,0,18.27,0,12.38,12.38,0,0,0-18.27,0Z"/><path class="cls-1" d="M1277.65,257.15a4.65,4.65,0,1,1,4.65-4.65A4.66,4.66,0,0,1,1277.65,257.15Zm0-7.3a2.65,2.65,0,1,0,2.65,2.65A2.65,2.65,0,0,0,1277.65,249.85Z"/><path class="cls-1" d="M1344.91,259.52h-9.62a1,1,0,0,1-1-1V248.9a1,1,0,0,1,1-1h9.62a1,1,0,0,1,1,1v9.62A1,1,0,0,1,1344.91,259.52Zm-8.62-2h7.62V249.9h-7.62Z"/><path class="cls-1" d="M1350.58,253.84h-2.25a1,1,0,0,1,0-2h1.25v-7.62H1342v1.25a1,1,0,0,1-2,0v-2.25a1,1,0,0,1,1-1h9.62a1,1,0,0,1,1,1v9.62A1,1,0,0,1,1350.58,253.84Z"/><path class="cls-8" d="M1145.21,315.34a1,1,0,0,1-.57-.18c-4.65-3.23-10-7.53-10.4-12.06a6.69,6.69,0,0,1,4.5-7.21,10.23,10.23,0,0,0,12.95,0,6.69,6.69,0,0,1,4.5,7.21c-.37,4.53-5.75,8.83-10.4,12.06A1,1,0,0,1,1145.21,315.34Zm-4.89-17.68a3.65,3.65,0,0,0-1,.15,4.64,4.64,0,0,0-3.07,5.13c.32,3.89,6.15,8.2,9,10.19,2.83-2,8.66-6.29,9-10.19a4.64,4.64,0,0,0-3.07-5.13c-1.51-.44-3.62,0-5,2.68a1,1,0,0,1-1.77,0C1143.21,298.4,1141.66,297.66,1140.32,297.66Z"/><path class="cls-8" d="M1210.42,316.5a11,11,0,1,1,11-11A11,11,0,0,1,1210.42,316.5Zm0-20a9,9,0,1,0,9,9A9,9,0,0,0,1210.42,296.5Z"/><polygon class="cls-10" points="1207.91 309.77 1207.91 301.22 1214.74 305.5 1207.91 309.77"/><path class="cls-8" d="M1277.65,311.52a13.87,13.87,0,0,1-11.22-5.43,1,1,0,0,1,0-1.18,14.29,14.29,0,0,1,22.43,0,1,1,0,0,1,0,1.18A13.86,13.86,0,0,1,1277.65,311.52Zm-9.14-6a12.38,12.38,0,0,0,18.27,0,12.38,12.38,0,0,0-18.27,0Z"/><path class="cls-8" d="M1277.65,310.15a4.65,4.65,0,1,1,4.65-4.65A4.66,4.66,0,0,1,1277.65,310.15Zm0-7.3a2.65,2.65,0,1,0,2.65,2.65A2.65,2.65,0,0,0,1277.65,302.85Z"/><path class="cls-8" d="M1344.91,312.52h-9.62a1,1,0,0,1-1-1V301.9a1,1,0,0,1,1-1h9.62a1,1,0,0,1,1,1v9.62A1,1,0,0,1,1344.91,312.52Zm-8.62-2h7.62V302.9h-7.62Z"/><path class="cls-8" d="M1350.58,306.84h-2.25a1,1,0,0,1,0-2h1.25v-7.62H1342v1.25a1,1,0,0,1-2,0v-2.25a1,1,0,0,1,1-1h9.62a1,1,0,0,1,1,1v9.62A1,1,0,0,1,1350.58,306.84Z"/><circle class="cls-8" cx="1145.21" cy="356.1" r="20"/><path class="cls-4" d="M1145.21,364.93c-3-2.1-8.65-6.23-9-10.25-.46-5.62,6.08-8.21,9-2.71,2.9-5.5,9.43-2.91,9,2.71C1153.86,358.71,1148.21,362.83,1145.21,364.93Z"/><path class="cls-5" d="M579.89,644.76h-8.24v-3.6a2,2,0,0,0-2-2H542.13a2,2,0,0,0-2,2v3.6h-8.24V632.48a6.38,6.38,0,0,1,6.34-6.4h35.31a6.38,6.38,0,0,1,6.34,6.4Zm-6.24-2h4.24V632.48a4.38,4.38,0,0,0-4.34-4.4H538.23a4.38,4.38,0,0,0-4.34,4.4v10.28h4.24v-1.6a4,4,0,0,1,4-4h27.52a4,4,0,0,1,4,4Z"/><path class="cls-5" d="M572.12,627h-2v-2.56a2.15,2.15,0,0,0-2.13-2.17h-9a2.15,2.15,0,0,0-2.13,2.17V627h-2v-2.49a4.15,4.15,0,0,1,4.13-4.17h9a4.15,4.15,0,0,1,4.13,4.17Z"/><path class="cls-5" d="M541.66,627h-2v-2.56a4.15,4.15,0,0,1,4.13-4.17h9a4.15,4.15,0,0,1,4.13,4.17V627h-2v-2.49a2.15,2.15,0,0,0-2.13-2.17h-9a2.15,2.15,0,0,0-2.13,2.17Z"/><path class="cls-5" d="M576.87,627.44h-2v-7.07a3.59,3.59,0,0,0-3.56-3.61H540.47a3.59,3.59,0,0,0-3.56,3.61v7.07h-2v-7.07a5.59,5.59,0,0,1,5.56-5.61h30.84a5.59,5.59,0,0,1,5.56,5.61Z"/><path class="cls-5" d="M704.88,647.45H679.69a7.16,7.16,0,0,1-7.17-7.13v-10h39.53v10A7.16,7.16,0,0,1,704.88,647.45Zm-30.36-15.11v8a5.15,5.15,0,0,0,5.17,5.13h25.19a5.15,5.15,0,0,0,5.17-5.13v-8Z"/><path class="cls-5" d="M711.62,651.76c-2.84-.12-3.52-1.2-4.16-2.71a5.43,5.43,0,0,0-1.36-2.08l1.36-1.47a7.39,7.39,0,0,1,1.84,2.76c.44,1,.61,1.42,2.41,1.5Z"/><path class="cls-5" d="M673,651.76l-.09-2c1.8-.08,2-.47,2.41-1.5a7.39,7.39,0,0,1,1.84-2.76l1.36,1.47a5.43,5.43,0,0,0-1.36,2.08C676.47,650.56,675.79,651.64,673,651.76Z"/><rect class="cls-5" x="670.29" y="630.34" width="44" height="2"/><path class="cls-5" d="M712.05,631.34h-2V614.07a4.34,4.34,0,0,0-8.68,0h-2a6.34,6.34,0,0,1,12.68,0Z"/><rect class="cls-5" x="695.39" y="612.93" width="9.85" height="2"/><rect class="cls-5" x="699.31" y="616.09" width="2" height="1.79"/><rect class="cls-5" x="695.73" y="616.09" width="2" height="1.79"/><rect class="cls-5" x="702.89" y="616.09" width="2" height="1.79"/><rect class="cls-5" x="699.31" y="619.44" width="2" height="1.79"/><rect class="cls-5" x="695.73" y="619.44" width="2" height="1.79"/><rect class="cls-5" x="702.89" y="619.44" width="2" height="1.79"/><rect class="cls-5" x="699.31" y="623" width="2" height="1.79"/><path class="cls-5" d="M813.22,638.67a1,1,0,0,1-1-1V609.6a1,1,0,0,1,2,0v28.07A1,1,0,0,1,813.22,638.67Z"/><path class="cls-5" d="M813.22,639.09l-4.14-4.19a1,1,0,0,1,1.42-1.41l2.72,2.75,2.71-2.75a1,1,0,0,1,1.42,1.41Z"/><path class="cls-5" d="M809.79,613.23a1,1,0,0,1-.71-1.7l4.14-4.19,4.14,4.19a1,1,0,0,1-1.42,1.41l-2.71-2.75-2.72,2.75A1,1,0,0,1,809.79,613.23Z"/><path class="cls-5" d="M851.79,648.29H824.07a1,1,0,0,1,0-2h27.72a1,1,0,0,1,0,2Z"/><path class="cls-5" d="M848.37,651.76a1,1,0,0,1-.71-1.7l2.73-2.77-2.73-2.77a1,1,0,0,1,1.42-1.41l4.12,4.17-4.12,4.17A1,1,0,0,1,848.37,651.76Z"/><path class="cls-5" d="M826.68,651.76a1,1,0,0,1-.71-.3l-4.12-4.17,4.12-4.17a1,1,0,0,1,1.42,1.41l-2.73,2.77,2.73,2.77a1,1,0,0,1-.71,1.7Z"/><path class="cls-5" d="M852.79,638.67H837.61a1,1,0,0,1,0-2h13.19V609.76H824.25v27.91a1,1,0,0,1-2,0V607.76h30.54Z"/><path class="cls-5" d="M851.79,628.34H837.92a1,1,0,0,1,0-2h13.88a1,1,0,0,1,0,2Z"/><path class="cls-5" d="M837.92,628.34a1,1,0,0,1-1-1v-2.48a1,1,0,0,1,2,0v2.48A1,1,0,0,1,837.92,628.34Z"/><path class="cls-5" d="M837.92,630.82a1,1,0,0,1-1-1v-2.48a1,1,0,0,1,2,0v2.48A1,1,0,0,1,837.92,630.82Z"/><path class="cls-5" d="M825.7,620h-2.45a1,1,0,0,1,0-2h2.45a1,1,0,0,1,0,2Z"/><path class="cls-5" d="M825.7,638.67h-2.45a1,1,0,0,1,0-2h2.45a1,1,0,0,1,0,2Z"/><path class="cls-5" d="M837.92,620h-2.45a1,1,0,0,1,0-2h2.45a1,1,0,0,1,0,2Z"/><path class="cls-5" d="M837.92,620a1,1,0,0,1-1-1V608.76a1,1,0,0,1,2,0V619A1,1,0,0,1,837.92,620Z"/><path class="cls-5" d="M949,638.67a1,1,0,0,1-1-1V609.6a1,1,0,0,1,2,0v28.07A1,1,0,0,1,949,638.67Z"/><path class="cls-5" d="M949,639.09l-4.14-4.19a1,1,0,0,1,1.42-1.41l2.72,2.75,2.71-2.75a1,1,0,0,1,1.42,1.41Z"/><path class="cls-5" d="M945.56,613.23a1,1,0,0,1-.71-1.7l4.14-4.19,4.14,4.19a1,1,0,0,1-1.42,1.41L949,610.18l-2.72,2.75A1,1,0,0,1,945.56,613.23Z"/><path class="cls-5" d="M987.56,648.29H959.84a1,1,0,0,1,0-2h27.72a1,1,0,0,1,0,2Z"/><path class="cls-5" d="M984.14,651.76a1,1,0,0,1-.71-1.7l2.73-2.77-2.73-2.77a1,1,0,0,1,1.42-1.41l4.12,4.17-4.12,4.17A1,1,0,0,1,984.14,651.76Z"/><path class="cls-5" d="M962.45,651.76a1,1,0,0,1-.71-.3l-4.12-4.17,4.12-4.17a1,1,0,0,1,1.42,1.41l-2.73,2.77,2.73,2.77a1,1,0,0,1-.71,1.7Z"/><path class="cls-5" d="M988.56,638.67H958v-30.9h30.54Zm-28.54-2h26.54v-26.9H960Z"/><path class="cls-5" d="M976.71,629.16a4.32,4.32,0,0,0-6.84,0,4.6,4.6,0,0,1-4.47-4.71,4.83,4.83,0,0,1,1.2-3.21,7,7,0,0,1-.13-1.35,6.83,6.83,0,1,1,13.65,0,7,7,0,0,1-.13,1.35,4.83,4.83,0,0,1,1.2,3.21A4.6,4.6,0,0,1,976.71,629.16Zm-2.55-4.4.25.69a2.48,2.48,0,0,0,2.3,1.71,2.6,2.6,0,0,0,2.47-2.71,2.79,2.79,0,0,0-1-2.13l-.49-.42.18-.62a5,5,0,0,0,.2-1.39,4.83,4.83,0,1,0-9.65,0,5,5,0,0,0,.2,1.39l.18.62-.49.42a2.8,2.8,0,0,0-1,2.14,2.6,2.6,0,0,0,2.47,2.71,2.48,2.48,0,0,0,2.3-1.71l.25-.69.87,0Z"/><path class="cls-5" d="M973.29,633.44a1,1,0,0,1-1-1V620.79a1,1,0,0,1,2,0v11.64A1,1,0,0,1,973.29,633.44Z"/><path class="cls-5" d="M973.29,626.35l-2.91-2.95A1,1,0,0,1,971.8,622l1.49,1.51,1.49-1.51a1,1,0,0,1,1.42,1.41Z"/><polygon class="cls-5" points="579.89 727.77 577.89 727.77 577.89 702.13 555.89 690.9 533.89 702.13 533.89 727.77 531.89 727.77 531.89 700.9 555.89 688.65 579.89 700.9 579.89 727.77"/><path class="cls-5" d="M567.91,726.57h-24a2.39,2.39,0,0,1-2.38-2.39v-8l1.68-1.68,1.42,1.41-1.09,1.1v7.2a.39.39,0,0,0,.38.39h24a.4.4,0,0,0,.38-.39V717l-1.09-1.1,1.42-1.41,1.68,1.68v8A2.39,2.39,0,0,1,567.91,726.57Z"/><path class="cls-5" d="M569.35,716.1H542.43l2.73-8.13c.52-1.54,1.39-2.32,2.59-2.32h16.48c.85,0,2,.41,2.59,2.34Zm-24.15-2h21.42l-1.73-5.51c-.2-.62-.43-.94-.68-.94H547.74c-.09,0-.37,0-.69,1Z"/><rect class="cls-5" x="567.35" y="713.46" width="3.23" height="2" transform="translate(-260.12 331.33) rotate(-26.67)"/><rect class="cls-5" x="541.81" y="712.84" width="2" height="3.23" transform="translate(-339.27 878.84) rotate(-63.33)"/><path class="cls-5" d="M556.9,728.3h-2a2.07,2.07,0,0,1-2.07-2.07v-2.05h2v2.05a.07.07,0,0,0,.07.07h2a.07.07,0,0,0,.07-.07v-.65h2v.65A2.07,2.07,0,0,1,556.9,728.3Z"/><path class="cls-5" d="M556.9,728.3h-2a2.07,2.07,0,0,1-2.07-2.07v-.64h2v.64a.07.07,0,0,0,.07.07h2a.07.07,0,0,0,.07-.07v-2.05h2v2.05A2.07,2.07,0,0,1,556.9,728.3Z"/><ellipse class="cls-5" cx="555.89" cy="718.62" rx="1.53" ry="1.53"/><ellipse class="cls-5" cx="555.89" cy="718.62" rx="1.53" ry="1.53"/><polygon class="cls-5" points="559.75 725.21 559.74 722.6 552.03 722.6 552.03 725.13 550.03 725.13 550.04 720.6 561.74 720.6 561.75 725.21 559.75 725.21"/><rect class="cls-5" x="685.22" y="715.28" width="2" height="10.51"/><rect class="cls-5" x="677.54" y="714.28" width="17.36" height="2"/><polygon class="cls-5" points="676.51 726.1 675.87 720.67 671.62 720.67 670.97 726.1 668.98 725.86 669.84 718.67 677.64 718.67 678.5 725.86 676.51 726.1"/><rect class="cls-5" x="669" y="711.71" width="2" height="8.03" transform="matrix(0.98, -0.18, 0.18, 0.98, -118.08, 132.55)"/><polygon class="cls-5" points="701.47 726.1 700.82 720.67 696.57 720.67 695.92 726.1 693.94 725.86 694.8 718.67 702.6 718.67 703.46 725.86 701.47 726.1"/><rect class="cls-5" x="698.42" y="714.72" width="8.03" height="2" transform="translate(-128.43 1277.27) rotate(-79.59)"/><path class="cls-5" d="M706.48,698.33h-32.1l10.27-12.13h30.43l-.23,2.25Zm-27.79-2h26.86l6.88-8.13H685.57Z"/><rect class="cls-5" x="683.69" y="691.26" width="13.11" height="2" transform="translate(-282.83 786.04) rotate(-50.59)"/><rect class="cls-5" x="693.87" y="691.26" width="13.11" height="2" transform="translate(-279.11 793.91) rotate(-50.59)"/><rect class="cls-5" x="682.53" y="696.95" width="2" height="18.3"/><rect class="cls-5" x="714.28" y="686.16" width="2" height="40"/><polygon class="cls-5" points="709.6 708.7 689.22 708.7 689.22 697.08 691.22 697.08 691.22 706.7 707.6 706.7 707.6 694.31 709.6 694.31 709.6 708.7"/><path class="cls-5" d="M841,730.84H806.59v-42H841Zm-32.39-2H839v-38H808.59Z"/><rect class="cls-5" x="822.78" y="689.84" width="2" height="40"/><path class="cls-5" d="M855.41,708H844l5.7-9Zm-7.76-2h4.12l-2.06-3.24Z"/><path class="cls-5" d="M849.71,720.63l-5.7-9h11.39Zm-2.06-7,2.06,3.24,2.06-3.24Z"/><path class="cls-5" d="M966.77,731.36a22.91,22.91,0,1,1,22.91-22.91A22.94,22.94,0,0,1,966.77,731.36Zm0-43.82a20.91,20.91,0,1,0,20.91,20.91A20.94,20.94,0,0,0,966.77,687.53Z"/><rect class="cls-5" x="965.77" y="686.45" width="2" height="2.46"/><rect class="cls-5" x="944.77" y="707.45" width="2.46" height="2"/><rect class="cls-5" x="965.77" y="727.99" width="2" height="2.46"/><rect class="cls-5" x="986.3" y="707.45" width="2.46" height="2"/><polygon class="cls-7" points="966.77 708.45 969.83 711.51 978.63 696.59 963.7 705.38 966.77 708.45"/><path class="cls-5" d="M969.83,712.51a1,1,0,0,1-.71-.29l-3.07-3.06h0L963,706.09a1,1,0,0,1,.2-1.57l14.93-8.8a1,1,0,0,1,1.37,1.37L970.69,712a1,1,0,0,1-.74.48Zm-2.36-4.77,2.15,2.15,6.18-10.48-10.48,6.18Z"/><path class="cls-5" d="M954.9,721.31a1,1,0,0,1-.86-1.51l8.8-14.93a1,1,0,0,1,1.57-.2l6.13,6.13a1,1,0,0,1-.2,1.57l-14.93,8.8A1,1,0,0,1,954.9,721.31Zm9-14.31-6.18,10.48,10.48-6.18-2.15-2.15h0Z"/><path class="cls-5" d="M578.57,823.26h-8.24v-3.6a2,2,0,0,0-2-2H540.81a2,2,0,0,0-2,2v3.6h-8.24V811a6.38,6.38,0,0,1,6.34-6.4h35.31a6.38,6.38,0,0,1,6.34,6.4Zm-6.24-2h4.24V811a4.38,4.38,0,0,0-4.34-4.4H536.91a4.38,4.38,0,0,0-4.34,4.4v10.28h4.24v-1.6a4,4,0,0,1,4-4h27.52a4,4,0,0,1,4,4Z"/><path class="cls-5" d="M570.79,805.53h-2V803a2.15,2.15,0,0,0-2.13-2.17h-9a2.15,2.15,0,0,0-2.13,2.17v2.49h-2V803a4.15,4.15,0,0,1,4.13-4.17h9a4.15,4.15,0,0,1,4.13,4.17Z"/><path class="cls-5" d="M540.34,805.53h-2V803a4.15,4.15,0,0,1,4.13-4.17h9a4.15,4.15,0,0,1,4.13,4.17v2.49h-2V803a2.15,2.15,0,0,0-2.13-2.17h-9a2.15,2.15,0,0,0-2.13,2.17Z"/><path class="cls-5" d="M575.55,805.94h-2v-7.07a3.59,3.59,0,0,0-3.56-3.61H539.15a3.59,3.59,0,0,0-3.56,3.61v7.07h-2v-7.07a5.59,5.59,0,0,1,5.56-5.61H570a5.59,5.59,0,0,1,5.56,5.61Z"/><path class="cls-5" d="M703.56,825.94H678.37a7.16,7.16,0,0,1-7.17-7.13v-10h39.53v10A7.16,7.16,0,0,1,703.56,825.94ZM673.2,810.83v8a5.15,5.15,0,0,0,5.17,5.13h25.19a5.15,5.15,0,0,0,5.17-5.13v-8Z"/><path class="cls-5" d="M710.3,830.26c-2.84-.12-3.52-1.2-4.16-2.71a5.43,5.43,0,0,0-1.36-2.08l1.36-1.47a7.39,7.39,0,0,1,1.84,2.76c.44,1,.61,1.42,2.41,1.5Z"/><path class="cls-5" d="M671.63,830.26l-.09-2c1.8-.08,2-.47,2.41-1.5A7.39,7.39,0,0,1,675.8,824l1.36,1.47a5.43,5.43,0,0,0-1.36,2.08C675.15,829.05,674.47,830.13,671.63,830.26Z"/><rect class="cls-5" x="668.97" y="808.83" width="44" height="2"/><path class="cls-5" d="M710.73,809.83h-2V792.57a4.34,4.34,0,0,0-8.68,0h-2a6.34,6.34,0,0,1,12.68,0Z"/><rect class="cls-5" x="694.06" y="791.42" width="9.85" height="2"/><rect class="cls-5" x="697.99" y="794.58" width="2" height="1.79"/><rect class="cls-5" x="694.41" y="794.58" width="2" height="1.79"/><rect class="cls-5" x="701.57" y="794.58" width="2" height="1.79"/><rect class="cls-5" x="697.99" y="797.94" width="2" height="1.79"/><rect class="cls-5" x="694.41" y="797.94" width="2" height="1.79"/><rect class="cls-5" x="701.57" y="797.94" width="2" height="1.79"/><rect class="cls-5" x="697.99" y="801.5" width="2" height="1.79"/><path class="cls-5" d="M811.9,817.16a1,1,0,0,1-1-1V788.09a1,1,0,0,1,2,0v28.07A1,1,0,0,1,811.9,817.16Z"/><path class="cls-5" d="M811.9,817.59l-4.14-4.19a1,1,0,0,1,1.42-1.41l2.72,2.75,2.71-2.75A1,1,0,0,1,816,813.4Z"/><path class="cls-5" d="M808.47,791.73a1,1,0,0,1-.71-1.7l4.14-4.19L816,790a1,1,0,0,1-1.42,1.41l-2.71-2.75-2.72,2.75A1,1,0,0,1,808.47,791.73Z"/><path class="cls-5" d="M850.47,826.79H822.75a1,1,0,0,1,0-2h27.72a1,1,0,1,1,0,2Z"/><path class="cls-5" d="M847,830.26a1,1,0,0,1-.71-1.7l2.73-2.77L846.33,823a1,1,0,0,1,1.42-1.41l4.12,4.17L847.76,830A1,1,0,0,1,847,830.26Z"/><path class="cls-5" d="M825.36,830.26a1,1,0,0,1-.71-.3l-4.12-4.17,4.12-4.17a1,1,0,0,1,1.42,1.41l-2.73,2.77,2.73,2.77a1,1,0,0,1-.71,1.7Z"/><path class="cls-5" d="M851.47,817.16H836.29a1,1,0,0,1,0-2h13.19V788.26H822.93v27.91a1,1,0,0,1-2,0V786.26h30.54Z"/><path class="cls-5" d="M850.47,806.84H836.6a1,1,0,0,1,0-2h13.88a1,1,0,1,1,0,2Z"/><path class="cls-5" d="M836.6,806.84a1,1,0,0,1-1-1v-2.48a1,1,0,0,1,2,0v2.48A1,1,0,0,1,836.6,806.84Z"/><path class="cls-5" d="M836.6,809.32a1,1,0,0,1-1-1v-2.48a1,1,0,0,1,2,0v2.48A1,1,0,0,1,836.6,809.32Z"/><path class="cls-5" d="M824.38,798.49h-2.45a1,1,0,0,1,0-2h2.45a1,1,0,0,1,0,2Z"/><path class="cls-5" d="M824.38,817.16h-2.45a1,1,0,0,1,0-2h2.45a1,1,0,0,1,0,2Z"/><path class="cls-5" d="M836.6,798.49h-2.45a1,1,0,0,1,0-2h2.45a1,1,0,0,1,0,2Z"/><path class="cls-5" d="M836.6,798.49a1,1,0,0,1-1-1V787.26a1,1,0,0,1,2,0v10.23A1,1,0,0,1,836.6,798.49Z"/><path class="cls-5" d="M947.67,817.16a1,1,0,0,1-1-1V788.09a1,1,0,0,1,2,0v28.07A1,1,0,0,1,947.67,817.16Z"/><path class="cls-5" d="M947.67,817.59l-4.14-4.19A1,1,0,0,1,945,812l2.72,2.75,2.71-2.75a1,1,0,0,1,1.42,1.41Z"/><path class="cls-5" d="M944.24,791.73a1,1,0,0,1-.71-1.7l4.14-4.19,4.14,4.19a1,1,0,0,1-1.42,1.41l-2.71-2.75L945,791.43A1,1,0,0,1,944.24,791.73Z"/><path class="cls-5" d="M986.24,826.79H958.52a1,1,0,0,1,0-2h27.72a1,1,0,0,1,0,2Z"/><path class="cls-5" d="M982.81,830.26a1,1,0,0,1-.71-1.7l2.73-2.77L982.1,823a1,1,0,0,1,1.42-1.41l4.12,4.17L983.53,830A1,1,0,0,1,982.81,830.26Z"/><path class="cls-5" d="M961.13,830.26a1,1,0,0,1-.71-.3l-4.12-4.17,4.12-4.17a1,1,0,0,1,1.42,1.41l-2.73,2.77,2.73,2.77a1,1,0,0,1-.71,1.7Z"/><path class="cls-5" d="M987.24,817.16H956.7v-30.9h30.54Zm-28.54-2h26.54v-26.9H958.7Z"/><path class="cls-5" d="M975.39,807.66a4.32,4.32,0,0,0-6.84,0,4.6,4.6,0,0,1-4.47-4.71,4.83,4.83,0,0,1,1.2-3.21,7,7,0,0,1-.13-1.35,6.83,6.83,0,1,1,13.65,0,7,7,0,0,1-.13,1.35,4.83,4.83,0,0,1,1.2,3.21A4.6,4.6,0,0,1,975.39,807.66Zm-2.55-4.4.25.69a2.48,2.48,0,0,0,2.3,1.71,2.6,2.6,0,0,0,2.47-2.71,2.79,2.79,0,0,0-1-2.13l-.49-.42.18-.62a5,5,0,0,0,.2-1.39,4.83,4.83,0,1,0-9.65,0,5,5,0,0,0,.2,1.39l.18.62-.49.42a2.8,2.8,0,0,0-1,2.14,2.6,2.6,0,0,0,2.47,2.71,2.48,2.48,0,0,0,2.3-1.71l.25-.69.87,0Z"/><path class="cls-5" d="M972,811.93a1,1,0,0,1-1-1V799.29a1,1,0,1,1,2,0v11.64A1,1,0,0,1,972,811.93Z"/><path class="cls-5" d="M972,804.84l-2.91-2.95a1,1,0,0,1,1.42-1.41L972,802l1.49-1.51a1,1,0,0,1,1.42,1.41Z"/><polygon class="cls-5" points="578.57 906.27 576.57 906.27 576.57 880.62 554.57 869.39 532.57 880.62 532.57 906.27 530.57 906.27 530.57 879.4 554.57 867.15 578.57 879.4 578.57 906.27"/><path class="cls-5" d="M566.59,905.07h-24a2.39,2.39,0,0,1-2.38-2.39v-8l1.68-1.68,1.42,1.41-1.09,1.1v7.2a.39.39,0,0,0,.38.39h24a.4.4,0,0,0,.38-.39v-7.2l-1.09-1.1L567.3,893l1.68,1.68v8A2.39,2.39,0,0,1,566.59,905.07Z"/><path class="cls-5" d="M568,894.6H541.1l2.73-8.13c.52-1.54,1.39-2.32,2.59-2.32h16.48c.85,0,2,.41,2.59,2.34Zm-24.15-2h21.42l-1.73-5.51c-.2-.62-.43-.94-.68-.94H546.42c-.09,0-.37,0-.69,1Z"/><rect class="cls-5" x="566.03" y="891.95" width="3.23" height="2" transform="translate(-340.36 349.72) rotate(-26.67)"/><rect class="cls-5" x="540.49" y="891.34" width="2" height="3.23" transform="translate(-499.51 976.04) rotate(-63.33)"/><path class="cls-5" d="M555.58,906.8h-2a2.07,2.07,0,0,1-2.07-2.07v-2.05h2v2.05a.07.07,0,0,0,.07.07h2a.07.07,0,0,0,.07-.07v-.65h2v.65A2.07,2.07,0,0,1,555.58,906.8Z"/><path class="cls-5" d="M555.58,906.8h-2a2.07,2.07,0,0,1-2.07-2.07v-.64h2v.64a.07.07,0,0,0,.07.07h2a.07.07,0,0,0,.07-.07v-2.05h2v2.05A2.07,2.07,0,0,1,555.58,906.8Z"/><ellipse class="cls-5" cx="554.57" cy="897.11" rx="1.53" ry="1.53"/><ellipse class="cls-5" cx="554.57" cy="897.11" rx="1.53" ry="1.53"/><polygon class="cls-5" points="558.42 903.71 558.42 901.1 550.71 901.1 550.71 903.62 548.71 903.62 548.72 899.1 560.42 899.1 560.42 903.71 558.42 903.71"/><rect class="cls-5" x="683.9" y="893.77" width="2" height="10.51"/><rect class="cls-5" x="676.22" y="892.77" width="17.36" height="2"/><polygon class="cls-5" points="675.19 904.6 674.55 899.17 670.29 899.17 669.65 904.6 667.66 904.36 668.52 897.17 676.32 897.17 677.18 904.36 675.19 904.6"/><rect class="cls-5" x="667.68" y="890.2" width="2" height="8.03" transform="matrix(0.98, -0.18, 0.18, 0.98, -150.29, 135.24)"/><polygon class="cls-5" points="700.15 904.6 699.5 899.17 695.25 899.17 694.6 904.6 692.62 904.36 693.48 897.17 701.28 897.17 702.14 904.36 700.15 904.6"/><rect class="cls-5" x="697.1" y="893.22" width="8.03" height="2" transform="translate(-305.07 1422.22) rotate(-79.59)"/><path class="cls-5" d="M705.16,876.82h-32.1l10.27-12.13h30.43l-.23,2.25Zm-27.79-2h26.86l6.88-8.13H684.25Z"/><rect class="cls-5" x="682.36" y="869.76" width="13.11" height="2" transform="translate(-421.22 850.19) rotate(-50.59)"/><rect class="cls-5" x="692.55" y="869.76" width="13.11" height="2" transform="translate(-417.5 858.06) rotate(-50.59)"/><rect class="cls-5" x="681.21" y="875.45" width="2" height="18.3"/><rect class="cls-5" x="712.96" y="864.66" width="2" height="40"/><polygon class="cls-5" points="708.27 887.2 687.89 887.2 687.89 875.58 689.89 875.58 689.89 885.2 706.27 885.2 706.27 872.81 708.27 872.81 708.27 887.2"/><path class="cls-5" d="M839.65,909.34H805.27v-42h34.39Zm-32.39-2h30.39v-38H807.27Z"/><rect class="cls-5" x="821.46" y="868.34" width="2" height="40"/><path class="cls-5" d="M854.09,886.53H842.69l5.7-9Zm-7.76-2h4.12l-2.06-3.24Z"/><path class="cls-5" d="M848.39,899.13l-5.7-9h11.39Zm-2.06-7,2.06,3.24,2.06-3.24Z"/><path class="cls-5" d="M965.44,909.86a22.91,22.91,0,1,1,22.91-22.91A22.94,22.94,0,0,1,965.44,909.86Zm0-43.82a20.91,20.91,0,1,0,20.91,20.91A20.94,20.94,0,0,0,965.44,866Z"/><rect class="cls-5" x="964.44" y="864.94" width="2" height="2.46"/><rect class="cls-5" x="943.44" y="885.94" width="2.46" height="2"/><rect class="cls-5" x="964.44" y="906.48" width="2" height="2.46"/><rect class="cls-5" x="984.98" y="885.94" width="2.46" height="2"/><polygon class="cls-7" points="965.44 886.94 968.51 890.01 977.31 875.08 962.38 883.88 965.44 886.94"/><path class="cls-5" d="M968.51,891a1,1,0,0,1-.71-.29l-3.07-3.06h0l-3.06-3.06a1,1,0,0,1,.2-1.57l14.93-8.8a1,1,0,0,1,1.37,1.37l-8.8,14.93a1,1,0,0,1-.74.48Zm-2.36-4.77,2.15,2.15,6.18-10.48L964,884.08Z"/><path class="cls-5" d="M953.58,899.8a1,1,0,0,1-.86-1.51l8.8-14.93a1,1,0,0,1,1.57-.2l6.13,6.13a1,1,0,0,1-.2,1.57l-14.93,8.8A1,1,0,0,1,953.58,899.8Zm9-14.31L956.41,896l10.48-6.18-2.15-2.15h0Z"/><path class="cls-7" d="M1184,615.88h-8.65v-2.27c3.82-5.89,13.47-5.89,17.29,0v2.27Z"/><circle class="cls-5" cx="1184.01" cy="603.04" r="4.05"/><path class="cls-5" d="M1184,590.43a18,18,0,1,1-18,18,18,18,0,0,1,18-18m0-2a20,20,0,1,0,20,20,20,20,0,0,0-20-20Z"/><circle class="cls-5" cx="1263.21" cy="609.76" r="20"/><path class="cls-4" d="M1263.21,618.6c-3-2.1-8.65-6.23-9-10.25-.46-5.62,6.08-8.21,9-2.71,2.9-5.5,9.43-2.91,9,2.71C1271.86,612.37,1266.21,616.49,1263.21,618.6Z"/><circle class="cls-8" cx="1263.21" cy="668.63" r="20"/><path class="cls-4" d="M1263.21,677.46c-3-2.1-8.65-6.23-9-10.25-.46-5.62,6.08-8.21,9-2.71,2.9-5.5,9.43-2.91,9,2.71C1271.86,671.24,1266.21,675.36,1263.21,677.46Z"/><path class="cls-7" d="M1184,676.9h-8.65v-2.27c3.82-5.89,13.47-5.89,17.29,0v2.27Z"/><circle class="cls-5" cx="1184.01" cy="664.07" r="4.05"/><path class="cls-5" d="M1184,651.46a18,18,0,1,1-18,18,18,18,0,0,1,18-18m0-2a20,20,0,1,0,20,20,20,20,0,0,0-20-20Z"/><path class="cls-2" d="M1148.58,774.4v-9.84l9.47,4.94-9.46,4.9Zm3.72-16.86h-.21c-.87,0-7.58,0-12.16.35a5,5,0,0,0-3.51,1.48,7.57,7.57,0,0,0-1.39,3.48,53,53,0,0,0-.35,5.67v2.66a53,53,0,0,0,.35,5.67,7.58,7.58,0,0,0,1.39,3.48,5.94,5.94,0,0,0,3.86,1.5c2.8.27,11.91.35,11.91.35s7.36,0,12.26-.37a5,5,0,0,0,3.51-1.48,7.58,7.58,0,0,0,1.39-3.48,53,53,0,0,0,.35-5.67v-2.66a53,53,0,0,0-.35-5.67,7.58,7.58,0,0,0-1.39-3.48,5,5,0,0,0-3.51-1.48C1159.88,757.56,1153.17,757.53,1152.3,757.53Z"/><path class="cls-2" d="M1236.53,784.62V771.15h4.52l.68-5.25h-5.2v-3.35c0-1.52.42-2.56,2.6-2.56h2.78v-4.7a37.21,37.21,0,0,0-4.05-.21c-4,0-6.75,2.45-6.75,6.94v3.87h-4.53v5.25h4.53v13.48Z"/><path class="cls-2" d="M1316.3,757.44c4,0,4.52,0,6.12.09a8.38,8.38,0,0,1,2.81.52,5,5,0,0,1,2.87,2.87,8.38,8.38,0,0,1,.52,2.81c.07,1.6.09,2.08.09,6.12s0,4.52-.09,6.12a8.38,8.38,0,0,1-.52,2.81,5,5,0,0,1-2.87,2.87,8.38,8.38,0,0,1-2.81.52c-1.6.07-2.08.09-6.12.09s-4.52,0-6.12-.09a8.38,8.38,0,0,1-2.81-.52,5,5,0,0,1-2.87-2.87A8.38,8.38,0,0,1,1304,776c-.07-1.6-.09-2.08-.09-6.12s0-4.52.09-6.12a8.38,8.38,0,0,1,.52-2.81,5,5,0,0,1,2.87-2.87,8.38,8.38,0,0,1,2.81-.52c1.6-.07,2.08-.09,6.12-.09Zm15.14,12.79v-.75c0-3.77,0-4.3-.09-5.87a11.11,11.11,0,0,0-.7-3.68,7.74,7.74,0,0,0-4.43-4.43,11.11,11.11,0,0,0-3.68-.7c-1.56-.07-2.1-.09-5.87-.09h-.75c-3.77,0-4.3,0-5.87.09a11.11,11.11,0,0,0-3.68.7,7.74,7.74,0,0,0-4.43,4.43,11.12,11.12,0,0,0-.7,3.68c-.07,1.61-.09,2.13-.09,6.24s0,4.63.09,6.24a11.12,11.12,0,0,0,.7,3.68,7.74,7.74,0,0,0,4.43,4.43,11.12,11.12,0,0,0,3.68.7c1.61.07,2.13.09,6.24.09s4.63,0,6.24-.09a11.12,11.12,0,0,0,3.68-.7,7.74,7.74,0,0,0,4.43-4.43,11.11,11.11,0,0,0,.7-3.68C1331.42,774.53,1331.44,774,1331.44,770.23Z"/><path class="cls-2" d="M1316.3,762.08a7.78,7.78,0,1,0,7.78,7.78,7.78,7.78,0,0,0-7.78-7.78Zm0,12.82a5,5,0,1,1,5-5A5,5,0,0,1,1316.3,774.9Z"/><circle class="cls-1" cx="1324.38" cy="761.77" r="1.82"/><path class="cls-2" d="M1380.77,769.29a11.15,11.15,0,0,1,11.15-10.61,11.33,11.33,0,0,1,7.47,2.76,39.84,39.84,0,0,1-2.83,2.94c-2.54-1.76-6.15-2.26-8.7-.23a7.16,7.16,0,0,0-.3,11.16c3.4,3.09,9.83,1.55,10.77-3.17-2.13,0-4.27,0-6.39-.07,0-1.27,0-2.54,0-3.81,3.56,0,7.12,0,10.69,0,.21,3-.18,6.17-2,8.64-2.78,3.91-8.36,5.06-12.72,3.38a11.19,11.19,0,0,1-7.1-11Zm28.78-4.25h3.18c0,1.06,0,2.13,0,3.19l3.19,0v3.18l-3.19,0q0,1.6,0,3.19h-3.18c0-1.06,0-2.12,0-3.19l-3.19,0v-3.18l3.19,0Q1409.54,766.63,1409.56,765Z"/><path class="cls-2" d="M1140.6,1020.53a27.67,27.67,0,0,0,11.16,11.16,5,5,0,0,0,1.95.51c.76,0,1-.11,1.17-.23a12.86,12.86,0,0,0,2-2.16c.36-.5.35-1-.08-1.31l-3.55-2.29a.82.82,0,0,0-.93,0l-1.95,1.18a26.23,26.23,0,0,1-5.42-5.42l1.18-1.95a.82.82,0,0,0,0-.93l-2.29-3.55c-.27-.42-.81-.44-1.31-.08a12.83,12.83,0,0,0-2.15,2c-.13.15-.27.41-.23,1.17A5,5,0,0,0,1140.6,1020.53Z"/><path class="cls-11" d="M1149.58,851.4v-9.84l9.47,4.94-9.46,4.9Zm3.72-16.86h-.21c-.87,0-7.58,0-12.16.35a5,5,0,0,0-3.51,1.48,7.57,7.57,0,0,0-1.39,3.48,53,53,0,0,0-.35,5.67v2.66a53,53,0,0,0,.35,5.67,7.58,7.58,0,0,0,1.39,3.48,5.94,5.94,0,0,0,3.86,1.5c2.8.27,11.91.35,11.91.35s7.36,0,12.26-.37a5,5,0,0,0,3.51-1.48,7.58,7.58,0,0,0,1.39-3.48,53,53,0,0,0,.35-5.67v-2.66a53,53,0,0,0-.35-5.67,7.58,7.58,0,0,0-1.39-3.48,5,5,0,0,0-3.51-1.48C1160.88,834.56,1154.17,834.53,1153.3,834.53Z"/><path class="cls-11" d="M1237.53,861.62V848.15h4.52l.68-5.25h-5.2v-3.35c0-1.52.42-2.56,2.6-2.56h2.78v-4.7a37.21,37.21,0,0,0-4.05-.21c-4,0-6.75,2.45-6.75,6.94v3.87h-4.53v5.25h4.53v13.48Z"/><path class="cls-11" d="M1317.3,834.44c4,0,4.52,0,6.12.09a8.38,8.38,0,0,1,2.81.52,5,5,0,0,1,2.87,2.87,8.38,8.38,0,0,1,.52,2.81c.07,1.6.09,2.08.09,6.12s0,4.52-.09,6.12a8.38,8.38,0,0,1-.52,2.81,5,5,0,0,1-2.87,2.87,8.38,8.38,0,0,1-2.81.52c-1.6.07-2.08.09-6.12.09s-4.52,0-6.12-.09a8.38,8.38,0,0,1-2.81-.52,5,5,0,0,1-2.87-2.87A8.38,8.38,0,0,1,1305,853c-.07-1.6-.09-2.08-.09-6.12s0-4.52.09-6.12a8.38,8.38,0,0,1,.52-2.81,5,5,0,0,1,2.87-2.87,8.38,8.38,0,0,1,2.81-.52c1.6-.07,2.08-.09,6.12-.09Zm15.14,12.79v-.75c0-3.77,0-4.3-.09-5.87a11.11,11.11,0,0,0-.7-3.68,7.74,7.74,0,0,0-4.43-4.43,11.11,11.11,0,0,0-3.68-.7c-1.56-.07-2.1-.09-5.87-.09h-.75c-3.77,0-4.3,0-5.87.09a11.11,11.11,0,0,0-3.68.7,7.74,7.74,0,0,0-4.43,4.43,11.12,11.12,0,0,0-.7,3.68c-.07,1.61-.09,2.13-.09,6.24s0,4.63.09,6.24a11.12,11.12,0,0,0,.7,3.68,7.74,7.74,0,0,0,4.43,4.43,11.12,11.12,0,0,0,3.68.7c1.61.07,2.13.09,6.24.09s4.63,0,6.24-.09a11.12,11.12,0,0,0,3.68-.7,7.74,7.74,0,0,0,4.43-4.43,11.11,11.11,0,0,0,.7-3.68C1332.42,851.53,1332.44,851,1332.44,847.23Z"/><path class="cls-11" d="M1317.3,839.08a7.78,7.78,0,1,0,7.78,7.78,7.78,7.78,0,0,0-7.78-7.78Zm0,12.82a5,5,0,1,1,5-5A5,5,0,0,1,1317.3,851.9Z"/><circle class="cls-9" cx="1325.38" cy="838.77" r="1.82"/><path class="cls-11" d="M1381.77,846.29a11.15,11.15,0,0,1,11.15-10.61,11.33,11.33,0,0,1,7.47,2.76,39.84,39.84,0,0,1-2.83,2.94c-2.54-1.76-6.15-2.26-8.7-.23a7.16,7.16,0,0,0-.3,11.16c3.4,3.09,9.83,1.55,10.77-3.17-2.13,0-4.27,0-6.39-.07,0-1.27,0-2.54,0-3.81,3.56,0,7.12,0,10.69,0,.21,3-.18,6.17-2,8.64-2.78,3.91-8.36,5.06-12.72,3.38a11.19,11.19,0,0,1-7.1-11Zm28.78-4.25h3.18c0,1.06,0,2.13,0,3.19l3.19,0v3.18l-3.19,0q0,1.6,0,3.19h-3.18c0-1.06,0-2.12,0-3.19l-3.19,0v-3.18l3.19,0Q1410.54,843.63,1410.56,842Z"/><path class="cls-2" d="M1146.67,966a8.89,8.89,0,0,1,6.36,2.69,9.23,9.23,0,0,1,2.64,6.49c0,4.32-3.38,7.5-6.45,10.38-.65.61-1.29,1.21-1.91,1.84l-.59.6-.59-.6c-.65-.66-1.34-1.3-2-1.95-3.08-2.86-6.42-6-6.42-10.27a9.23,9.23,0,0,1,2.64-6.49,8.89,8.89,0,0,1,6.36-2.69Zm0,5a4,4,0,1,0,4,4,4,4,0,0,0-4-4Z"/><path class="cls-2" d="M576.24,986.4a26,26,0,0,0,10.5,10.5,4.7,4.7,0,0,0,1.83.48c.72,0,1-.1,1.1-.22a12.11,12.11,0,0,0,1.84-2c.34-.47.33-1-.07-1.23l-3.34-2.16a.77.77,0,0,0-.87,0l-1.83,1.11a24.69,24.69,0,0,1-5.1-5.1l1.11-1.83a.77.77,0,0,0,0-.87l-2.16-3.34c-.26-.4-.77-.41-1.23-.07a12.07,12.07,0,0,0-2,1.84c-.12.14-.26.38-.22,1.1A4.7,4.7,0,0,0,576.24,986.4Z"/><path class="cls-2" d="M595.39,1040.56l0,.11,0-.21.05.1a10,10,0,0,0,.17-1.8,9.91,9.91,0,0,0-9.92-9.92,10,10,0,0,0-1.88.18h0l.1.05-.21,0,.11,0a5.87,5.87,0,0,0-7.88,8l0-.11,0,.21-.05-.1a10,10,0,0,0-.15,1.71,9.91,9.91,0,0,0,9.92,9.92,10,10,0,0,0,1.74-.15l-.1-.06.21,0-.11,0a5.87,5.87,0,0,0,8-8Zm-9.71,4.28h0c-3.52,0-5.1-1.73-5.1-3a1.11,1.11,0,0,1,1.17-1.13c1.51,0,1.12,2.16,3.93,2.16,1.44,0,2.24-.78,2.24-1.58,0-.48-.24-1-1.19-1.25l-3.13-.78c-2.52-.63-3-2-3-3.28,0-2.66,2.51-3.66,4.86-3.66,2.17,0,4.73,1.2,4.73,2.8a1.15,1.15,0,0,1-1.27,1.08c-1.29,0-1-1.78-3.64-1.78-1.29,0-2,.58-2,1.42s1,1.1,1.9,1.3l2.32.51c2.54.57,3.18,2,3.18,3.45C590.69,1043.22,589,1044.83,585.68,1044.83Z"/><g id="g4780"><g id="g15"><path id="path17-6" class="cls-1" d="M675.69,994.83c-.56-.46-1.16-.87-1.75-1.3-1.18-.84-2.25-.91-3.13.45a1.35,1.35,0,0,1-1.9.46,8.51,8.51,0,0,1-4.42-4.4,1.71,1.71,0,0,1,.54-2.37,1.69,1.69,0,0,0,.95-1.49c-.05-1-2.36-4.22-3.28-4.56a1.63,1.63,0,0,0-1.14,0,3.29,3.29,0,0,0-2.18,4.66,24,24,0,0,0,13.12,13.47,6,6,0,0,0,.94.27,4.28,4.28,0,0,0,3.51-2.72c.45-1.31-.51-1.83-1.27-2.46Z"/><path id="path19-1" class="cls-1" d="M668.81,982c4.48.7,6.55,2.88,7.12,7.5.05.43-.1,1.07.49,1.08s.47-.62.48-1a8.63,8.63,0,0,0-8-8.52c-.32,0-1-.23-1,.51,0,.5.54.42.91.48Z"/><path id="path21-2" class="cls-1" d="M669.69,983.28c-.43-.05-1-.26-1.1.35s.53.58.94.67c2.77.63,3.73,1.66,4.19,4.47.07.41-.07,1,.62.94.5-.08.32-.62.36-.94a5.72,5.72,0,0,0-5-5.49Z"/><path id="path23" class="cls-1" d="M669.94,985.48c-.29,0-.57,0-.68.35-.16.47.18.58.52.64a2,2,0,0,1,1.85,2c0,.31.23.57.52.53s.45-.42.44-.78a3,3,0,0,0-2.65-2.77Z"/></g></g><path class="cls-1" d="M676.59,1048.82a1.55,1.55,0,0,0,1.05-.39l-5.1-5-.35.25q-.57.42-.93.65a5.82,5.82,0,0,1-.95.48,2.92,2.92,0,0,1-1.11.24h0a2.92,2.92,0,0,1-1.11-.24,5.73,5.73,0,0,1-.95-.48q-.36-.23-.93-.65l-.35-.25-5.1,5a1.55,1.55,0,0,0,1.05.39Zm0,0"/><path class="cls-1" d="M661.22,1040.2a5.33,5.33,0,0,1-1-.87V1047l4.49-4.45q-1.35-.93-3.48-2.37Zm0,0"/><path class="cls-1" d="M677.2,1040.2q-2.05,1.37-3.49,2.37l4.49,4.45v-7.68a5.55,5.55,0,0,1-1,.87Zm0,0"/><path class="cls-1" d="M676.59,1034.82H661.81a1.44,1.44,0,0,0-1.19.52,2,2,0,0,0-.42,1.29,2.31,2.31,0,0,0,.55,1.36,5,5,0,0,0,1.17,1.15l2.06,1.42,1.62,1.11,1,.7.15.11.28.2.54.38.52.32a3,3,0,0,0,.58.27,1.6,1.6,0,0,0,.5.09h0a1.61,1.61,0,0,0,.5-.09,3,3,0,0,0,.58-.27l.52-.32.54-.38.28-.2.15-.11,1-.7,3.68-2.53a4.76,4.76,0,0,0,1.23-1.22,2.61,2.61,0,0,0,.49-1.5,1.52,1.52,0,0,0-.48-1.12,1.56,1.56,0,0,0-1.13-.47Zm0,0"/><path class="cls-2" d="M645.71,993.87c-.25-.14-1.46-.82-1.68-.92s-.39-.15-.57.11-.68.82-.83,1-.3.18-.55,0a6.84,6.84,0,0,1-2-1.37,7.86,7.86,0,0,1-1.33-1.86.39.39,0,0,1,.13-.53c.12-.11.26-.3.39-.44a1.81,1.81,0,0,0,.27-.43.5.5,0,0,0,0-.46c-.06-.13-.51-1.44-.7-2s-.4-.45-.55-.46l-.48,0a.9.9,0,0,0-.68.3,3,3,0,0,0-1,2.14,5.2,5.2,0,0,0,.93,2.74,10.51,10.51,0,0,0,4.14,4.11c2.51,1.15,2.52.8,3,.77a2.53,2.53,0,0,0,1.74-1.18,2.27,2.27,0,0,0,.19-1.24c-.06-.11-.22-.18-.47-.32Zm-4.6,6.19a7.89,7.89,0,0,1-4.5-1.41l-3.14,1,1-3.16a8.71,8.71,0,0,1-1.56-5,8.18,8.18,0,1,1,8.17,8.52Zm0-18.75a10,10,0,0,0-9.82,10.23,10.51,10.51,0,0,0,1.41,5.28l-1.77,5.49,5.44-1.81a9.47,9.47,0,0,0,4.75,1.27,10.24,10.24,0,0,0,0-20.46Z"/><polygon class="cls-12" points="1340.19 116.67 1337.77 141.07 1308.63 141.07 1306.67 117.14 1323.2 126.41 1340.19 116.67"/><polygon class="cls-12" points="1339.37 112.07 1323.2 127.29 1307.03 112.07 1323.2 112.07 1339.37 112.07"/><path class="cls-13" d="M1308.63,119.1v22H1306a1.79,1.79,0,0,1-1.79-1.79V115.86l2.89.08Z"/><path class="cls-14" d="M1342.2,115.86v23.41a1.79,1.79,0,0,1-1.79,1.79h-2.64v-22l1.46-3.46Z"/><path class="cls-13" d="M1342.2,113.87v2l-4.43,3.24-14.57,10.64-14.57-10.64-4.43-3.24v-2a1.79,1.79,0,0,1,1.79-1.79h1l16.17,11.81,16.17-11.81h1A1.79,1.79,0,0,1,1342.2,113.87Z"/><polygon class="cls-14" points="1308.63 119.1 1304.2 118.41 1304.2 115.86 1308.63 119.1"/><path class="cls-15" d="M1238.4,139.05c11.59,0,17.93-9.6,17.93-17.93,0-.27,0-.54,0-.81a12.82,12.82,0,0,0,3.14-3.26,12.58,12.58,0,0,1-3.62,1,6.32,6.32,0,0,0,2.77-3.49,12.63,12.63,0,0,1-4,1.53,6.31,6.31,0,0,0-10.74,5.75,17.89,17.89,0,0,1-13-6.58,6.31,6.31,0,0,0,2,8.41,6.26,6.26,0,0,1-2.85-.79s0,.05,0,.08a6.31,6.31,0,0,0,5.06,6.18,6.3,6.3,0,0,1-2.85.11,6.31,6.31,0,0,0,5.89,4.38,12.65,12.65,0,0,1-7.83,2.7,12.81,12.81,0,0,1-1.5-.09A17.84,17.84,0,0,0,1238.4,139.05Z"/><path id="White" class="cls-16" d="M1167.55,111.57h-26.69a1.66,1.66,0,0,0-1.66,1.66v26.69a1.66,1.66,0,0,0,1.66,1.66h14.37V130h-3.91v-4.53h3.91v-3.34c0-3.87,2.37-6,5.82-6a32.08,32.08,0,0,1,3.49.18v4h-2.4c-1.88,0-2.24.89-2.24,2.2v2.89h4.48l-.58,4.53h-3.9v11.62h7.64a1.66,1.66,0,0,0,1.66-1.66V113.23A1.66,1.66,0,0,0,1167.55,111.57Z"/></svg>