<?xml version="1.0" encoding="utf-8"?>
<!-- Generator: Adobe Illustrator 21.0.1, SVG Export Plug-In . SVG Version: 6.00 Build 0)  -->
<svg version="1.1" id="Слой_1" xmlns="http://www.w3.org/2000/svg" xmlns:xlink="http://www.w3.org/1999/xlink" x="0px" y="0px"
	 width="1500px" height="1500px" viewBox="0 0 1500 1500" style="enable-background:new 0 0 1500 1500;" xml:space="preserve">
<style type="text/css">
	.st0{fill:#0066CC;}
	.st1{fill:#FFFFFF;}
	.st2{fill:#929292;}
	.st3{fill:#535353;}
	.st4{fill:#CC0033;}
	.st5{fill:#7AADE0;}
	.st6{fill:#F2F2F2;}
	.st7{fill:#F14336;}
	.st8{fill:#D32E2A;}
	.st9{fill:#38A3DB;}
	.st10{fill:#3C5A99;}
</style>
<title>All icon</title>
<rect x="-0.2" y="3.5" class="st0" width="200" height="1500"/>
<rect x="186.6" y="1302.2" class="st0" width="1313.4" height="200"/>
<path class="st0" d="M249.1,452.8c-6.3,0-11.5-5.1-11.5-11.5c0-6.3,5.1-11.5,11.5-11.5c6.3,0,11.5,5.1,11.5,11.5c0,3-1.2,6-3.4,8.1
	C255.1,451.6,252.2,452.8,249.1,452.8z M249.1,431.8c-5.2,0-9.5,4.3-9.5,9.5s4.3,9.5,9.5,9.5s9.5-4.3,9.5-9.5c0-2.5-1-4.9-2.8-6.7
	C254.1,432.8,251.7,431.8,249.1,431.8L249.1,431.8z"/>
<path class="st0" d="M262.7,455.8c-0.3,0-0.5-0.1-0.7-0.3l-6.1-6.1c-0.4-0.4-0.5-1-0.1-1.4s1-0.5,1.4-0.1l0.1,0.1l6.1,6.1
	c0.4,0.4,0.4,1,0,1.4C263.2,455.7,262.9,455.8,262.7,455.8L262.7,455.8z"/>
<path class="st0" d="M345.1,503.3h-22.8c-0.6,0-1-0.4-1-1V490h-4.6c-0.6,0-1-0.5-1-1c0-0.3,0.1-0.6,0.4-0.8l17-13.5
	c0.4-0.3,0.9-0.3,1.2,0l3.8,3c0.4,0.3,0.5,1,0.2,1.4s-1,0.5-1.4,0.2l-3.2-2.5L319.5,488h2.8c0.6,0,1,0.4,1,1v12.2h20.9V489
	c0-0.6,0.4-1,1-1h2.8l-3.6-2.9c-0.4-0.3-0.5-1-0.2-1.4s1-0.5,1.4-0.2l5.9,4.7c0.4,0.3,0.5,1,0.2,1.4c-0.2,0.2-0.5,0.4-0.8,0.4h-4.6
	v12.2C346.1,502.8,345.7,503.2,345.1,503.3C345.1,503.2,345.1,503.2,345.1,503.3z"/>
<path class="st0" d="M331.9,495.8c-0.3,0-0.6-0.1-0.8-0.3l-6.1-7c-0.4-0.4-0.3-1,0.1-1.4l0,0l17.4-14c0.4-0.3,1-0.3,1.4,0.1l6.1,7
	c0.4,0.4,0.3,1-0.1,1.4l0,0l-17.4,14C332.3,495.7,332.1,495.8,331.9,495.8z M327.3,488l4.8,5.5l15.9-12.8l-4.8-5.5L327.3,488z"/>
<path class="st0" d="M332.1,489.9c0.6,0.6,1.4,0.6,2.3-0.1c0.9-0.7,1.1-1.6,0.5-2.2c-0.4-0.5-1-0.6-1.8-0.1l-0.5,0.3
	c-0.4,0.2-0.6,0.2-0.8,0.1c-0.2-0.1-0.1-0.5,0.2-0.8c0.2-0.2,0.6-0.3,0.9,0l0.8-0.6c-0.6-0.6-1.6-0.6-2.2,0.1
	c-0.8,0.7-1,1.5-0.4,2.1c0.4,0.5,1.2,0.6,1.8,0.2l0.5-0.3c0.4-0.2,0.7-0.3,0.8-0.1s0.1,0.5-0.2,0.8c-0.3,0.3-0.7,0.3-1,0.1
	L332.1,489.9L332.1,489.9z M338.6,486.3l-0.8-0.5l-1.1,0.9l0.4,0.9l-0.9,0.7l-1.7-4.2l1.1-0.9l4,2.3L338.6,486.3L338.6,486.3z
	 M335.6,484.4l0.7,1.5l0.8-0.6L335.6,484.4L335.6,484.4L335.6,484.4z M341.8,482.6l-1.4,1.2l-2.2-2.6l-0.9,0.7l2.8,3.3l2.3-1.9
	L341.8,482.6L341.8,482.6z M344.8,480.2l0.6,0.7l-2.3,1.9l-2.8-3.3l2.3-1.9l0.6,0.7l-1.5,1.2l0.6,0.6l1.4-1.1l0.5,0.6l-1.4,1.1
	l0.6,0.7L344.8,480.2z"/>
<path class="st0" d="M261.4,549.3H240c-0.6,0-1-0.4-1-1v-13.8h-4.3c-0.6,0-1-0.4-1-1c0-0.3,0.1-0.5,0.3-0.7l16-15.2
	c0.4-0.4,1-0.4,1.4,0l16,15.2c0.4,0.4,0.4,1,0,1.4c-0.2,0.2-0.5,0.3-0.7,0.3h-4.3v13.8C262.4,548.8,262,549.3,261.4,549.3
	L261.4,549.3z M241,547.3h19.4v-13.8c0-0.6,0.4-1,1-1h2.8l-13.5-12.8l-13.5,12.8h2.8c0.6,0,1,0.4,1,1L241,547.3z"/>
<path class="st0" d="M334.7,567.2c5.5,0,9.9,4.4,9.9,9.9c0,4.7-4,8.5-7.9,12c-0.6,0.6-1.3,1.2-1.9,1.8c-0.7-0.7-1.4-1.3-2.1-2
	c-3.9-3.5-7.9-7.2-7.9-11.9C324.7,571.6,329.2,567.1,334.7,567.2L334.7,567.2 M334.7,582.2c3,0,5.4-2.4,5.4-5.3s-2.4-5.4-5.3-5.4
	c-3,0-5.4,2.4-5.4,5.3l0,0C329.3,579.8,331.7,582.2,334.7,582.2 M334.7,565.1c-6.6,0-11.9,5.3-11.9,11.9c0,5.6,4.4,9.6,8.5,13.4
	c0.9,0.8,1.8,1.7,2.7,2.5l0.8,0.8l0.8-0.8c0.8-0.8,1.7-1.6,2.5-2.4c4.1-3.8,8.5-7.9,8.5-13.5C346.6,570.5,341.2,565.1,334.7,565.1
	L334.7,565.1z M334.7,580.2c-1.9,0-3.4-1.5-3.4-3.3s1.5-3.4,3.3-3.4c1.9,0,3.4,1.5,3.4,3.3v0.1C338,578.7,336.5,580.2,334.7,580.2
	L334.7,580.2z"/>
<path class="st0" d="M236,638.5c-0.6,0-1-0.4-1-1v-23.4c0-0.6,0.4-1,1-1s1,0.4,1,1v23.4C237,638.1,236.6,638.5,236,638.5z"/>
<path class="st0" d="M236,638.5L236,638.5c-0.3,0-0.5-0.1-0.7-0.3l-2.9-2.9c-0.4-0.4-0.4-1,0-1.4s1-0.4,1.4,0l2.1,2.2l2.1-2.2
	c0.4-0.4,1-0.4,1.4,0s0.4,1,0,1.4l-2.9,2.9C236.5,638.4,236.3,638.5,236,638.5z"/>
<path class="st0" d="M233.2,617.3c-0.6,0-1-0.5-1-1c0-0.3,0.1-0.5,0.3-0.7l2.9-2.9c0.2-0.2,0.4-0.3,0.7-0.3l0,0
	c0.3,0,0.5,0.1,0.7,0.3l2.9,2.9c0.4,0.4,0.4,1,0,1.4s-1,0.4-1.4,0l-2.2-2.2l-2.1,2.1C233.7,617.2,233.4,617.3,233.2,617.3z"/>
<path class="st0" d="M268.2,646.5h-23.1c-0.6,0-1-0.4-1-1s0.4-1,1-1h23.1c0.6,0,1,0.4,1,1S268.7,646.5,268.2,646.5z"/>
<path class="st0" d="M265.3,649.4c-0.6,0-1-0.5-1-1c0-0.3,0.1-0.5,0.3-0.7l2.2-2.2l-2.2-2.2c-0.3-0.5-0.1-1.1,0.3-1.4
	c0.3-0.2,0.7-0.2,1.1,0l2.9,2.9c0.4,0.4,0.4,1,0,1.4l-2.9,2.9C265.8,649.3,265.6,649.4,265.3,649.4z"/>
<path class="st0" d="M247.2,649.4c-0.3,0-0.5-0.1-0.7-0.3l-2.9-2.9c-0.4-0.4-0.4-1,0-1.4l2.9-2.9c0.4-0.4,1-0.4,1.4,0s0.4,1,0,1.4
	l-2.2,2.2l2.2,2.2c0.4,0.4,0.4,1,0,1.4C247.7,649.3,247.5,649.4,247.2,649.4L247.2,649.4z"/>
<path class="st0" d="M268.2,638.5h-11.8c-0.6,0-1-0.4-1-1s0.4-1,1-1h10.8v-22.1h-21.8v23.1c0,0.6-0.4,1-1,1s-1-0.4-1-1v-24.1
	c0-0.6,0.4-1,1-1h23.8c0.6,0,1,0.4,1,1v24.1C269.2,638.1,268.7,638.5,268.2,638.5L268.2,638.5z"/>
<path class="st0" d="M268.2,629.9h-11.6c-0.6,0-1-0.4-1-1s0.4-1,1-1h11.6c0.6,0,1,0.4,1,1S268.7,629.9,268.2,629.9z"/>
<path class="st0" d="M256.6,629.9c-0.6,0-1-0.4-1-1v-2.1c0-0.6,0.4-1,1-1s1,0.4,1,1v2.1C257.6,629.5,257.2,629.9,256.6,629.9z"/>
<path class="st0" d="M256.6,632c-0.6,0-1-0.4-1-1v-2.1c0-0.6,0.4-1,1-1s1,0.4,1,1v2.1C257.6,631.6,257.2,632,256.6,632z"/>
<path class="st0" d="M246.4,623h-2c-0.6,0-1-0.4-1-1s0.4-1,1-1h2c0.6,0,1,0.4,1,1S247,623,246.4,623z"/>
<path class="st0" d="M246.4,638.5h-2c-0.6,0-1-0.4-1-1s0.4-1,1-1h2c0.6,0,1,0.4,1,1S247,638.5,246.4,638.5z"/>
<path class="st0" d="M256.6,623h-2c-0.6,0-1-0.4-1-1s0.4-1,1-1h2c0.6,0,1,0.4,1,1S257.2,623,256.6,623z"/>
<path class="st0" d="M256.6,623c-0.6,0-1-0.4-1-1v-8.5c0-0.6,0.4-1,1-1s1,0.4,1,1v8.5C257.6,622.6,257.2,623,256.6,623z"/>
<path class="st0" d="M351.7,703.6h-7.1v-3.1c0-0.8-0.7-1.5-1.5-1.5l0,0h-22.7c-0.8,0-1.5,0.7-1.5,1.5v3.1h-7.1v-10.3
	c0-3,2.4-5.4,5.4-5.4h29.2c3,0,5.4,2.4,5.4,5.4L351.7,703.6z M346.5,701.6h3.1v-8.3c0-1.9-1.5-3.4-3.4-3.4H317
	c-1.9,0-3.4,1.5-3.4,3.4v8.3h3.1v-1.1c0-1.9,1.6-3.5,3.5-3.5l0,0H343c1.9,0,3.5,1.6,3.5,3.5V701.6z"/>
<path class="st0" d="M345.2,688.9h-2v-2.1c0-0.9-0.7-1.6-1.6-1.6h-7.4c-0.9,0-1.6,0.7-1.6,1.6v2h-2v-2c0-2,1.6-3.6,3.6-3.6h7.4
	c2,0,3.6,1.6,3.6,3.6V688.9z"/>
<path class="st0" d="M320.1,688.9h-2v-2.1c0-2,1.6-3.6,3.6-3.6h7.4c2,0,3.6,1.6,3.6,3.6v2h-2v-2c0-0.9-0.7-1.6-1.6-1.6h-7.4
	c-0.9,0-1.6,0.7-1.6,1.6V688.9z"/>
<path class="st0" d="M349.2,689.2h-2v-5.8c0-1.5-1.2-2.8-2.8-2.8l0,0h-25.5c-1.5,0-2.8,1.3-2.8,2.8l0,0v5.8h-2v-5.8
	c0-2.6,2.1-4.8,4.8-4.8l0,0h25.5c2.6,0,4.8,2.2,4.8,4.8V689.2z"/>
<path class="st0" d="M256,754.5l-0.3,1.6h-7c0.3,1.1,0.8,2.2,1.6,3c0.9,0.8,2.1,1.3,3.3,1.3c1.3,0,2.6-0.3,3.7-1h0.2v2.2
	c-1.2,0.5-2.5,0.8-3.8,0.8c-1.8,0.1-3.6-0.6-5-1.8c-1.2-1.2-2-2.8-2.3-4.5H245l0.3-1.6h0.8c0-0.3,0-0.6,0-0.9c0-0.2,0-0.4,0-0.7H245
	l0.3-1.6h0.9c0.2-1.8,1.1-3.4,2.4-4.7c1.4-1.3,3.2-1.9,5.1-1.9c1.3,0,2.6,0.3,3.8,0.8v2.2h-0.2c-1.1-0.7-2.3-1.1-3.6-1.1
	s-2.5,0.5-3.4,1.4c-0.8,0.9-1.4,2-1.6,3.2h8l-0.3,1.6h-7.9c0,0.2,0,0.4,0,0.7s0,0.6,0,0.9L256,754.5z"/>
<path class="st0" d="M252,770.6c-9.4,0-17-7.6-17-17s7.6-17,17-17s17,7.6,17,17l0,0C269,763,261.4,770.6,252,770.6z M252,738.6
	c-8.3,0-15,6.7-15,15s6.7,15,15,15c8.3,0,15-6.7,15-15l0,0C267,745.3,260.3,738.6,252,738.6z"/>
<path class="st0" d="M337.7,815.5h-20.3c-0.6,0-1-0.4-1-1s0.4-1,1-1h20.3c0.6,0,1,0.4,1,1S338.2,815.5,337.7,815.5z"/>
<path class="st0" d="M337.7,796.2h-20.3c-0.6,0-1-0.4-1-1s0.4-1,1-1h20.3c0.6,0,1,0.4,1,1S338.2,796.2,337.7,796.2z"/>
<path class="st0" d="M351,815.5h-5.1c-0.6,0-1-0.4-1-1s0.4-1,1-1h5.1c0.6,0,1,0.4,1,1S351.6,815.5,351,815.5z"/>
<path class="st0" d="M351,796.2h-5.1c-0.6,0-1-0.4-1-1s0.4-1,1-1h5.1c0.6,0,1,0.4,1,1S351.6,796.2,351,796.2z"/>
<path class="st0" d="M341.7,800.2c-2.8,0-5-2.2-5-5s2.2-5,5-5s5,2.2,5,5S344.4,800.2,341.7,800.2z M341.7,792.2c-1.7,0-3,1.3-3,3
	s1.3,3,3,3s3-1.3,3-3C344.7,793.6,343.4,792.2,341.7,792.2L341.7,792.2L341.7,792.2z"/>
<path class="st0" d="M341.7,819.5c-2.8,0-5-2.2-5-5s2.2-5,5-5s5,2.2,5,5S344.4,819.5,341.7,819.5z M341.7,811.5c-1.7,0-3,1.3-3,3
	s1.3,3,3,3s3-1.3,3-3C344.7,812.9,343.4,811.5,341.7,811.5L341.7,811.5L341.7,811.5z"/>
<path class="st0" d="M322.4,805.9h-5.1c-0.6,0-1-0.4-1-1s0.4-1,1-1h5.1c0.6,0,1,0.4,1,1S323,805.9,322.4,805.9z"/>
<path class="st0" d="M351,805.9h-20.3c-0.6,0-1-0.4-1-1s0.4-1,1-1H351c0.6,0,1,0.4,1,1S351.6,805.9,351,805.9z"/>
<path class="st0" d="M326.6,809.9c-2.8,0-5-2.2-5-5s2.2-5,5-5s5,2.2,5,5S329.4,809.9,326.6,809.9z M326.6,801.9c-1.7,0-3,1.3-3,3
	s1.3,3,3,3s3-1.3,3-3C329.7,803.2,328.3,801.9,326.6,801.9C326.7,801.8,326.7,801.8,326.6,801.9L326.6,801.9z"/>
<path class="st0" d="M490.1,505.3c-0.6,0-1-0.4-1-1v-10h-5.8v10c0,0.6-0.4,1-1,1s-1-0.4-1-1v-11c0-0.6,0.4-1,1-1h7.8
	c0.6,0,1,0.4,1,1v11C491.1,504.9,490.7,505.3,490.1,505.3z"/>
<path class="st0" d="M498,505.3h-23.5c-0.6,0-1-0.4-1-1v-13.6h-4.8c-0.6,0-1-0.4-1-1c0-0.3,0.1-0.6,0.4-0.8l17.5-15
	c0.4-0.3,0.9-0.3,1.3,0l2.5,2.1c0.4,0.4,0.5,1,0.1,1.4s-1,0.5-1.4,0.1l0,0l-1.9-1.6l-14.8,12.6h3.1c0.6,0,1,0.4,1,1v13.6H497v-13.5
	c0-0.6,0.4-1,1-1h3l-2.8-2.4c-0.4-0.4-0.5-1-0.1-1.4s1-0.5,1.4-0.1l4.9,4.2c0.4,0.4,0.5,1,0.1,1.4c-0.2,0.2-0.5,0.4-0.8,0.4H499
	v13.6C499,504.9,498.6,505.3,498,505.3z"/>
<path class="st0" d="M494,488.8c-4.3,0-7.7-3.4-7.8-7.6c0-4.3,3.4-7.7,7.6-7.8c4.3,0,7.7,3.4,7.8,7.6v0.1
	C501.6,485.3,498.2,488.7,494,488.8z M494,475.3c-3.2,0-5.7,2.5-5.8,5.6c0,3.2,2.5,5.7,5.6,5.8c3.2,0,5.7-2.5,5.8-5.6V481
	C499.6,477.9,497.1,475.4,494,475.3L494,475.3z"/>
<path class="st0" d="M496.7,482.5h-2.9c-0.6,0-1-0.4-1-1v-3.6c0-0.6,0.4-1,1-1s1,0.4,1,1v2.6h1.9c0.6,0,1,0.4,1,1
	S497.3,482.5,496.7,482.5z"/>
<path class="st0" d="M544,506.4h-8c-0.6,0-1-0.4-1-1v-13.5c0-0.6,0.4-1,1-1h8c0.6,0,1,0.4,1,1v13.5C545,505.9,544.6,506.4,544,506.4
	z M537,504.4h6v-11.5h-6V504.4z"/>
<path class="st0" d="M530.1,484.6c-0.6,0-1-0.4-1-1v-4.5c0-0.6,0.4-1,1-1l0,0c0.6,0,1,0.4,1,1v4.5
	C531.1,484.2,530.7,484.6,530.1,484.6z"/>
<path class="st0" d="M552,506.4h-24.1c-0.6,0-1-0.4-1-1v-13.8H522c-0.6,0-1-0.4-1-1c0-0.3,0.1-0.6,0.4-0.8l18-15.2
	c0.4-0.3,0.9-0.3,1.3,0l18,15.2c0.4,0.4,0.5,1,0.1,1.4c-0.2,0.2-0.5,0.4-0.8,0.4h-5v13.8C553,505.9,552.6,506.4,552,506.4z
	 M528.9,504.4H551v-13.8c0-0.6,0.4-1,1-1h3.2L540,476.7l-15.3,12.9h3.2c0.6,0,1,0.4,1,1V504.4z"/>
<path class="st0" d="M610.4,507.7h-32c-0.6,0-1-0.4-1-1v-32c0-0.6,0.4-1,1-1h32c0.6,0,1,0.4,1,1v32
	C611.4,507.2,610.9,507.7,610.4,507.7z M579.4,505.7h30v-30h-30V505.7z"/>
<path class="st0" d="M584.3,493.3c-0.6,0-1-0.4-1-1v-2.1c0-0.6,0.4-1,1-1s1,0.4,1,1v2.1C585.3,492.9,584.9,493.3,584.3,493.3z"/>
<path class="st0" d="M598.2,493.3c-0.6,0-1-0.4-1-1v-2.1c0-0.6,0.4-1,1-1s1,0.4,1,1v2.1C599.2,492.9,598.7,493.3,598.2,493.3z"/>
<path class="st0" d="M604.5,493.3c-0.6,0-1-0.4-1-1v-2.1c0-0.6,0.4-1,1-1s1,0.4,1,1v2.1C605.5,492.9,605,493.3,604.5,493.3z"/>
<path class="st0" d="M584.3,484.3c-0.6,0-1-0.4-1-1v-2.1c0-0.6,0.4-1,1-1s1,0.4,1,1v2.1C585.3,483.9,584.9,484.3,584.3,484.3z"/>
<path class="st0" d="M598.2,484.3c-0.6,0-1-0.4-1-1v-2.1c0-0.6,0.4-1,1-1s1,0.4,1,1v2.1C599.2,483.9,598.7,484.3,598.2,484.3z"/>
<path class="st0" d="M604.5,484.3c-0.6,0-1-0.4-1-1v-2.1c0-0.6,0.4-1,1-1s1,0.4,1,1v2.1C605.5,483.9,605,484.3,604.5,484.3z"/>
<path class="st0" d="M584.3,501.2c-0.6,0-1-0.4-1-1V498c0-0.6,0.4-1,1-1s1,0.4,1,1v2.1C585.3,500.7,584.9,501.2,584.3,501.2z"/>
<path class="st0" d="M591.2,493.3c-0.6,0-1-0.4-1-1v-2.1c0-0.6,0.4-1,1-1s1,0.4,1,1v2.1C592.2,492.9,591.8,493.3,591.2,493.3z"/>
<path class="st0" d="M591.2,484.3c-0.6,0-1-0.4-1-1v-2.1c0-0.6,0.4-1,1-1s1,0.4,1,1v2.1C592.2,483.9,591.8,484.3,591.2,484.3z"/>
<path class="st0" d="M604.5,501.2c-0.6,0-1-0.4-1-1V498c0-0.6,0.4-1,1-1s1,0.4,1,1v2.1C605.5,500.7,605,501.2,604.5,501.2z"/>
<path class="st0" d="M597.9,507.4c-0.6,0-1-0.4-1-1v-7.3h-4.3v7.3c0,0.6-0.4,1-1,1c-0.6,0-1-0.4-1-1v-8.3c0-0.6,0.4-1,1-1h6.3
	c0.6,0,1,0.4,1,1v8.3C598.9,507,598.5,507.4,597.9,507.4z"/>
<path class="st0" d="M653.1,498.3c-1.5,0-3-0.8-3.9-2c-0.9,1.2-2.3,2-3.9,2c-2.8-0.1-5-2.4-4.9-5.2c0-1.3,0.5-2.6,1.4-3.6
	c-0.1-0.5-0.2-1-0.2-1.6c0-4.2,3.4-7.6,7.6-7.6s7.6,3.4,7.6,7.6c0,0.5-0.1,1.1-0.2,1.6c0.9,1,1.3,2.2,1.3,3.5
	C658.1,495.8,655.9,498.1,653.1,498.3z M649.4,493.6c0.4,0,0.8,0.3,0.9,0.7c0.4,1.2,1.5,2,2.7,2c1.7-0.1,3-1.5,2.9-3.2
	c0-1-0.4-1.9-1.1-2.5c-0.3-0.2-0.4-0.6-0.3-1c0.2-0.5,0.2-1.1,0.2-1.6c0-3.1-2.5-5.6-5.6-5.6c-3.1,0-5.6,2.5-5.6,5.6
	c0,0.5,0.1,1.1,0.2,1.6c0.1,0.4,0,0.8-0.3,1c-0.7,0.6-1.1,1.6-1.1,2.5c-0.1,1.7,1.2,3.1,2.9,3.2c1.2,0,2.3-0.8,2.7-2
	c0.2-0.4,0.6-0.7,1-0.7H649.4L649.4,493.6z"/>
<path class="st0" d="M649.2,503.1c-0.6,0-1-0.4-1-1v-13.2c0-0.6,0.4-1,1-1s1,0.4,1,1v13.2C650.2,502.6,649.8,503.1,649.2,503.1z"/>
<path class="st0" d="M649.2,494.6L649.2,494.6c-0.3,0-0.5-0.1-0.7-0.3l-2.5-2.5c-0.4-0.4-0.4-1,0-1.4s1-0.4,1.4,0l1.8,1.8l1.8-1.8
	c0.4-0.4,1-0.4,1.4,0s0.4,1,0,1.4l-2.5,2.5C649.7,494.5,649.5,494.6,649.2,494.6z"/>
<path class="st0" d="M665.2,508.6h-32c-0.6,0-1-0.4-1-1v-32c0-0.6,0.4-1,1-1h32c0.6,0,1,0.4,1,1v32
	C666.2,508.2,665.8,508.6,665.2,508.6z M634.2,506.6h30v-30h-30V506.6z"/>
<path class="st0" d="M682.2,507.5c-0.6,0-1-0.4-1-1V501c0-0.6,0.4-1,1-1h2l1-1.3c0.2-0.2,0.5-0.4,0.8-0.4h1.7l1.8-2.5
	c0.2-0.3,0.5-0.4,0.8-0.4H701c2.5,0.2,4.9,1.2,6.7,3h6.4c0.6,0,1,0.4,1,1c0,0.1,0,0.2-0.1,0.3c-1.7,5.1-4.7,7.7-9.1,7.9L682.2,507.5
	z M683.2,505.5h22.9c3.1-0.1,5.3-1.8,6.7-5.2h-5.4c-0.2,0-0.5-0.1-0.7-0.3c-1.5-1.5-3.5-2.5-5.7-2.7h-10.2l-1.8,2.5
	c-0.2,0.3-0.5,0.4-0.8,0.4h-1.8l-1,1.3c-0.2,0.2-0.5,0.4-0.8,0.4h-1.5L683.2,505.5z"/>
<path class="st0" d="M712.2,495h-16.5c-0.6,0-1-0.4-1-1s0.4-1,1-1H710l-15-17.8c-0.4-0.4-0.3-1.1,0.1-1.4c0.4-0.4,1.1-0.3,1.4,0.1
	l16.5,19.5c0.4,0.4,0.3,1.1-0.1,1.4C712.7,494.9,712.5,495,712.2,495L712.2,495z"/>
<path class="st0" d="M695.7,493.7h-10.3c-0.6,0-1-0.4-1-1c0-0.2,0-0.3,0.1-0.5l10.3-18.2c0.3-0.5,0.9-0.6,1.4-0.4s0.6,0.9,0.4,1.4
	l0,0l-9.5,16.7h8.6c0.6,0,1,0.4,1,1S696.3,493.7,695.7,493.7L695.7,493.7z"/>
<path class="st0" d="M695.7,497.4c-0.6,0-1-0.4-1-1v-21.5c0-0.6,0.4-1,1-1s1,0.4,1,1v21.5C696.7,496.9,696.3,497.4,695.7,497.4z"/>
<path class="st0" d="M707.4,500.3h-15.5c-0.6,0-1-0.4-1-1s0.4-1,1-1h15.5c0.6,0,1,0.4,1,1S708,500.3,707.4,500.3z"/>
<path class="st1" d="M132.2,460.1c-6.3,0-11.5-5.1-11.5-11.5c0-6.3,5.1-11.5,11.5-11.5c6.3,0,11.5,5.1,11.5,11.5c0,3-1.2,6-3.4,8.1
	C138.2,458.9,135.2,460.1,132.2,460.1z M132.2,439.1c-5.2,0-9.5,4.3-9.5,9.5s4.3,9.5,9.5,9.5s9.5-4.3,9.5-9.5c0-2.5-1-4.9-2.8-6.7
	C137.1,440.1,134.7,439.1,132.2,439.1L132.2,439.1z"/>
<path class="st1" d="M145.7,463.1c-0.3,0-0.5-0.1-0.7-0.3l-6.1-6.1c-0.4-0.4-0.3-1.1,0.1-1.4c0.4-0.3,0.9-0.3,1.3,0l6.1,6.1
	c0.4,0.4,0.4,1,0,1.4C146.2,463,145.9,463.1,145.7,463.1L145.7,463.1z"/>
<path class="st1" d="M76.1,510.6H53.2c-0.6,0-1-0.4-1-1v-12.2h-4.6c-0.6,0-1-0.5-1-1c0-0.3,0.1-0.6,0.4-0.8L64.1,482
	c0.4-0.3,0.9-0.3,1.2,0l3.8,3c0.4,0.3,0.5,1,0.2,1.4s-1,0.5-1.4,0.2l0,0l-3.2-2.5l-14.2,11.3h2.8c0.6,0,1,0.4,1,1v12.2h20.8v-12.2
	c0-0.6,0.4-1,1-1h2.8l-3.6-2.9c-0.4-0.3-0.5-1-0.2-1.4s1-0.5,1.4-0.2l5.9,4.7c0.4,0.3,0.5,1,0.2,1.4c-0.2,0.2-0.5,0.4-0.8,0.4h-4.6
	v12.2C77.1,510.1,76.7,510.6,76.1,510.6L76.1,510.6z"/>
<path class="st1" d="M62.9,503.2c-0.3,0-0.6-0.1-0.8-0.3l-6.1-7c-0.4-0.4-0.3-1,0.1-1.4l0,0l17.4-14.1c0.4-0.3,1-0.3,1.4,0.1l6.1,7
	c0.4,0.4,0.3,1-0.1,1.4l0,0L63.6,503C63.4,503.1,63.1,503.2,62.9,503.2z M58.3,495.3l4.8,5.5L79,488l-4.8-5.5L58.3,495.3z"/>
<path class="st1" d="M63.2,497.3c0.6,0.6,1.4,0.6,2.3-0.1s1.1-1.6,0.5-2.2c-0.4-0.5-1-0.6-1.8-0.1l-0.5,0.3
	c-0.4,0.2-0.6,0.2-0.8,0.1s-0.1-0.5,0.2-0.8c0.2-0.2,0.6-0.3,0.9,0l0.8-0.6c-0.6-0.6-1.6-0.6-2.2,0.1c-0.8,0.7-1,1.5-0.4,2.1
	c0.4,0.5,1.2,0.6,1.8,0.2l0.5-0.3c0.4-0.2,0.7-0.3,0.8-0.1s0.1,0.5-0.2,0.8s-0.7,0.3-1,0.1L63.2,497.3L63.2,497.3z M69.6,493.6
	l-0.8-0.5l-1.1,0.9l0.4,0.9l-0.9,0.7l-1.7-4.2l1.1-0.9l4,2.3L69.6,493.6L69.6,493.6z M66.6,491.8l0.7,1.5l0.8-0.6L66.6,491.8
	L66.6,491.8L66.6,491.8z M72.8,489.9l-1.4,1.2l-2.2-2.6l-0.9,0.7l2.8,3.3l2.3-1.9L72.8,489.9L72.8,489.9z M75.8,487.5l0.6,0.7
	l-2.4,1.9l-2.8-3.3l2.3-1.9l0.6,0.7l-1.5,1.2l0.6,0.6l1.4-1.1l0.5,0.6l-1.4,1.1l0.6,0.7L75.8,487.5z"/>
<path class="st1" d="M144.4,556.6H123c-0.6,0-1-0.4-1-1v-13.8h-4.3c-0.6,0-1-0.4-1-1c0-0.3,0.1-0.5,0.3-0.7l16-15.2
	c0.4-0.4,1-0.4,1.4,0l16,15.2c0.4,0.4,0.4,1,0,1.4c-0.2,0.2-0.5,0.3-0.7,0.3h-4.3v13.8C145.4,556.2,145,556.6,144.4,556.6z
	 M124,554.6h19.4v-13.8c0-0.6,0.4-1,1-1h2.8L133.7,527l-13.5,12.8h2.8c0.6,0,1,0.4,1,1V554.6z"/>
<path class="st1" d="M62.7,574.5c5.5,0,9.9,4.4,9.9,9.9c0,4.7-4,8.5-7.9,12c-0.6,0.6-1.3,1.2-1.9,1.8c-0.7-0.7-1.4-1.3-2.1-2
	c-3.9-3.5-7.9-7.2-7.9-11.9C52.8,578.9,57.2,574.5,62.7,574.5L62.7,574.5 M62.7,589.5c3,0,5.4-2.4,5.4-5.3c0-3-2.4-5.4-5.3-5.4
	c-3,0-5.4,2.4-5.4,5.3l0,0C57.4,587.1,59.7,589.5,62.7,589.5 M62.7,572.5c-6.6,0-11.9,5.3-11.9,11.9c0,5.6,4.4,9.6,8.5,13.4
	c0.9,0.8,1.8,1.7,2.7,2.5l0.8,0.8l0.8-0.8c0.8-0.8,1.7-1.6,2.5-2.4c4.1-3.8,8.6-7.9,8.6-13.5C74.6,577.8,69.3,572.5,62.7,572.5
	L62.7,572.5L62.7,572.5z M62.7,587.5c-1.9,0-3.4-1.5-3.4-3.3c0-1.9,1.5-3.4,3.3-3.4c1.9,0,3.4,1.5,3.4,3.3l0,0
	C66,586,64.5,587.5,62.7,587.5z"/>
<path class="st1" d="M119,645.9c-0.6,0-1-0.4-1-1v-23.4c0-0.6,0.4-1,1-1s1,0.4,1,1v23.4C120,645.4,119.6,645.9,119,645.9L119,645.9z
	"/>
<path class="st1" d="M119,645.9L119,645.9c-0.3,0-0.5-0.1-0.7-0.3l-2.9-2.9c-0.4-0.4-0.4-1,0-1.4s1-0.4,1.4,0l2.1,2.2l2.1-2.2
	c0.4-0.4,1-0.4,1.4,0s0.4,1,0,1.4l-2.9,2.9C119.5,645.8,119.3,645.9,119,645.9z"/>
<path class="st1" d="M116.2,624.7c-0.6,0-1-0.5-1-1c0-0.3,0.1-0.5,0.3-0.7l2.9-2.9c0.2-0.2,0.4-0.3,0.7-0.3l0,0
	c0.3,0,0.5,0.1,0.7,0.3l2.9,2.9c0.4,0.4,0.4,1,0,1.4s-1,0.4-1.4,0l0,0l-2.2-2.2l-2.2,2.2C116.7,624.6,116.4,624.7,116.2,624.7z"/>
<path class="st1" d="M151.2,653.9h-23.1c-0.6,0-1-0.4-1-1s0.4-1,1-1h23.1c0.6,0,1,0.4,1,1S151.7,653.9,151.2,653.9z"/>
<path class="st1" d="M148.3,656.8c-0.6,0-1-0.5-1-1c0-0.3,0.1-0.5,0.3-0.7l2.2-2.2l-2.2-2.2c-0.3-0.4-0.2-1.1,0.2-1.4
	c0.3-0.3,0.8-0.3,1.2,0l2.9,2.9c0.4,0.4,0.4,1,0,1.4l-2.9,2.9C148.8,656.7,148.6,656.8,148.3,656.8z"/>
<path class="st1" d="M130.3,656.8c-0.3,0-0.5-0.1-0.7-0.3l-2.9-2.9c-0.4-0.4-0.4-1,0-1.4l2.9-2.9c0.4-0.4,1-0.4,1.4,0s0.4,1,0,1.4
	l-2.2,2.2l2.2,2.2c0.4,0.4,0.4,1,0,1.4C130.8,656.7,130.5,656.8,130.3,656.8L130.3,656.8z"/>
<path class="st1" d="M151.2,645.9h-11.8c-0.6,0-1-0.4-1-1s0.4-1,1-1h10.8v-22.1h-21.8v23.1c0,0.6-0.4,1-1,1s-1-0.4-1-1v-24.1
	c0-0.6,0.4-1,1-1h23.8c0.6,0,1,0.4,1,1v24.1C152.2,645.4,151.7,645.9,151.2,645.9z"/>
<path class="st1" d="M151.2,637.3h-11.6c-0.6,0-1-0.4-1-1s0.4-1,1-1h11.6c0.6,0,1,0.4,1,1S151.7,637.3,151.2,637.3z"/>
<path class="st1" d="M139.6,637.3c-0.6,0-1-0.4-1-1v-2.1c0-0.6,0.4-1,1-1s1,0.4,1,1v2.1C140.6,636.8,140.2,637.3,139.6,637.3z"/>
<path class="st1" d="M139.6,639.3c-0.6,0-1-0.4-1-1v-2.1c0-0.6,0.4-1,1-1s1,0.4,1,1v2.1C140.6,638.9,140.2,639.3,139.6,639.3z"/>
<path class="st1" d="M129.4,630.3h-2c-0.6,0-1-0.4-1-1s0.4-1,1-1h2c0.6,0,1,0.4,1,1S130,630.3,129.4,630.3z"/>
<path class="st1" d="M129.4,645.9h-2c-0.6,0-1-0.4-1-1s0.4-1,1-1h2c0.6,0,1,0.4,1,1S130,645.9,129.4,645.9z"/>
<path class="st1" d="M139.6,630.3h-2c-0.6,0-1-0.4-1-1s0.4-1,1-1h2c0.6,0,1,0.4,1,1S140.2,630.3,139.6,630.3z"/>
<path class="st1" d="M139.6,630.3c-0.6,0-1-0.4-1-1v-8.5c0-0.6,0.4-1,1-1s1,0.4,1,1v8.5C140.6,629.9,140.2,630.3,139.6,630.3z"/>
<path class="st1" d="M78.7,711h-7.1v-3.1c0-0.8-0.7-1.5-1.5-1.5H47.4c-0.8,0-1.5,0.7-1.5,1.5v3.1h-7.2v-10.3c0-3,2.4-5.4,5.4-5.4
	h29.2c3,0,5.4,2.4,5.4,5.4V711z M73.5,709h3.1v-8.3c0-1.9-1.5-3.4-3.4-3.4H44c-1.9,0-3.4,1.5-3.4,3.4v8.3h3.2v-1.1
	c0-1.9,1.6-3.5,3.5-3.5H70c1.9,0,3.5,1.6,3.5,3.5L73.5,709z"/>
<path class="st1" d="M72.3,696.2h-2v-2.1c0-0.9-0.7-1.6-1.6-1.6h-7.4c-0.9,0-1.6,0.7-1.6,1.6v2h-2v-2c0-2,1.6-3.6,3.6-3.6h7.4
	c2,0,3.6,1.6,3.6,3.6V696.2z"/>
<path class="st1" d="M47.1,696.2h-2v-2.1c0-2,1.6-3.6,3.6-3.6h7.4c2,0,3.6,1.6,3.6,3.6v2h-2v-2c0-0.9-0.7-1.6-1.6-1.6h-7.4
	c-0.9,0-1.6,0.7-1.6,1.6L47.1,696.2z"/>
<path class="st1" d="M76.2,696.6h-2v-5.8c0-1.5-1.2-2.8-2.8-2.8l0,0H45.9c-1.5,0-2.8,1.3-2.8,2.8l0,0v5.8h-2v-5.8
	c0-2.6,2.1-4.8,4.8-4.8h25.5c2.6,0,4.8,2.2,4.8,4.8l0,0V696.6z"/>
<path class="st1" d="M139,761.9l-0.3,1.6h-7c0.3,1.1,0.8,2.2,1.6,3c0.9,0.8,2.1,1.3,3.3,1.3c1.3,0,2.6-0.3,3.7-1h0.2v2.2
	c-1.2,0.5-2.5,0.8-3.8,0.8c-1.8,0.1-3.6-0.6-5-1.8c-1.2-1.2-2-2.8-2.3-4.5H128l0.3-1.6h0.8c0-0.3,0-0.6,0-0.9c0-0.2,0-0.4,0-0.7H128
	l0.3-1.6h0.9c0.2-1.8,1.1-3.4,2.4-4.7c1.4-1.3,3.2-1.9,5.1-1.9c1.3,0,2.6,0.3,3.8,0.8v2.2h-0.2c-1.1-0.7-2.3-1.1-3.6-1.1
	s-2.5,0.5-3.4,1.4c-0.8,0.9-1.4,2-1.6,3.2h8l-0.3,1.6h-7.9c0,0.2,0,0.4,0,0.7s0,0.6,0,0.9L139,761.9z"/>
<path class="st1" d="M135,778c-9.4,0-17-7.6-17-17s7.6-17,17-17s17,7.6,17,17l0,0C152,770.4,144.4,778,135,778z M135,746
	c-8.3,0-15,6.7-15,15s6.7,15,15,15s15-6.7,15-15l0,0C150,752.7,143.3,746,135,746z"/>
<path class="st1" d="M62.7,822.8H42.4c-0.6,0-1-0.4-1-1s0.4-1,1-1h20.3c0.6,0,1,0.4,1,1S63.2,822.8,62.7,822.8L62.7,822.8z"/>
<path class="st1" d="M62.7,803.6H42.4c-0.6,0-1-0.4-1-1s0.4-1,1-1h20.3c0.6,0,1,0.4,1,1S63.2,803.6,62.7,803.6L62.7,803.6z"/>
<path class="st1" d="M76,822.8h-5.1c-0.6,0-1-0.4-1-1s0.4-1,1-1H76c0.6,0,1,0.4,1,1S76.6,822.8,76,822.8z"/>
<path class="st1" d="M76,803.6h-5.1c-0.6,0-1-0.4-1-1s0.4-1,1-1H76c0.6,0,1,0.4,1,1S76.6,803.6,76,803.6z"/>
<path class="st1" d="M66.7,807.6c-2.8,0-5-2.2-5-5s2.2-5,5-5s5,2.2,5,5S69.5,807.6,66.7,807.6z M66.7,799.6c-1.7,0-3,1.3-3,3
	s1.3,3,3,3s3-1.3,3-3C69.7,800.9,68.4,799.6,66.7,799.6C66.7,799.6,66.7,799.5,66.7,799.6L66.7,799.6z"/>
<path class="st1" d="M66.7,826.8c-2.8,0-5-2.2-5-5s2.2-5,5-5s5,2.2,5,5S69.5,826.8,66.7,826.8z M66.7,818.8c-1.7,0-3,1.3-3,3
	s1.3,3,3,3s3-1.3,3-3C69.7,820.2,68.4,818.8,66.7,818.8L66.7,818.8L66.7,818.8z"/>
<path class="st1" d="M47.5,813.2h-5.1c-0.6,0-1-0.4-1-1s0.4-1,1-1h5.1c0.6,0,1,0.4,1,1S48,813.2,47.5,813.2z"/>
<path class="st1" d="M76,813.2H55.7c-0.6,0-1-0.4-1-1s0.4-1,1-1H76c0.6,0,1,0.4,1,1S76.6,813.2,76,813.2z"/>
<path class="st1" d="M51.7,817.2c-2.8,0-5-2.2-5-5s2.2-5,5-5s5,2.2,5,5S54.4,817.2,51.7,817.2z M51.7,809.2c-1.7,0-3,1.3-3,3
	s1.3,3,3,3s3-1.3,3-3C54.7,810.6,53.4,809.2,51.7,809.2L51.7,809.2L51.7,809.2z"/>
<path class="st1" d="M76.5,943.7c-0.1,0-0.3,0-0.4-0.1l-11.3-4.7l-11.3,4.7c-0.2,0.1-0.5,0.1-0.8,0L41,938.8
	c-0.4-0.2-0.6-0.5-0.6-0.9v-25.3c0-0.6,0.5-1,1-1c0.1,0,0.3,0,0.4,0.1l11.3,4.7l2.9-1.2c0.5-0.2,1.1,0,1.3,0.5s0,1.1-0.5,1.3l0,0
	l-3.3,1.4c-0.2,0.1-0.5,0.1-0.8,0l-10.3-4.3v23.2l10.7,4.4l11.3-4.7c0.2-0.1,0.5-0.1,0.8,0l10.3,4.3V918l-2.7-1.1
	c-0.5-0.2-0.8-0.8-0.5-1.3c0.2-0.5,0.8-0.8,1.3-0.5l3.3,1.4c0.4,0.2,0.6,0.5,0.6,0.9v25.3C77.5,943.2,77.1,943.7,76.5,943.7
	L76.5,943.7z"/>
<path class="st1" d="M64.8,933.9L64.8,933.9c-0.3,0-0.6-0.2-0.8-0.4c-1.7-2.4-5.9-9.2-7.7-13.8c-0.7-1.8-1-3.7-0.6-5.6
	c1.1-5.1,6.1-8.3,11.1-7.2c3.6,0.8,6.4,3.6,7.2,7.2c0.3,1.9,0.1,3.8-0.6,5.6c-1.8,4.6-6,11.4-7.7,13.8
	C65.5,933.8,65.2,933.9,64.8,933.9z M64.8,908.7c-3.5-0.2-6.6,2.3-7.2,5.8l0,0c-0.2,1.5-0.1,3.1,0.5,4.5c1.9,4.2,4.1,8.3,6.6,12.1
	c2.6-3.8,4.8-7.9,6.7-12.1c0.6-1.4,0.8-3,0.5-4.5C71.4,911,68.3,908.6,64.8,908.7z"/>
<path class="st1" d="M65,920c-2,0-3.7-1.7-3.7-3.7s1.7-3.7,3.7-3.7s3.7,1.7,3.7,3.7S67,920,65,920L65,920z M65,914.6
	c-0.9,0-1.7,0.8-1.7,1.7s0.8,1.7,1.7,1.7s1.7-0.8,1.7-1.7C66.7,915.4,65.9,914.6,65,914.6L65,914.6z"/>
<path class="st1" d="M150.6,1025.7h-27.1c-1.3,0-2.3-1-2.3-2.3v-17.1c0-1.3,1-2.3,2.3-2.3h27.1c1.3,0,2.3,1,2.3,2.3v17.1
	C152.9,1024.7,151.9,1025.7,150.6,1025.7L150.6,1025.7z M123.5,1006c-0.2,0-0.3,0.1-0.3,0.3v17.1c0,0.2,0.1,0.3,0.3,0.3h27.1
	c0.2,0,0.3-0.2,0.3-0.3v-17.1c0-0.2-0.1-0.3-0.3-0.3H123.5z"/>
<path class="st1" d="M137,1018.3c-0.2,0-0.4-0.1-0.6-0.2l-14.3-11.3c-0.4-0.3-0.5-1-0.2-1.4s1-0.5,1.4-0.2L137,1016l13.7-10.8
	c0.4-0.3,1.1-0.3,1.4,0.2c0.3,0.4,0.3,1.1-0.2,1.4l0,0l-14.3,11.3C137.4,1018.2,137.2,1018.3,137,1018.3z"/>
<path class="st1" d="M136.4,891.1c-0.6,0-1-0.4-1-1v-12.5L124.9,863c-0.3-0.4-0.2-1.1,0.2-1.4c0.2-0.1,0.4-0.2,0.6-0.2h28.5
	c0.6,0,1,0.5,1,1c0,0.2-0.1,0.4-0.2,0.6l-10.5,14.6v8.4c0,0.4-0.2,0.7-0.5,0.9l-7.1,4C136.8,891.1,136.6,891.1,136.4,891.1z
	 M127.7,863.5l9.6,13.2c0.1,0.2,0.2,0.4,0.2,0.6v11.1l5.1-2.9v-8.2c0-0.2,0.1-0.4,0.2-0.6l9.6-13.2L127.7,863.5L127.7,863.5z"/>
<path class="st1" d="M59.1,1045.7c1.8,0,3.4,1.2,4.6,3.3c0.5,1,1.7,1.3,2.7,0.8c0.4-0.2,0.6-0.5,0.8-0.8c1.1-2.1,2.8-3.3,4.6-3.3
	c1.2,0,2.4,0.6,3.2,1.5c1.1,1.3,1.6,3,1.4,4.6c-0.4,4.5-7.4,9.9-11,12.4c-3.6-2.5-10.6-7.9-11-12.4c-0.2-1.7,0.3-3.4,1.4-4.6
	C56.7,1046.3,57.8,1045.7,59.1,1045.7 M71.7,1043.7c-2.3,0-4.7,1.3-6.3,4.4c-1.6-3.1-4-4.4-6.3-4.4c-3.7,0-7,3.3-6.6,8.3
	c0.5,5.8,8.6,11.7,13,14.7c4.3-3,12.5-8.9,13-14.7C78.8,1047,75.4,1043.7,71.7,1043.7L71.7,1043.7z"/>
<rect x="131.6" y="1081.2" transform="matrix(0.8487 -0.5289 0.5289 0.8487 -551.4941 236.6628)" class="st1" width="12.5" height="2"/>
<rect x="136.8" y="1085.3" transform="matrix(0.5289 -0.8487 0.8487 0.5289 -861.4736 631.1901)" class="st1" width="2" height="12.5"/>
<path class="st1" d="M145.9,1100.5c-2.3,0-4.2-1.9-4.2-4.2c0-2.3,1.9-4.2,4.2-4.2s4.2,1.9,4.2,4.2
	C150.1,1098.6,148.2,1100.5,145.9,1100.5z M145.9,1094.1c-1.2,0-2.2,1-2.2,2.2s1,2.2,2.2,2.2s2.2-1,2.2-2.2
	C148.1,1095.1,147.1,1094.1,145.9,1094.1z"/>
<path class="st1" d="M129.6,1091.1c-2.3,0-4.2-1.9-4.2-4.2c0-2.3,1.9-4.2,4.2-4.2c2.3,0,4.2,1.9,4.2,4.2S132,1091.1,129.6,1091.1z
	 M129.6,1084.7c-1.2,0-2.2,1-2.2,2.2s1,2.2,2.2,2.2s2.2-1,2.2-2.2S130.9,1084.7,129.6,1084.7z"/>
<path class="st1" d="M145.9,1081.7c-2.3,0-4.2-1.9-4.2-4.2c0-2.3,1.9-4.2,4.2-4.2s4.2,1.9,4.2,4.2
	C150.1,1079.8,148.2,1081.7,145.9,1081.7z M145.9,1075.3c-1.2,0-2.2,1-2.2,2.2s1,2.2,2.2,2.2s2.2-1,2.2-2.2
	C148.1,1076.3,147.1,1075.3,145.9,1075.3z"/>
<path class="st1" d="M82.2,1151.7H74v-2h6.2v-11.3c0-1.5-1.2-2.8-2.8-2.8h-23c-1.5,0-2.8,1.2-2.8,2.8v11.3h6.2v2h-8.2v-13.3
	c0-2.6,2.1-4.8,4.8-4.8h23c2.6,0,4.8,2.1,4.8,4.8V1151.7z"/>
<polygon class="st1" points="75.1,1134.7 73.1,1134.7 73.1,1126.3 58.9,1126.3 58.9,1134.7 56.9,1134.7 56.9,1124.3 75.1,1124.3 "/>
<path class="st1" d="M75.1,1157H56.9v-14h18.2V1157z M58.9,1155h14.2v-10H58.9V1155z"/>
<circle class="st1" cx="55" cy="1139.1" r="1.3"/>
<path class="st1" d="M383.1,1394.7H372v-2h9.1v-16.2c0-2.4-1.9-4.3-4.3-4.3h-32.4c-2.4,0-4.3,1.9-4.3,4.3v16.2h9.1v2h-11.1v-18.2
	c0-3.5,2.8-6.3,6.3-6.3h32.4c3.5,0,6.3,2.8,6.3,6.3V1394.7z"/>
<polygon class="st1" points="373,1371.2 371,1371.2 371,1359 350.2,1359 350.2,1371.2 348.2,1371.2 348.2,1357 373,1357 "/>
<path class="st1" d="M373,1402.2h-24.8v-18.8H373V1402.2z M350.2,1400.2H371v-14.8h-20.8V1400.2z"/>
<path class="st1" d="M345.1,1380.2c-1.6,0-2.8-1.3-2.8-2.8c0-1.6,1.3-2.8,2.8-2.8c1.6,0,2.8,1.3,2.8,2.8l0,0
	C347.9,1379,346.7,1380.2,345.1,1380.2z M345.1,1376.6c-0.5,0-0.8,0.4-0.8,0.8c0,0.5,0.4,0.8,0.8,0.8c0.5,0,0.8-0.4,0.8-0.8l0,0
	C345.9,1377,345.6,1376.6,345.1,1376.6z"/>
<path class="st1" d="M692.7,1392.5v-8.7h3.5c0.9,0,1.8,0.2,2.4,0.8c0.6,0.6,0.9,1.4,0.9,2.2c0,0.9-0.3,1.7-1,2.3
	c-0.7,0.6-1.6,0.8-2.5,0.8h-1.5v2.6L692.7,1392.5L692.7,1392.5z M694.6,1388.2h1.5c0.4,0,0.8-0.1,1.1-0.4s0.4-0.6,0.4-1
	s-0.1-0.8-0.4-1c-0.3-0.2-0.7-0.4-1.1-0.3h-1.5V1388.2L694.6,1388.2z M701.3,1392.5v-8.7h3.4c1.2-0.1,2.4,0.4,3.4,1.2
	c1.7,1.7,1.7,4.5,0,6.2l0,0c-0.9,0.8-2.1,1.3-3.3,1.2L701.3,1392.5z M703.2,1390.8h1.5c1.4,0,2.6-1.2,2.6-2.6s-1.2-2.6-2.6-2.6l0,0
	h-1.5V1390.8z M711.2,1392.5v-8.7h6.6v1.7h-4.7v1.8h4.2v1.7h-4.2v3.4L711.2,1392.5z"/>
<path class="st1" d="M721.1,1408.3h-32.6c-0.6,0-1-0.4-1-1v-42c0-0.6,0.4-1,1-1h22.8c0.3,0,0.5,0.1,0.7,0.3l9.9,9.8
	c0.2,0.2,0.3,0.4,0.3,0.7v32.2C722.1,1407.8,721.7,1408.3,721.1,1408.3z M689.5,1406.3h30.6v-30.8l-9.3-9.2h-21.3V1406.3z"/>
<path class="st1" d="M721.2,1376h-9.9c-0.6,0-1-0.4-1-1v-9.8c0-0.6,0.4-1,1-1s1,0.4,1,1v8.8h8.9c0.6,0,1,0.4,1,1
	S721.7,1376,721.2,1376z"/>
<rect x="1120.5" y="1380.9" transform="matrix(0.8485 -0.5292 0.5292 0.8485 -560.3959 806.2628)" class="st1" width="14.9" height="2"/>
<rect x="1127" y="1385.7" transform="matrix(0.5289 -0.8487 0.8487 0.5289 -650.8968 1613.6683)" class="st1" width="2" height="14.9"/>
<path class="st1" d="M1137.7,1403.5c-2.7,0-4.8-2.2-4.8-4.8c0-2.7,2.2-4.8,4.8-4.8c2.6,0,4.8,2.2,4.8,4.8
	S1140.3,1403.5,1137.7,1403.5z M1137.7,1395.9c-1.5,0-2.8,1.3-2.8,2.8s1.3,2.8,2.8,2.8s2.8-1.3,2.8-2.8
	C1140.5,1397.1,1139.2,1395.9,1137.7,1395.9z"/>
<path class="st1" d="M1118.3,1392.3c-2.7,0-4.8-2.2-4.8-4.8c0-2.7,2.2-4.8,4.8-4.8c2.6,0,4.8,2.2,4.8,4.8
	C1123.1,1390.1,1120.9,1392.3,1118.3,1392.3z M1118.3,1384.7c-1.5,0-2.8,1.3-2.8,2.8s1.3,2.8,2.8,2.8s2.8-1.3,2.8-2.8
	C1121.1,1385.9,1119.8,1384.7,1118.3,1384.7z"/>
<path class="st1" d="M1137.7,1381.1c-2.7,0-4.8-2.2-4.8-4.8c0-2.7,2.2-4.8,4.8-4.8c2.6,0,4.8,2.2,4.8,4.8
	S1140.3,1381.1,1137.7,1381.1z M1137.7,1373.5c-1.5,0-2.8,1.3-2.8,2.8s1.3,2.8,2.8,2.8s2.8-1.3,2.8-2.8
	C1140.5,1374.7,1139.2,1373.5,1137.7,1373.5z"/>
<rect x="246.4" y="263.1" class="st2" width="1" height="1.2"/>
<path class="st2" d="M247.4,263.1h-1c0-1.3,1.1-2.4,2.4-2.4l0,0v1C248,261.8,247.4,262.4,247.4,263.1z"/>
<rect x="248.8" y="260.8" class="st2" width="5.2" height="1"/>
<path class="st2" d="M256.4,263.1h-1c0-0.8-0.6-1.4-1.4-1.4l0,0v-1C255.3,260.7,256.4,261.7,256.4,263.1L256.4,263.1z"/>
<rect x="255.4" y="263.1" class="st2" width="1" height="1.2"/>
<rect x="255.4" y="263.1" class="st2" width="1" height="1.2"/>
<path class="st2" d="M256.4,263.1h-1c0-1.3,1.1-2.4,2.4-2.4l0,0v1C257,261.8,256.4,262.4,256.4,263.1z"/>
<rect x="257.8" y="260.8" class="st2" width="5.2" height="1"/>
<path class="st2" d="M265.4,263.1h-1c0-0.8-0.6-1.4-1.4-1.4l0,0v-1C264.3,260.7,265.4,261.7,265.4,263.1L265.4,263.1z"/>
<rect x="264.4" y="263.1" class="st2" width="1" height="1.2"/>
<rect x="245.7" y="263.9" class="st2" width="20.4" height="1"/>
<path class="st2" d="M269.6,267.4h-1c0-1.4-1.1-2.5-2.5-2.5v-1C268,263.8,269.6,265.4,269.6,267.4
	C269.6,267.3,269.6,267.4,269.6,267.4z"/>
<polygon class="st2" points="269.6,274.5 264.7,274.5 264.7,272.6 265.7,272.6 265.7,273.5 268.7,273.5 268.7,267.4 269.6,267.4 "/>
<path class="st2" d="M265.7,272.6h-1c0-0.4-0.4-0.8-0.8-0.8l0,0v-1C264.8,270.8,265.6,271.6,265.7,272.6L265.7,272.6z"/>
<rect x="247.9" y="270.9" class="st2" width="16" height="1"/>
<path class="st2" d="M247.1,272.6h-1c0-1,0.8-1.8,1.8-1.8v1C247.5,271.9,247.1,272.2,247.1,272.6z"/>
<polygon class="st2" points="247.1,274.5 242.2,274.5 242.2,267.4 243.2,267.4 243.2,273.5 246.2,273.5 246.2,272.6 247.1,272.6 "/>
<path class="st2" d="M243.2,267.4h-1c0-1.9,1.6-3.5,3.5-3.5l0,0v1C244.3,264.9,243.2,266,243.2,267.4z"/>
<rect x="243.9" y="260.6" class="st2" width="1" height="4"/>
<path class="st2" d="M244.9,260.6h-1c0-1.7,1.4-3.1,3.1-3.1v1C245.9,258.5,244.9,259.4,244.9,260.6z"/>
<rect x="247.1" y="257.5" class="st2" width="17.7" height="1"/>
<path class="st2" d="M267.9,260.6h-1c0-1.2-1-2.1-2.1-2.1v-1C266.4,257.4,267.9,258.8,267.9,260.6
	C267.9,260.5,267.9,260.6,267.9,260.6z"/>
<rect x="266.9" y="260.6" class="st2" width="1" height="4"/>
<path class="st2" d="M357,270.8h-13.8c-2.1,0-3.9-1.7-3.9-3.9v-5.4h21.4v5.4C360.8,269,359.1,270.7,357,270.8z M340.4,262.5v4.4
	c0,1.6,1.3,2.9,2.9,2.9H357c1.6,0,2.9-1.3,2.9-2.9v-4.4H340.4z"/>
<path class="st2" d="M360.6,273.1c-1,0.1-1.9-0.5-2.2-1.5c-0.2-0.4-0.4-0.8-0.8-1.2l0.7-0.7c0.4,0.4,0.8,0.9,1,1.5
	c0.3,0.6,0.3,0.8,1.4,0.9L360.6,273.1z"/>
<path class="st2" d="M339.6,273.1v-1c1,0,1.1-0.3,1.4-0.9c0.2-0.6,0.6-1.1,1-1.5l0.7,0.7c-0.3,0.3-0.6,0.7-0.8,1.2
	C341.6,272.7,340.6,273.3,339.6,273.1z"/>
<rect x="338.1" y="261.5" class="st2" width="24" height="1"/>
<path class="st2" d="M360.8,262h-1v-9.5c0-1.3-1.1-2.4-2.4-2.4s-2.4,1.1-2.4,2.4l0,0h-1c0-1.9,1.5-3.4,3.4-3.4s3.4,1.5,3.4,3.4l0,0
	V262z"/>
<rect x="351.8" y="251.9" class="st2" width="5.4" height="1"/>
<rect x="354" y="253.6" class="st2" width="1" height="1"/>
<rect x="352" y="253.6" class="st2" width="1" height="1"/>
<rect x="355.9" y="253.6" class="st2" width="1" height="1"/>
<rect x="354" y="255.5" class="st2" width="1" height="1"/>
<rect x="352" y="255.5" class="st2" width="1" height="1"/>
<rect x="355.9" y="255.5" class="st2" width="1" height="1"/>
<rect x="354" y="257.4" class="st2" width="1" height="1"/>
<path class="st2" d="M420.1,267.1c-0.3,0-0.5-0.2-0.5-0.5v-16.5c0-0.3,0.2-0.5,0.5-0.5s0.5,0.2,0.5,0.5v16.5
	C420.6,266.8,420.4,267.1,420.1,267.1z"/>
<path class="st2" d="M420.1,267.1c-0.1,0-0.3-0.1-0.4-0.1l-2-2c-0.2-0.2-0.2-0.5,0-0.7s0.5-0.2,0.7,0c0,0,0,0,0.1,0.1l1.7,1.7
	l1.7-1.7c0.2-0.2,0.5-0.2,0.7,0s0.2,0.5,0,0.7l-2,2C420.4,267,420.2,267.1,420.1,267.1z"/>
<path class="st2" d="M418.1,252.1c-0.3,0-0.5-0.2-0.5-0.5c0-0.1,0.1-0.3,0.1-0.4l2-2c0.1-0.1,0.2-0.2,0.4-0.1l0,0
	c0.1,0,0.3,0.1,0.4,0.1l2,2c0.2,0.2,0.2,0.5-0.1,0.7c-0.2,0.2-0.5,0.2-0.7,0l-1.7-1.7l-1.6,1.7C418.3,252.1,418.2,252.1,418.1,252.1
	z"/>
<path class="st2" d="M442.7,272.7h-16.3c-0.3,0-0.5-0.2-0.5-0.5s0.2-0.5,0.5-0.5h16.3c0.3,0,0.5,0.2,0.5,0.5S443,272.7,442.7,272.7z
	"/>
<path class="st2" d="M440.7,274.7c-0.3,0-0.5-0.2-0.5-0.5c0-0.1,0.1-0.3,0.1-0.4l1.7-1.7l-1.7-1.7c-0.2-0.2-0.2-0.5,0.1-0.7
	c0.2-0.2,0.5-0.2,0.7,0l2,2c0.2,0.2,0.2,0.5,0,0.7l-2,2C441,274.6,440.9,274.7,440.7,274.7z"/>
<path class="st2" d="M428,274.8c-0.1,0-0.3-0.1-0.4-0.1l-2-2c-0.2-0.2-0.2-0.5,0-0.7l2-2c0.2-0.2,0.5-0.2,0.7,0s0.2,0.5,0,0.7
	l-1.7,1.7l1.7,1.7c0.2,0.2,0.2,0.5,0,0.7C428.2,274.8,428.1,274.8,428,274.8L428,274.8z"/>
<path class="st2" d="M442.7,267.1h-8.3c-0.3,0-0.5-0.2-0.5-0.5s0.2-0.5,0.5-0.5h7.8v-16h-15.8v16.5c0,0.3-0.2,0.5-0.5,0.5
	s-0.5-0.2-0.5-0.5v-17c0-0.3,0.2-0.5,0.5-0.5h16.8c0.3,0,0.5,0.2,0.5,0.5v17C443.3,266.8,443,267,442.7,267.1
	C442.8,267.1,442.7,267.1,442.7,267.1z"/>
<path class="st2" d="M442.7,261h-8.1c-0.3,0-0.5-0.2-0.5-0.5s0.2-0.5,0.5-0.5h8.1c0.3,0,0.5,0.2,0.5,0.5S443,261,442.7,261z"/>
<path class="st2" d="M434.6,261c-0.3,0-0.5-0.2-0.5-0.5V259c0-0.3,0.2-0.5,0.5-0.5s0.5,0.2,0.5,0.5v1.5
	C435.1,260.7,434.9,261,434.6,261L434.6,261z"/>
<path class="st2" d="M434.6,262.5c-0.3,0-0.5-0.2-0.5-0.5v-1.5c0-0.3,0.2-0.5,0.5-0.5s0.5,0.2,0.5,0.5v1.5
	C435.1,262.2,434.9,262.5,434.6,262.5z"/>
<path class="st2" d="M427.4,256.1H426c-0.3,0-0.5-0.2-0.5-0.5s0.2-0.5,0.5-0.5h1.4c0.3,0,0.5,0.2,0.5,0.5S427.7,256.1,427.4,256.1
	L427.4,256.1z"/>
<path class="st2" d="M427.4,267.1H426c-0.3,0-0.5-0.2-0.5-0.5s0.2-0.5,0.5-0.5h1.4c0.3,0,0.5,0.2,0.5,0.5S427.7,267.1,427.4,267.1
	L427.4,267.1z"/>
<path class="st2" d="M434.6,256.1h-1.4c-0.3,0-0.5-0.2-0.5-0.5s0.2-0.5,0.5-0.5h1.4c0.3,0,0.5,0.2,0.5,0.5S434.9,256.1,434.6,256.1z
	"/>
<path class="st2" d="M434.6,256.1c-0.3,0-0.5-0.2-0.5-0.5v-6c0-0.3,0.2-0.5,0.5-0.5s0.5,0.2,0.5,0.5v6
	C435.1,255.9,434.9,256.1,434.6,256.1z"/>
<path class="st2" d="M494.7,267.1c-0.3,0-0.5-0.2-0.5-0.5v-16.5c0-0.3,0.2-0.5,0.5-0.5s0.5,0.2,0.5,0.5v16.5
	C495.2,266.8,494.9,267.1,494.7,267.1z"/>
<path class="st2" d="M494.7,267.1c-0.1,0-0.3-0.1-0.4-0.1l-2-2c-0.2-0.2-0.2-0.5,0-0.7s0.5-0.2,0.7,0c0,0,0,0,0.1,0.1l1.7,1.7
	l1.7-1.7c0.2-0.2,0.5-0.2,0.7-0.1c0.2,0.2,0.2,0.5,0.1,0.7c0,0,0,0-0.1,0.1l-2,2C494.9,267,494.8,267.1,494.7,267.1z"/>
<path class="st2" d="M492.6,252.1c-0.3,0-0.5-0.2-0.5-0.5c0-0.1,0.1-0.3,0.1-0.4l2-2c0.2-0.2,0.5-0.2,0.7,0l2,2
	c0.2,0.2,0.2,0.5-0.1,0.7c-0.2,0.2-0.5,0.2-0.7,0l-1.7-1.7L493,252C492.9,252.1,492.8,252.1,492.6,252.1z"/>
<path class="st2" d="M517.3,272.7H501c-0.3,0-0.5-0.2-0.5-0.5s0.2-0.5,0.5-0.5h16.3c0.3,0,0.5,0.2,0.5,0.5S517.6,272.7,517.3,272.7
	L517.3,272.7z"/>
<path class="st2" d="M515.3,274.7c-0.3,0-0.5-0.2-0.5-0.5c0-0.1,0.1-0.3,0.1-0.4l1.7-1.7l-1.7-1.7c-0.2-0.2-0.2-0.5,0-0.7
	s0.5-0.2,0.7,0c0,0,0,0,0.1,0.1l2,2c0.2,0.2,0.2,0.5,0,0.7l-2,2C515.6,274.6,515.4,274.7,515.3,274.7z"/>
<path class="st2" d="M502.6,274.8c-0.1,0-0.3-0.1-0.4-0.1l-2-2c-0.2-0.2-0.2-0.5,0-0.7l2-2c0.2-0.2,0.5-0.2,0.7,0s0.2,0.5,0,0.7
	l-1.7,1.7l1.7,1.7c0.2,0.2,0.2,0.5,0,0.7C502.8,274.8,502.7,274.8,502.6,274.8L502.6,274.8z"/>
<path class="st2" d="M517.3,267h-16.8c-0.3,0-0.5-0.2-0.5-0.5v-17c0-0.3,0.2-0.5,0.5-0.5h16.8c0.3,0,0.5,0.2,0.5,0.5v17
	C517.8,266.8,517.6,267,517.3,267z M501,266h15.8v-16H501V266z"/>
<path class="st2" d="M510.9,261.5c-0.8-1.1-2.3-1.4-3.4-0.6c-0.2,0.2-0.4,0.3-0.6,0.6c-1.4,0-2.6-1.2-2.5-2.7l0,0
	c0-0.7,0.2-1.4,0.7-1.9c-0.1-0.3-0.1-0.5-0.1-0.8c0-2.2,1.8-3.9,3.9-3.9c2.2,0,3.9,1.8,3.9,3.9l0,0c0,0.3,0,0.6-0.1,0.8
	c0.5,0.5,0.7,1.2,0.7,1.9C513.5,260.2,512.4,261.4,510.9,261.5C511,261.5,510.9,261.5,510.9,261.5z M508.9,259.1
	c0.2,0,0.6,0.1,0.7,0.3c0.2,0.6,0.8,1,1.4,1.1c0.9,0,1.6-0.8,1.5-1.7l0,0c0-0.5-0.2-1-0.6-1.3c-0.1-0.1-0.2-0.3-0.1-0.5
	c0.1-0.3,0.1-0.6,0.1-0.8c0-1.6-1.3-2.9-2.9-2.9s-2.9,1.3-2.9,2.9l0,0c0,0.3,0,0.6,0.1,0.8c0.1,0.2,0,0.4-0.2,0.5
	c-0.4,0.3-0.6,0.8-0.6,1.3c0,0.9,0.6,1.6,1.5,1.7l0,0c0.7,0,1.2-0.4,1.4-1.1C508.4,259.2,508.6,259.1,508.9,259.1L508.9,259.1z"/>
<path class="st2" d="M508.9,264c-0.3,0-0.5-0.2-0.5-0.5v-6.8c0-0.3,0.2-0.5,0.5-0.5s0.5,0.2,0.5,0.5v6.8
	C509.4,263.8,509.2,264,508.9,264z"/>
<path class="st2" d="M508.9,259.6c-0.1,0-0.3-0.1-0.4-0.1l-1.3-1.3c-0.2-0.2-0.2-0.5,0.1-0.7c0.2-0.2,0.5-0.2,0.7,0l0.9,1l0.9-1
	c0.2-0.2,0.5-0.2,0.7,0s0.2,0.5,0,0.7l-1.3,1.3C509.2,259.5,509.1,259.6,508.9,259.6z"/>
<path class="st3" d="M605.1,250.4c3.7,0,6.8,3,6.8,6.8c0,3.2-2.7,5.7-5.2,8c-0.5,0.5-1,0.9-1.5,1.4c-0.5-0.5-1.1-1-1.6-1.5
	c-2.6-2.3-5.2-4.8-5.2-7.9C598.3,253.4,601.4,250.4,605.1,250.4 M605.1,260.1c1.8,0,3.2-1.4,3.2-3.2s-1.4-3.2-3.2-3.2
	s-3.2,1.4-3.2,3.2l0,0C601.9,258.7,603.3,260.1,605.1,260.1 M605.1,249.4c-4.3,0-7.8,3.5-7.8,7.8c0,3.6,2.9,6.3,5.5,8.7
	c0.6,0.5,1.2,1.1,1.8,1.6l0.5,0.5l0.5-0.5c0.5-0.5,1.1-1,1.6-1.6c2.6-2.4,5.5-5.1,5.5-8.8C612.8,252.8,609.4,249.4,605.1,249.4
	L605.1,249.4z M605.1,259.1c-1.2,0-2.2-1-2.2-2.2c0-1.2,1-2.2,2.2-2.2s2.2,1,2.2,2.2l0,0C607.2,258.2,606.3,259.1,605.1,259.1z"/>
<path class="st0" d="M646.3,227.1c9.3,0,16.8,7.5,16.8,16.9c0,8-6.6,14.1-12.9,19.9c-1.3,1.2-2.6,2.4-3.8,3.6
	c-1.3-1.3-2.7-2.6-4.1-3.8c-6.3-5.8-12.9-11.7-12.9-19.7C629.5,234.6,637,227.1,646.3,227.1 M646.3,251.1c4.1,0,7.5-3.3,7.5-7.4
	c0-4.1-3.3-7.5-7.4-7.5s-7.5,3.3-7.5,7.4l0,0C638.9,247.7,642.2,251.1,646.3,251.1 M646.3,224.9c-10.5,0-19,8.5-19,19l0,0
	c0,8.9,7.1,15.4,13.6,21.3c1.5,1.4,2.9,2.7,4.3,4l1.3,1.3l1.3-1.3c1.3-1.3,2.7-2.5,4-3.8c6.5-6,13.6-12.6,13.6-21.5
	C665.3,233.4,656.8,224.9,646.3,224.9L646.3,224.9L646.3,224.9z M646.3,248.9c-3,0-5.4-2.3-5.4-5.3s2.3-5.4,5.3-5.4s5.4,2.3,5.4,5.3
	l0,0C651.7,246.5,649.3,248.9,646.3,248.9z"/>
<circle class="st2" cx="606" cy="307" r="2"/>
<path class="st2" d="M603.7,309.8c-0.3,0-0.5,0.1-0.7,0.4l-2.7,2.3c-0.1,0.1-0.2,0.3-0.2,0.5l-0.6,3.8c0,0.2,0,0.3,0.1,0.5
	c0.3,0.4,0.8,0.4,1.1,0.2c0,0,0,0,0.1,0c0.1-0.1,0.1-0.2,0.1-0.3l0.6-3.3c0-0.1,0.1-0.1,0.2-0.3l1.3-1c0.1-0.1,0.2,0,0.2,0.1
	l-0.7,3.2c-0.1,0.5,0,1,0.3,1.3l4.9,7.3c1,1.5,2.8,0.3,2-1l-0.4-0.5l-3.8-6.1c-0.1-0.2,0-0.5,0-0.7l0.4-1.9v-0.2
	c0-0.1,0.1-0.1,0.2,0l0.6,0.9c0.1,0.2,0.3,0.3,0.5,0.4l2.5,1.2c1,0.5,1.5-0.8,0.6-1.3l-2.6-1.2c-0.1,0-0.1-0.1-0.2-0.2l-0.2-0.3
	l-1.5-3.1c-0.2-0.4-0.5-0.6-0.9-0.6L603.7,309.8z M603.5,319.8c0.1,0.1,0.1,0.1,0,0.2l-0.5,1.4c0,0.1-0.1,0.2-0.1,0.3l-2.4,3.1
	c-0.8,1-2.2,0.1-1.4-1l2.2-3.1c0.1-0.1,0.2-0.2,0.2-0.4l0.7-2.4L603.5,319.8z"/>
<path class="st2" d="M644.1,308.2h4.9c1.7,0,2.5-0.1,2.9,1.5l0.8,2.6c-2.4-0.2-5.6-0.3-8.6-0.2v4h2.4c0.6,0,1.1,0.5,1.1,1.1v0.9
	c0,0.6-0.5,1.1-1.1,1.1h-2.4v2.6c6.2,0.1,11.1-0.4,11.2-0.6c0.2-2,0.2-4.1,0-6.1c-0.2-0.9-0.5-1.7-1.1-2.5c0.6,0,1.2,0,1.7-0.1
	c0.7-0.1,1.1-1.5,0.5-1.9c-0.6-0.3-1.2-0.3-1.9-0.2c-0.7,0.3-0.4,0.6-0.7,1.3c-0.3-0.7-0.7-1.8-1.1-2.7c-0.8-1.7-1.3-2-2.3-2h-6.3
	L644.1,308.2L644.1,308.2z M651.6,315.9c1,0,1.9,0.8,1.9,1.8s-0.8,1.9-1.8,1.9s-1.9-0.8-1.9-1.8l0,0
	C649.7,316.7,650.5,315.9,651.6,315.9z M655.3,321.9c0,0.7,0,1.3,0,2c0,0.2-0.1,0.2-0.3,0.2c-1.1,0.1-2.3,0.1-3.4,0
	c0-0.4,0-0.9,0.1-1.8C652.9,322.2,654.1,322.1,655.3,321.9z"/>
<path class="st2" d="M644.1,308.2h-4.9c-1.7,0-2.5-0.1-2.9,1.5l-0.8,2.6c2.4-0.2,5.6-0.3,8.6-0.2v4h-2.4c-0.6,0-1.1,0.5-1.1,1.1v0.9
	c0,0.6,0.5,1.1,1.1,1.1h2.4v2.6c-6.2,0.1-11.1-0.4-11.2-0.6c-0.2-2-0.2-4.1,0-6.1c0.2-0.9,0.5-1.7,1.1-2.5c-0.6,0-1.2,0-1.7-0.1
	c-0.7-0.1-1.1-1.5-0.5-1.9c0.6-0.3,1.2-0.3,1.9-0.2c0.7,0.3,0.4,0.6,0.7,1.3c0.3-0.7,0.7-1.8,1.1-2.7c0.8-1.7,1.3-2,2.3-2h6.3
	L644.1,308.2L644.1,308.2z M636.7,315.9c-1,0-1.9,0.8-1.9,1.8s0.8,1.9,1.8,1.9s1.9-0.8,1.9-1.8l0,0
	C638.5,316.7,637.7,315.9,636.7,315.9z M632.9,321.9c0,0.7,0,1.3,0,2c0,0.2,0.1,0.2,0.3,0.2c1.1,0.1,2.3,0.1,3.4,0
	c0-0.4,0-0.9-0.1-1.8C635.3,322.2,634.1,322.1,632.9,321.9L632.9,321.9z"/>
<path class="st2" d="M810.6,247.2v-5.4l5.2,2.7L810.6,247.2z M812.7,237.8L812.7,237.8c-0.6,0-4.3,0-6.8,0.2c-0.7,0-1.4,0.3-1.9,0.8
	c-0.4,0.6-0.7,1.2-0.8,1.9c-0.1,1-0.2,2.1-0.2,3.1v1.5c0,1,0.1,2.1,0.2,3.1c0.1,0.7,0.4,1.4,0.8,1.9c0.6,0.5,1.3,0.8,2.1,0.8
	c1.5,0.1,6.6,0.2,6.6,0.2s4.1,0,6.8-0.2c0.7,0,1.4-0.3,1.9-0.8c0.4-0.6,0.7-1.2,0.8-1.9c0.1-1,0.2-2.1,0.2-3.1v-1.5
	c0-1-0.1-2.1-0.2-3.1c-0.1-0.7-0.4-1.4-0.8-1.9c-0.5-0.5-1.2-0.8-1.9-0.8C816.9,237.9,813.2,237.9,812.7,237.8L812.7,237.8z"/>
<path class="st2" d="M880.9,252.8v-7.4h2.5l0.4-2.9h-2.9v-1.9c0-0.8,0.2-1.4,1.4-1.4h1.5v-2.6c-0.7-0.1-1.5-0.1-2.2-0.1
	c-1.9-0.1-3.6,1.3-3.7,3.2c0,0.2,0,0.4,0,0.6v2.1h-2.5v2.9h2.5v7.4L880.9,252.8z"/>
<path class="st2" d="M946.6,237.8c2.2,0,2.5,0,3.4,0c0.5,0,1.1,0.1,1.5,0.3c0.7,0.3,1.3,0.9,1.6,1.6c0.2,0.5,0.3,1,0.3,1.6
	c0,0.9,0,1.1,0,3.4s0,2.5,0,3.4c0,0.5-0.1,1.1-0.3,1.6c-0.3,0.7-0.9,1.3-1.6,1.6c-0.5,0.2-1,0.3-1.5,0.3c-0.9,0-1.2,0-3.4,0
	s-2.5,0-3.4,0c-0.5,0-1.1-0.1-1.5-0.3c-0.7-0.3-1.3-0.9-1.6-1.6c-0.2-0.5-0.3-1-0.3-1.6c0-0.9,0-1.1,0-3.4s0-2.5,0-3.4
	c0-0.5,0.1-1.1,0.3-1.6c0.3-0.7,0.9-1.3,1.6-1.6c0.5-0.2,1-0.3,1.5-0.3C944.1,237.8,944.4,237.8,946.6,237.8z M955,244.9v-0.4
	c0-2.1,0-2.4,0-3.2c0-0.7-0.1-1.4-0.4-2c-0.4-1.1-1.3-2-2.5-2.4c-0.6-0.2-1.3-0.4-2-0.4c-0.9,0-1.2,0-3.2-0.1h-0.4
	c-2.1,0-2.4,0-3.2,0.1c-0.7,0-1.4,0.1-2,0.4c-1.1,0.4-2,1.3-2.5,2.4c-0.2,0.6-0.4,1.3-0.4,2c0,0.9,0,1.2,0,3.4s0,2.6,0,3.4
	c0,0.7,0.1,1.4,0.4,2c0.4,1.1,1.3,2,2.5,2.4c0.6,0.2,1.3,0.4,2,0.4c0.9,0,1.2,0.1,3.5,0.1s2.6,0,3.5-0.1c0.7,0,1.4-0.1,2-0.4
	c1.1-0.4,2-1.3,2.5-2.4c0.2-0.6,0.4-1.3,0.4-2C955,247.3,955,247,955,244.9L955,244.9z"/>
<path class="st2" d="M946.6,240.4c-2.4,0-4.3,1.9-4.3,4.3c0,2.4,1.9,4.3,4.3,4.3c2.4,0,4.3-1.9,4.3-4.3l0,0
	C950.9,242.3,949,240.4,946.6,240.4z M946.6,247.4c-1.5,0-2.8-1.2-2.8-2.8s1.2-2.8,2.8-2.8c1.5,0,2.8,1.2,2.8,2.8l0,0
	C949.4,246.2,948.1,247.4,946.6,247.4z"/>
<circle class="st2" cx="951.1" cy="240.2" r="1"/>
<path class="st2" d="M1003.8,244.4c0.2-3.3,2.9-5.9,6.2-5.9c1.5,0,3,0.5,4.1,1.5c-0.5,0.6-1,1.1-1.6,1.6c-1.4-1.1-3.3-1.1-4.8-0.1
	c-1.7,1.4-2.1,3.9-0.7,5.6c0.2,0.2,0.3,0.4,0.5,0.6c1.9,1.7,5.4,0.9,6-1.8c-1.2,0-2.4,0-3.5,0c0-0.7,0-1.4,0-2.1c2,0,3.9,0,5.9,0
	c0.2,1.7-0.2,3.4-1.1,4.8c-1.7,2.1-4.5,2.9-7,1.9C1005.4,249.5,1003.8,247,1003.8,244.4L1003.8,244.4z M1019.8,242h1.8
	c0,0.6,0,1.2,0,1.8h1.8v1.8h-1.8c0,0.6,0,1.2,0,1.8h-1.8c0-0.6,0-1.2,0-1.8h-1.8v-1.8h1.8C1019.8,243.2,1019.8,242.6,1019.8,242
	L1019.8,242z"/>
<path class="st0" d="M810.6,312.3v-5.4l5.2,2.7L810.6,312.3z M812.7,303L812.7,303c-0.6,0-4.3,0-6.8,0.2c-0.7,0-1.4,0.3-1.9,0.8
	c-0.4,0.6-0.7,1.2-0.8,1.9c-0.1,1-0.2,2.1-0.2,3.1v1.5c0,1,0.1,2.1,0.2,3.1c0.1,0.7,0.4,1.4,0.8,1.9c0.6,0.5,1.3,0.8,2.1,0.8
	c1.5,0.1,6.6,0.2,6.6,0.2s4.1,0,6.8-0.2c0.7,0,1.4-0.3,1.9-0.8c0.4-0.6,0.7-1.2,0.8-1.9c0.1-1,0.2-2.1,0.2-3.1V309
	c0-1-0.1-2.1-0.2-3.1c-0.1-0.7-0.4-1.4-0.8-1.9c-0.5-0.5-1.2-0.8-1.9-0.8C816.9,303,813.2,303,812.7,303L812.7,303z"/>
<path class="st0" d="M880.9,317.9v-7.5h2.5l0.4-2.9h-2.9v-1.9c0-0.8,0.2-1.4,1.4-1.4h1.5v-2.6c-0.7-0.1-1.5-0.1-2.2-0.1
	c-1.9-0.1-3.6,1.3-3.7,3.2c0,0.2,0,0.4,0,0.6v2.1h-2.5v2.9h2.5v7.5L880.9,317.9z"/>
<path class="st0" d="M946.6,302.9c2.2,0,2.5,0,3.4,0c0.5,0,1.1,0.1,1.5,0.3c0.7,0.3,1.3,0.9,1.6,1.6c0.2,0.5,0.3,1,0.3,1.5
	c0,0.9,0,1.1,0,3.4s0,2.5,0,3.4c0,0.5-0.1,1.1-0.3,1.5c-0.3,0.7-0.9,1.3-1.6,1.6c-0.5,0.2-1,0.3-1.5,0.3c-0.9,0-1.2,0-3.4,0
	s-2.5,0-3.4,0c-0.5,0-1.1-0.1-1.5-0.3c-0.7-0.3-1.3-0.9-1.6-1.6c-0.2-0.5-0.3-1-0.3-1.5c0-0.9,0-1.1,0-3.4s0-2.5,0-3.4
	c0-0.5,0.1-1.1,0.3-1.5c0.3-0.7,0.9-1.3,1.6-1.6c0.5-0.2,1-0.3,1.5-0.3C944.1,302.9,944.4,302.9,946.6,302.9z M955,310v-0.4
	c0-2.1,0-2.4,0-3.2c0-0.7-0.1-1.4-0.4-2c-0.4-1.1-1.3-2-2.5-2.5c-0.6-0.2-1.3-0.4-2-0.4c-0.9,0-1.2,0-3.2,0h-0.4c-2.1,0-2.4,0-3.2,0
	c-0.7,0-1.4,0.1-2,0.4c-1.1,0.4-2,1.3-2.5,2.5c-0.2,0.6-0.4,1.3-0.4,2c0,0.9,0,1.2,0,3.5s0,2.6,0,3.5c0,0.7,0.1,1.4,0.4,2
	c0.4,1.1,1.3,2,2.5,2.5c0.6,0.2,1.3,0.4,2,0.4c0.9,0,1.2,0,3.5,0s2.6,0,3.5,0c0.7,0,1.4-0.1,2-0.4c1.1-0.4,2-1.3,2.5-2.5
	c0.2-0.6,0.4-1.3,0.4-2C955,312.4,955,312.1,955,310z"/>
<path class="st0" d="M946.6,305.5c-2.4,0-4.3,1.9-4.3,4.3s1.9,4.3,4.3,4.3c2.4,0,4.3-1.9,4.3-4.3l0,0
	C950.9,307.4,949,305.5,946.6,305.5z M946.6,312.6c-1.5,0-2.8-1.2-2.8-2.8s1.2-2.8,2.8-2.8c1.5,0,2.8,1.2,2.8,2.8l0,0
	C949.4,311.3,948.1,312.6,946.6,312.6z"/>
<circle class="st0" cx="951.1" cy="305.3" r="1"/>
<path class="st0" d="M1003.8,309.5c0.2-3.3,2.9-5.9,6.2-5.9c1.5,0,3,0.5,4.1,1.5c-0.5,0.6-1,1.1-1.6,1.6c-1.4-1.1-3.3-1.1-4.8-0.1
	c-1.7,1.4-2.1,3.9-0.7,5.6c0.2,0.2,0.3,0.4,0.5,0.6c1.9,1.7,5.4,0.9,6-1.8c-1.2,0-2.4,0-3.5,0c0-0.7,0-1.4,0-2.1c2,0,3.9,0,5.9,0
	c0.2,1.7-0.2,3.4-1.1,4.8c-1.7,2.1-4.5,2.9-7,1.9C1005.4,314.6,1003.8,312.2,1003.8,309.5L1003.8,309.5z M1019.8,307.1h1.8
	c0,0.6,0,1.2,0,1.8h1.8v1.8h-1.8c0,0.6,0,1.2,0,1.8h-1.8c0-0.6,0-1.2,0-1.8h-1.8v-1.8h1.8C1019.8,308.3,1019.8,307.7,1019.8,307.1
	L1019.8,307.1z"/>
<path class="st0" d="M816.3,97.2c-1,0-2-0.2-2.9-0.5c-0.3-0.1-0.6,0-0.8,0.2l-1.8,1.8c-2.3-1.2-4.1-3-5.3-5.3l1.8-1.8
	c0.2-0.2,0.3-0.5,0.2-0.8c-0.3-0.9-0.4-1.9-0.4-2.8c0-0.4-0.3-0.8-0.7-0.8h-0.1h-2.8c-0.4,0-0.8,0.3-0.8,0.7V88
	c0,7.5,6.1,13.6,13.6,13.6l0,0c0.4,0,0.8-0.3,0.8-0.7v-0.1V98C817.1,97.6,816.8,97.2,816.3,97.2C816.4,97.2,816.3,97.2,816.3,97.2
	L816.3,97.2z"/>
<path class="st4" d="M816.3,138c-1,0-2-0.2-2.9-0.5c-0.3-0.1-0.6,0-0.8,0.2l-1.8,1.8c-2.3-1.2-4.1-3-5.3-5.3l1.8-1.8
	c0.2-0.2,0.3-0.5,0.2-0.8c-0.3-0.9-0.4-1.9-0.4-2.8c0-0.4-0.3-0.8-0.7-0.8h-0.1h-2.8c-0.4,0-0.8,0.3-0.8,0.7v0.1
	c0,7.5,6.1,13.6,13.6,13.6l0,0c0.4,0,0.8-0.3,0.8-0.7v-0.1v-2.8C817.1,138.4,816.8,138,816.3,138C816.4,138,816.3,138,816.3,138
	L816.3,138z"/>
<circle class="st0" cx="605.6" cy="348.8" r="2"/>
<path class="st0" d="M603.3,351.5c-0.3,0-0.5,0.1-0.7,0.4l-2.7,2.3c-0.1,0.1-0.2,0.3-0.2,0.5l-0.6,3.8c0,0.2,0,0.3,0.1,0.5
	c0.3,0.4,0.8,0.4,1.1,0.2c0,0,0,0,0.1,0c0.1-0.1,0.1-0.2,0.1-0.3l0.6-3.3c0-0.1,0.1-0.1,0.2-0.3l1.3-1c0.1-0.1,0.2,0,0.2,0.1
	l-0.7,3.2c-0.1,0.5,0,1,0.3,1.3l4.9,7.3c1,1.5,2.8,0.3,2-1l-0.4-0.5l-3.8-6.1c-0.1-0.2,0-0.5,0-0.7l0.4-1.9v-0.2
	c0-0.1,0.1-0.1,0.2,0l0.6,0.9c0.1,0.2,0.3,0.3,0.5,0.4l2.5,1.2c1,0.5,1.5-0.8,0.6-1.3l-2.6-1.3c-0.1,0-0.1-0.1-0.2-0.2l-0.2-0.3
	l-1.5-3.1c-0.2-0.4-0.5-0.6-0.9-0.6H603.3z M603.1,361.6c0.1,0.1,0.1,0.1,0,0.2l-0.5,1.4c0,0.1-0.1,0.2-0.1,0.3l-2.4,3.1
	c-0.8,1-2.2,0.1-1.4-1l2.2-3.1c0.1-0.1,0.2-0.2,0.2-0.4l0.7-2.4L603.1,361.6z"/>
<path class="st0" d="M643.7,350h4.9c1.7,0,2.5-0.1,2.9,1.5l0.8,2.6c-2.4-0.2-5.6-0.3-8.6-0.2v4h2.4c0.6,0,1.1,0.5,1.1,1.1v0.9
	c0,0.6-0.5,1.1-1.1,1.1h-2.4v2.6c6.2,0.1,11.1-0.4,11.2-0.6c0.2-2,0.2-4.1,0-6.1c-0.2-0.9-0.5-1.7-1.1-2.5c0.6,0,1.2,0,1.7-0.1
	c0.7-0.1,1.1-1.5,0.5-1.9c-0.6-0.3-1.2-0.3-1.9-0.2c-0.7,0.3-0.4,0.6-0.7,1.3c-0.3-0.7-0.7-1.8-1.1-2.7c-0.8-1.7-1.3-2-2.3-2h-6.3
	L643.7,350L643.7,350z M651.1,357.6c1,0,1.9,0.8,1.9,1.8s-0.8,1.9-1.8,1.9s-1.9-0.8-1.9-1.8l0,0
	C649.3,358.5,650.1,357.6,651.1,357.6z M654.9,363.7c0,0.7,0,1.3,0,2c0,0.2-0.1,0.2-0.3,0.2c-1.1,0.1-2.3,0.1-3.4,0
	c0-0.4,0-0.9,0.1-1.8C652.4,364,653.7,363.9,654.9,363.7L654.9,363.7z"/>
<path class="st0" d="M643.7,350h-4.9c-1.7,0-2.5-0.1-2.9,1.5l-0.8,2.6c2.4-0.2,5.6-0.3,8.6-0.2v4h-2.4c-0.6,0-1.1,0.5-1.1,1.1v0.9
	c0,0.6,0.5,1.1,1.1,1.1h2.4v2.6c-6.2,0.1-11.1-0.4-11.2-0.6c-0.2-2-0.2-4.1,0-6.1c0.2-0.9,0.5-1.7,1.1-2.5c-0.6,0-1.2,0-1.7-0.1
	c-0.7-0.1-1.1-1.5-0.5-1.9c0.6-0.3,1.2-0.3,1.9-0.2c0.7,0.3,0.4,0.6,0.7,1.3c0.3-0.7,0.7-1.8,1.1-2.7c0.8-1.7,1.3-2,2.3-2h6.3
	L643.7,350L643.7,350z M636.2,357.6c-1,0-1.9,0.8-1.9,1.8s0.8,1.9,1.8,1.9s1.9-0.8,1.9-1.8l0,0C638.1,358.5,637.2,357.6,636.2,357.6
	z M632.5,363.7c0,0.7,0,1.3,0,2c0,0.2,0.1,0.2,0.3,0.2c1.1,0.1,2.3,0.1,3.4,0c0-0.4,0-0.9-0.1-1.8
	C634.9,364,633.7,363.9,632.5,363.7L632.5,363.7z"/>
<path class="st0" d="M549.7,978c2.4,0,4.7,1,6.4,2.7s2.6,4.1,2.6,6.5c0,4.3-3.4,7.5-6.5,10.4c-0.7,0.6-1.3,1.2-1.9,1.8l-0.6,0.6
	l-0.6-0.6c-0.7-0.7-1.3-1.3-2-2c-3.1-2.9-6.4-6-6.4-10.3c0-2.4,0.9-4.8,2.6-6.5C545,979,547.3,978,549.7,978L549.7,978z M549.7,983
	c-2.2,0-4,1.8-4,4s1.8,4,4,4s4-1.8,4-4S551.9,983,549.7,983z"/>
<path class="st5" d="M765.6,1164c-0.3,0-0.6-0.2-0.8-0.4l-24.3-34.1c-0.2-0.3-0.2-0.8,0-1.2l24.3-34.1c0.3-0.5,0.9-0.6,1.4-0.2
	s0.6,0.9,0.2,1.4l0,0l-23.9,33.5l23.9,33.5c0.3,0.4,0.2,1.1-0.2,1.4C766,1163.9,765.8,1164,765.6,1164L765.6,1164z"/>
<path class="st0" d="M741.3,1164c-0.3,0-0.6-0.2-0.8-0.4l-24.3-34.1c-0.2-0.3-0.2-0.8,0-1.2l24.3-34.1c0.3-0.5,0.9-0.6,1.4-0.2
	s0.6,0.9,0.2,1.4l0,0l-23.9,33.5l23.9,33.5c0.3,0.4,0.2,1.1-0.2,1.4C741.7,1163.9,741.5,1164,741.3,1164L741.3,1164z"/>
<path class="st0" d="M1210.4,263.5c-6.1,0-11-4.9-11-11s4.9-11,11-11s11,4.9,11,11S1216.5,263.5,1210.4,263.5z M1210.4,243.5
	c-5,0-9,4-9,9s4,9,9,9s9-4,9-9S1215.4,243.5,1210.4,243.5z"/>
<polygon class="st0" points="1207.9,256.8 1207.9,248.2 1214.7,252.5 "/>
<path class="st0" d="M1277.7,258.5c-4.4,0.1-8.5-1.9-11.2-5.4c-0.3-0.4-0.3-0.8,0-1.2c4.9-6.2,13.9-7.3,20.1-2.4
	c0.9,0.7,1.7,1.5,2.4,2.4c0.3,0.4,0.3,0.8,0,1.2C1286.2,256.6,1282,258.6,1277.7,258.5z M1268.5,252.5c4.6,5,12.4,5.4,17.5,0.8
	c0.3-0.2,0.5-0.5,0.8-0.8c-4.6-5-12.4-5.4-17.5-0.8C1269,252,1268.8,252.2,1268.5,252.5z"/>
<path class="st0" d="M1277.7,257.1c-2.6,0-4.7-2.1-4.7-4.7c0-2.6,2.1-4.6,4.7-4.6s4.7,2.1,4.7,4.7
	C1282.3,255.1,1280.2,257.1,1277.7,257.1z M1277.7,249.8c-1.5,0-2.7,1.2-2.7,2.7s1.2,2.6,2.7,2.6s2.7-1.2,2.7-2.7
	C1280.3,251,1279.1,249.8,1277.7,249.8L1277.7,249.8L1277.7,249.8z"/>
<path class="st0" d="M1344.9,259.5h-9.6c-0.6,0-1-0.4-1-1v-9.6c0-0.6,0.4-1,1-1h9.6c0.6,0,1,0.4,1,1v9.6
	C1345.9,259.1,1345.5,259.5,1344.9,259.5z M1336.3,257.5h7.6v-7.6h-7.6V257.5z"/>
<path class="st0" d="M1350.6,253.8h-2.3c-0.6,0-1-0.4-1-1s0.4-1,1-1h1.3v-7.6h-7.6v1.3c0,0.6-0.4,1-1,1s-1-0.4-1-1v-2.3
	c0-0.6,0.4-1,1-1h9.6c0.6,0,1,0.4,1,1v9.6C1351.6,253.4,1351.2,253.8,1350.6,253.8L1350.6,253.8z"/>
<path class="st4" d="M1210.4,316.5c-6.1,0-11-4.9-11-11s4.9-11,11-11s11,4.9,11,11S1216.5,316.5,1210.4,316.5L1210.4,316.5z
	 M1210.4,296.5c-5,0-9,4-9,9s4,9,9,9s9-4,9-9S1215.4,296.5,1210.4,296.5z"/>
<polygon class="st4" points="1207.9,309.8 1207.9,301.2 1214.7,305.5 "/>
<path class="st4" d="M1277.7,311.5c-4.4,0.1-8.5-1.9-11.2-5.4c-0.3-0.4-0.3-0.8,0-1.2c4.9-6.2,13.9-7.3,20.1-2.4
	c0.9,0.7,1.7,1.5,2.4,2.4c0.3,0.4,0.3,0.8,0,1.2C1286.2,309.6,1282,311.6,1277.7,311.5z M1268.5,305.5c4.6,5,12.4,5.4,17.5,0.8
	c0.3-0.2,0.5-0.5,0.8-0.8c-4.6-5-12.4-5.4-17.5-0.8C1269,305,1268.8,305.2,1268.5,305.5z"/>
<path class="st4" d="M1277.7,310.1c-2.6,0-4.7-2.1-4.7-4.7s2.1-4.6,4.7-4.6s4.7,2.1,4.7,4.6C1282.3,308.1,1280.2,310.1,1277.7,310.1
	z M1277.7,302.9c-1.5,0-2.7,1.2-2.7,2.7s1.2,2.6,2.7,2.6s2.7-1.2,2.7-2.6S1279.1,302.9,1277.7,302.9L1277.7,302.9z"/>
<path class="st4" d="M1344.9,312.5h-9.6c-0.6,0-1-0.4-1-1v-9.6c0-0.6,0.4-1,1-1h9.6c0.6,0,1,0.4,1,1v9.6
	C1345.9,312.1,1345.5,312.5,1344.9,312.5z M1336.3,310.5h7.6v-7.6h-7.6V310.5z"/>
<path class="st4" d="M1350.6,306.8h-2.3c-0.6,0-1-0.4-1-1s0.4-1,1-1h1.3v-7.6h-7.6v1.3c0,0.6-0.4,1-1,1s-1-0.4-1-1v-2.3
	c0-0.6,0.4-1,1-1h9.6c0.6,0,1,0.4,1,1v9.6C1351.6,306.4,1351.2,306.8,1350.6,306.8L1350.6,306.8z"/>
<path class="st2" d="M579.9,644.8h-8.2v-3.6c0-1.1-0.9-2-2-2h-27.5c-1.1,0-2,0.9-2,2v3.6H532v-12.3c0-3.5,2.8-6.4,6.3-6.4h35.3
	c3.5,0,6.4,2.9,6.3,6.4L579.9,644.8z M573.7,642.8h4.2v-10.3c0-2.4-1.9-4.4-4.3-4.4h-35.3c-2.4,0-4.4,2-4.3,4.4v10.3h4.2v-1.6
	c0-2.2,1.8-4,4-4h27.5c2.2,0,4,1.8,4,4L573.7,642.8z"/>
<path class="st2" d="M572.1,627h-2v-2.6c0-1.2-0.9-2.2-2.1-2.2l0,0h-9c-1.2,0-2.1,1-2.1,2.2l0,0v2.6h-2v-2.5c0-2.3,1.8-4.2,4.1-4.2
	l0,0h9c2.3,0,4.1,1.9,4.1,4.2l0,0V627z"/>
<path class="st2" d="M541.7,627h-2v-2.6c0-2.3,1.8-4.2,4.1-4.2l0,0h9c2.3,0,4.1,1.9,4.1,4.2l0,0v2.6h-2v-2.5c0-1.2-0.9-2.2-2.1-2.2
	l0,0h-9c-1.2,0-2.1,1-2.1,2.2l0,0V627z"/>
<path class="st2" d="M576.9,627.4h-2v-7.1c0-2-1.6-3.6-3.6-3.6h-30.8c-2,0-3.6,1.6-3.6,3.6v7.1h-2v-7.1c0-3.1,2.5-5.6,5.6-5.6h30.8
	c3.1,0,5.6,2.5,5.6,5.6V627.4z"/>
<path class="st2" d="M704.9,647.5h-25.2c-3.9,0-7.2-3.2-7.2-7.1v-10H712v10C712,644.3,708.8,647.5,704.9,647.5z M674.5,632.3v8
	c0,2.8,2.3,5.1,5.2,5.1l0,0h25.2c2.8,0,5.2-2.3,5.2-5.1l0,0v-8H674.5z"/>
<path class="st2" d="M711.6,651.8c-2.8-0.1-3.5-1.2-4.2-2.7c-0.3-0.8-0.8-1.5-1.4-2.1l1.4-1.5c0.8,0.8,1.4,1.7,1.8,2.8
	c0.4,1,0.6,1.4,2.4,1.5V651.8z"/>
<path class="st2" d="M673,651.8l-0.1-2c1.8-0.1,2-0.5,2.4-1.5s1-2,1.8-2.8l1.4,1.5c-0.6,0.6-1.1,1.3-1.4,2.1
	C676.5,650.6,675.8,651.6,673,651.8z"/>
<rect x="670.3" y="630.3" class="st2" width="44" height="2"/>
<path class="st2" d="M712,631.3h-2V614c0-2.4-1.9-4.3-4.3-4.3c-2.4,0-4.3,1.9-4.3,4.3h-2c0-3.5,2.8-6.3,6.3-6.3s6.3,2.8,6.3,6.3
	V631.3z"/>
<rect x="695.4" y="612.9" class="st2" width="9.8" height="2"/>
<rect x="699.3" y="616.1" class="st2" width="2" height="1.8"/>
<rect x="695.7" y="616.1" class="st2" width="2" height="1.8"/>
<rect x="702.9" y="616.1" class="st2" width="2" height="1.8"/>
<rect x="699.3" y="619.4" class="st2" width="2" height="1.8"/>
<rect x="695.7" y="619.4" class="st2" width="2" height="1.8"/>
<rect x="702.9" y="619.4" class="st2" width="2" height="1.8"/>
<rect x="699.3" y="623" class="st2" width="2" height="1.8"/>
<path class="st2" d="M813.2,638.7c-0.6,0-1-0.4-1-1v-28.1c0-0.6,0.4-1,1-1s1,0.4,1,1v28.1C814.2,638.2,813.8,638.7,813.2,638.7z"/>
<path class="st2" d="M813.2,639.1l-4.1-4.2c-0.4-0.4-0.4-1,0-1.4s1-0.4,1.4,0l2.7,2.8l2.7-2.8c0.4-0.4,1-0.4,1.4,0s0.4,1,0,1.4
	L813.2,639.1z"/>
<path class="st2" d="M809.8,613.2c-0.6,0-1-0.5-1-1c0-0.3,0.1-0.5,0.3-0.7l4.1-4.2l4.1,4.2c0.4,0.4,0.4,1,0,1.4s-1,0.4-1.4,0
	l-2.7-2.8l-2.7,2.8C810.3,613.1,810.1,613.2,809.8,613.2z"/>
<path class="st2" d="M851.8,648.3h-27.7c-0.6,0-1-0.4-1-1s0.4-1,1-1h27.7c0.6,0,1,0.4,1,1S852.3,648.3,851.8,648.3z"/>
<path class="st2" d="M848.4,651.8c-0.6,0-1-0.5-1-1c0-0.3,0.1-0.5,0.3-0.7l2.7-2.8l-2.7-2.8c-0.4-0.4-0.4-1,0-1.4s1-0.4,1.4,0
	l4.1,4.2l-4.1,4.2C848.9,651.6,848.6,651.8,848.4,651.8z"/>
<path class="st2" d="M826.7,651.8c-0.3,0-0.5-0.1-0.7-0.3l-4.1-4.2l4.1-4.2c0.4-0.4,1-0.4,1.4,0s0.4,1,0,1.4l-2.7,2.8l2.7,2.8
	c0.4,0.4,0.4,1,0,1.4C827.2,651.7,826.9,651.8,826.7,651.8L826.7,651.8z"/>
<path class="st2" d="M852.8,638.7h-15.2c-0.6,0-1-0.4-1-1s0.4-1,1-1h13.2v-26.9h-26.5v27.9c0,0.6-0.4,1-1,1s-1-0.4-1-1v-29.9h30.5
	V638.7z"/>
<path class="st2" d="M851.8,628.3h-13.9c-0.6,0-1-0.4-1-1s0.4-1,1-1h13.9c0.6,0,1,0.4,1,1S852.4,628.3,851.8,628.3L851.8,628.3z"/>
<path class="st2" d="M837.9,628.3c-0.6,0-1-0.4-1-1v-2.5c0-0.6,0.4-1,1-1s1,0.4,1,1v2.5C838.9,627.9,838.5,628.3,837.9,628.3z"/>
<path class="st2" d="M837.9,630.8c-0.6,0-1-0.4-1-1v-2.5c0-0.6,0.4-1,1-1s1,0.4,1,1v2.5C838.9,630.4,838.5,630.8,837.9,630.8z"/>
<path class="st2" d="M825.7,620h-2.5c-0.6,0-1-0.4-1-1s0.4-1,1-1h2.5c0.6,0,1,0.4,1,1S826.3,620,825.7,620z"/>
<path class="st2" d="M825.7,638.7h-2.5c-0.6,0-1-0.4-1-1s0.4-1,1-1h2.5c0.6,0,1,0.4,1,1S826.3,638.7,825.7,638.7z"/>
<path class="st2" d="M837.9,620h-2.5c-0.6,0-1-0.4-1-1s0.4-1,1-1h2.5c0.6,0,1,0.4,1,1S838.5,620,837.9,620z"/>
<path class="st2" d="M837.9,620c-0.6,0-1-0.4-1-1v-10.2c0-0.6,0.4-1,1-1s1,0.4,1,1V619C838.9,619.6,838.5,620,837.9,620z"/>
<path class="st2" d="M949,638.7c-0.6,0-1-0.4-1-1v-28.1c0-0.6,0.4-1,1-1s1,0.4,1,1v28.1C950,638.2,949.6,638.7,949,638.7z"/>
<path class="st2" d="M949,639.1l-4.1-4.2c-0.4-0.4-0.4-1,0-1.4s1-0.4,1.4,0l2.7,2.8l2.7-2.8c0.4-0.4,1-0.4,1.4,0s0.4,1,0,1.4
	L949,639.1z"/>
<path class="st2" d="M945.6,613.2c-0.6,0-1-0.5-1-1c0-0.3,0.1-0.5,0.3-0.7l4.1-4.2l4.1,4.2c0.4,0.4,0.4,1,0,1.4s-1,0.4-1.4,0
	l-2.7-2.8l-2.7,2.8C946.1,613.1,945.8,613.2,945.6,613.2z"/>
<path class="st2" d="M987.6,648.3h-27.7c-0.6,0-1-0.4-1-1s0.4-1,1-1h27.7c0.6,0,1,0.4,1,1S988.1,648.3,987.6,648.3z"/>
<path class="st2" d="M984.1,651.8c-0.6,0-1-0.5-1-1c0-0.3,0.1-0.5,0.3-0.7l2.7-2.8l-2.7-2.8c-0.4-0.4-0.4-1,0-1.4s1-0.4,1.4,0
	l4.1,4.2l-4.1,4.2C984.7,651.6,984.4,651.8,984.1,651.8z"/>
<path class="st2" d="M962.5,651.8c-0.3,0-0.5-0.1-0.7-0.3l-4.1-4.2l4.1-4.2c0.4-0.4,1-0.4,1.4,0s0.4,1,0,1.4l-2.7,2.8l2.7,2.8
	c0.4,0.4,0.4,1,0,1.4C963,651.7,962.7,651.8,962.5,651.8L962.5,651.8z"/>
<path class="st2" d="M988.6,638.7H958v-30.9h30.5L988.6,638.7z M960,636.7h26.5v-26.9H960V636.7z"/>
<path class="st2" d="M976.7,629.2c-1.5-1.9-4.2-2.2-6.1-0.8c-0.3,0.2-0.6,0.5-0.8,0.8c-2.5-0.1-4.5-2.2-4.5-4.7
	c0-1.2,0.4-2.3,1.2-3.2c-0.1-0.4-0.1-0.9-0.1-1.3c-0.1-3.8,2.8-6.9,6.6-7.1c3.8-0.1,6.9,2.8,7.1,6.6c0,0.2,0,0.3,0,0.5
	c0,0.5,0,0.9-0.1,1.3c0.8,0.9,1.2,2,1.2,3.2C981.3,627,979.2,629.1,976.7,629.2z M974.2,624.8l0.3,0.7c0.3,1,1.2,1.7,2.3,1.7
	c1.4-0.1,2.5-1.3,2.5-2.7c0-0.8-0.4-1.6-1-2.1l-0.5-0.4l0.2-0.6c0.1-0.5,0.2-0.9,0.2-1.4c0.1-2.7-1.9-4.9-4.6-5
	c-2.7-0.1-4.9,1.9-5,4.6c0,0.1,0,0.3,0,0.4c0,0.5,0.1,0.9,0.2,1.4l0.2,0.6l-0.5,0.4c-0.6,0.5-1,1.3-1,2.1c-0.1,1.4,1,2.6,2.5,2.7
	c1.1,0,2-0.7,2.3-1.7l0.3-0.7h0.9H974.2z"/>
<path class="st2" d="M973.3,633.4c-0.6,0-1-0.4-1-1v-11.7c0-0.6,0.4-1,1-1s1,0.4,1,1v11.6C974.3,633,973.9,633.4,973.3,633.4
	L973.3,633.4z"/>
<path class="st2" d="M973.3,626.3l-2.9-3c-0.4-0.4-0.3-1.1,0.1-1.4c0.4-0.3,0.9-0.3,1.3,0l1.5,1.5l1.5-1.5c0.4-0.4,1-0.4,1.4,0
	s0.4,1,0,1.4l0,0L973.3,626.3z"/>
<polygon class="st2" points="579.9,727.8 577.9,727.8 577.9,702.1 555.9,690.9 533.9,702.1 533.9,727.8 531.9,727.8 531.9,700.9 
	555.9,688.7 579.9,700.9 "/>
<path class="st2" d="M567.9,726.6h-24c-1.3,0-2.4-1.1-2.4-2.4v-8l1.7-1.7l1.4,1.4l-1.1,1.1v7.2c0,0.2,0.2,0.4,0.4,0.4h24
	c0.2,0,0.4-0.2,0.4-0.4V717l-1.1-1.1l1.4-1.4l1.7,1.7v8C570.3,725.5,569.2,726.6,567.9,726.6L567.9,726.6z"/>
<path class="st2" d="M569.3,716.1h-26.9l2.7-8.1c0.5-1.5,1.4-2.3,2.6-2.3h16.5c0.8,0,2,0.4,2.6,2.3L569.3,716.1z M545.2,714.1h21.4
	l-1.7-5.5c-0.2-0.6-0.4-0.9-0.7-0.9h-16.5c-0.1,0-0.4,0-0.7,1L545.2,714.1z"/>
<rect x="567.4" y="713.4" transform="matrix(0.8936 -0.4489 0.4489 0.8936 -260.1204 331.4536)" class="st2" width="3.2" height="2"/>
<rect x="541.9" y="712.9" transform="matrix(0.4489 -0.8936 0.8936 0.4489 -339.3203 878.8746)" class="st2" width="2" height="3.2"/>
<path class="st2" d="M556.9,728.3h-2c-1.1,0-2.1-0.9-2.1-2.1l0,0v-2h2v2c0,0,0,0.1,0.1,0.1l0,0h2c0,0,0.1,0,0.1-0.1l0,0v-0.7h2v0.7
	C559,727.4,558,728.3,556.9,728.3L556.9,728.3z"/>
<path class="st2" d="M556.9,728.3h-2c-1.1,0-2.1-0.9-2.1-2.1l0,0v-0.6h2v0.6c0,0,0,0.1,0.1,0.1l0,0h2c0,0,0.1,0,0.1-0.1l0,0v-2h2v2
	C559,727.4,558,728.3,556.9,728.3L556.9,728.3z"/>
<ellipse class="st2" cx="555.9" cy="718.6" rx="1.5" ry="1.5"/>
<ellipse class="st2" cx="555.9" cy="718.6" rx="1.5" ry="1.5"/>
<polygon class="st2" points="559.8,725.2 559.7,722.6 552,722.6 552,725.1 550,725.1 550,720.6 561.7,720.6 561.8,725.2 "/>
<rect x="685.2" y="715.3" class="st2" width="2" height="10.5"/>
<rect x="677.5" y="714.3" class="st2" width="17.4" height="2"/>
<polygon class="st2" points="676.5,726.1 675.9,720.7 671.6,720.7 671,726.1 669,725.9 669.8,718.7 677.6,718.7 678.5,725.9 "/>
<rect x="666.4" y="709.3" transform="matrix(0.9835 -0.1807 0.1807 0.9835 -117.915 132.3489)" class="st2" width="2" height="8"/>
<polygon class="st2" points="701.5,726.1 700.8,720.7 696.6,720.7 695.9,726.1 693.9,725.9 694.8,718.7 702.6,718.7 703.5,725.9 "/>
<rect x="698.4" y="714.8" transform="matrix(0.1807 -0.9835 0.9835 0.1807 -128.5419 1277.2576)" class="st2" width="8" height="2"/>
<path class="st2" d="M706.5,698.3h-32.1l10.3-12.1h30.4l-0.2,2.3L706.5,698.3z M678.7,696.3h26.9l6.9-8.1h-26.9L678.7,696.3z"/>
<rect x="683.7" y="691.2" transform="matrix(0.6349 -0.7726 0.7726 0.6349 -282.8201 786.008)" class="st2" width="13.1" height="2"/>
<rect x="693.9" y="691.2" transform="matrix(0.6349 -0.7726 0.7726 0.6349 -279.0908 793.877)" class="st2" width="13.1" height="2"/>
<rect x="682.5" y="697" class="st2" width="2" height="18.3"/>
<rect x="714.3" y="686.2" class="st2" width="2" height="40"/>
<polygon class="st2" points="709.6,708.7 689.2,708.7 689.2,697.1 691.2,697.1 691.2,706.7 707.6,706.7 707.6,694.3 709.6,694.3 "/>
<path class="st2" d="M841,730.8h-34.4v-42H841V730.8z M808.6,728.8H839v-38h-30.4V728.8z"/>
<rect x="822.8" y="689.8" class="st2" width="2" height="40"/>
<path class="st2" d="M855.4,708H844l5.7-9L855.4,708z M847.6,706h4.1l-2.1-3.2L847.6,706z"/>
<path class="st2" d="M849.7,720.6l-5.7-9h11.4L849.7,720.6z M847.7,713.6l2.1,3.2l2.1-3.2H847.7z"/>
<path class="st2" d="M966.8,731.4c-12.7,0-22.9-10.3-22.9-22.9s10.3-22.9,22.9-22.9s22.9,10.3,22.9,22.9l0,0
	C989.7,721.1,979.4,731.3,966.8,731.4z M966.8,687.5c-11.5,0-20.9,9.4-20.9,20.9s9.4,20.9,20.9,20.9s20.9-9.4,20.9-20.9l0,0
	C987.7,696.9,978.3,687.5,966.8,687.5L966.8,687.5z"/>
<rect x="965.8" y="686.5" class="st2" width="2" height="2.5"/>
<rect x="944.8" y="707.5" class="st2" width="2.5" height="2"/>
<rect x="965.8" y="728" class="st2" width="2" height="2.5"/>
<rect x="986.3" y="707.5" class="st2" width="2.5" height="2"/>
<polygon class="st2" points="966.8,708.5 969.8,711.5 978.6,696.6 963.7,705.4 "/>
<path class="st2" d="M969.8,712.5c-0.3,0-0.5-0.1-0.7-0.3l-3.1-3.1l0,0l-3-3.1c-0.4-0.4-0.4-1,0-1.4c0.1-0.1,0.1-0.1,0.2-0.2
	l14.9-8.8c0.5-0.3,1.1-0.1,1.4,0.4c0.2,0.3,0.2,0.7,0,1l-8.8,14.9c-0.2,0.3-0.4,0.4-0.7,0.5L969.8,712.5z M967.5,707.7l2.2,2.2
	l6.2-10.5l-10.5,6.2L967.5,707.7z"/>
<path class="st2" d="M954.9,721.3c-0.6,0-1-0.4-1-1c0-0.2,0-0.4,0.1-0.5l8.8-14.9c0.3-0.5,0.9-0.6,1.4-0.4c0.1,0,0.1,0.1,0.2,0.2
	l6.1,6.1c0.4,0.4,0.4,1,0,1.4c-0.1,0.1-0.1,0.1-0.2,0.2l-14.9,8.8C955.3,721.3,955.1,721.3,954.9,721.3z M963.9,707l-6.2,10.5
	l10.5-6.2l-2.2-2.2l0,0L963.9,707z"/>
<path class="st0" d="M578.6,823.3h-8.2v-3.6c0-1.1-0.9-2-2-2h-27.5c-1.1,0-2,0.9-2,2v3.6h-8.2V811c0-3.5,2.8-6.4,6.3-6.4h35.3
	c3.5,0,6.4,2.9,6.3,6.4L578.6,823.3z M572.3,821.3h4.2V811c0-2.4-1.9-4.4-4.3-4.4h-35.3c-2.4,0-4.4,2-4.3,4.4v10.3h4.2v-1.6
	c0-2.2,1.8-4,4-4h27.5c2.2,0,4,1.8,4,4L572.3,821.3z"/>
<path class="st0" d="M570.8,805.5h-2V803c0-1.2-0.9-2.2-2.1-2.2l0,0h-9c-1.2,0-2.1,1-2.1,2.2l0,0v2.5h-2V803c0-2.3,1.8-4.2,4.1-4.2
	l0,0h9c2.3,0,4.1,1.9,4.1,4.2l0,0V805.5z"/>
<path class="st0" d="M540.3,805.5h-2V803c0-2.3,1.8-4.2,4.1-4.2l0,0h9c2.3,0,4.1,1.9,4.1,4.2l0,0v2.5h-2V803c0-1.2-0.9-2.2-2.1-2.2
	l0,0h-9c-1.2,0-2.1,1-2.1,2.2l0,0V805.5z"/>
<path class="st0" d="M575.5,805.9h-2v-7.1c0-2-1.6-3.6-3.6-3.6h-30.8c-2,0-3.6,1.6-3.6,3.6v7.1h-2v-7.1c0-3.1,2.5-5.6,5.6-5.6H570
	c3.1,0,5.6,2.5,5.6,5.6L575.5,805.9z"/>
<path class="st0" d="M703.6,825.9h-25.2c-3.9,0-7.2-3.2-7.2-7.1v-10h39.5v10C710.7,822.8,707.5,825.9,703.6,825.9z M673.2,810.8v8
	c0,2.8,2.3,5.1,5.2,5.1l0,0h25.2c2.8,0,5.2-2.3,5.2-5.1l0,0v-8H673.2z"/>
<path class="st0" d="M710.3,830.3c-2.8-0.1-3.5-1.2-4.2-2.7c-0.3-0.8-0.8-1.5-1.4-2.1l1.4-1.5c0.8,0.8,1.4,1.7,1.8,2.8
	c0.4,1,0.6,1.4,2.4,1.5V830.3z"/>
<path class="st0" d="M671.6,830.3l-0.1-2c1.8-0.1,2-0.5,2.4-1.5s1-2,1.9-2.8l1.4,1.5c-0.6,0.6-1.1,1.3-1.4,2.1
	C675.2,829,674.5,830.1,671.6,830.3z"/>
<rect x="669" y="808.8" class="st0" width="44" height="2"/>
<path class="st0" d="M710.7,809.8h-2v-17.3c0-2.4-1.9-4.3-4.3-4.3c-2.4,0-4.3,1.9-4.3,4.3h-2c0-3.5,2.8-6.3,6.3-6.3s6.3,2.8,6.3,6.3
	V809.8z"/>
<rect x="694.1" y="791.4" class="st0" width="9.8" height="2"/>
<rect x="698" y="794.6" class="st0" width="2" height="1.8"/>
<rect x="694.4" y="794.6" class="st0" width="2" height="1.8"/>
<rect x="701.6" y="794.6" class="st0" width="2" height="1.8"/>
<rect x="698" y="797.9" class="st0" width="2" height="1.8"/>
<rect x="694.4" y="797.9" class="st0" width="2" height="1.8"/>
<rect x="701.6" y="797.9" class="st0" width="2" height="1.8"/>
<rect x="698" y="801.5" class="st0" width="2" height="1.8"/>
<path class="st0" d="M811.9,817.2c-0.6,0-1-0.4-1-1v-28.1c0-0.6,0.4-1,1-1s1,0.4,1,1v28.1C812.9,816.7,812.5,817.2,811.9,817.2z"/>
<path class="st0" d="M811.9,817.6l-4.1-4.2c-0.4-0.4-0.4-1,0-1.4s1-0.4,1.4,0l0,0l2.7,2.8l2.7-2.8c0.4-0.3,1.1-0.2,1.4,0.2
	c0.3,0.4,0.3,0.8,0,1.2L811.9,817.6z"/>
<path class="st0" d="M808.5,791.7c-0.6,0-1-0.5-1-1c0-0.3,0.1-0.5,0.3-0.7l4.1-4.2l4.1,4.2c0.4,0.4,0.4,1,0,1.4s-1,0.4-1.4,0l0,0
	l-2.7-2.8l-2.7,2.8C809,791.6,808.7,791.7,808.5,791.7z"/>
<path class="st0" d="M850.5,826.8h-27.7c-0.6,0-1-0.4-1-1s0.4-1,1-1h27.7c0.6,0,1,0.4,1,1S851,826.8,850.5,826.8z"/>
<path class="st0" d="M847,830.3c-0.6,0-1-0.5-1-1c0-0.3,0.1-0.5,0.3-0.7l2.7-2.8l-2.7-2.8c-0.4-0.4-0.4-1,0-1.4s1-0.4,1.4,0l4.1,4.2
	l-4.1,4.2C847.6,830.2,847.3,830.3,847,830.3z"/>
<path class="st0" d="M825.4,830.3c-0.3,0-0.5-0.1-0.7-0.3l-4.1-4.2l4.1-4.2c0.4-0.4,1-0.4,1.4,0s0.4,1,0,1.4l-2.7,2.8l2.7,2.8
	c0.4,0.4,0.4,1,0,1.4C825.9,830.2,825.6,830.3,825.4,830.3L825.4,830.3z"/>
<path class="st0" d="M851.5,817.2h-15.2c-0.6,0-1-0.4-1-1s0.4-1,1-1h13.2v-26.9H823v27.9c0,0.6-0.4,1-1,1s-1-0.4-1-1v-29.9h30.5
	V817.2z"/>
<path class="st0" d="M850.5,806.8h-13.9c-0.6,0-1-0.4-1-1s0.4-1,1-1h13.9c0.6,0,1,0.4,1,1S851,806.8,850.5,806.8L850.5,806.8z"/>
<path class="st0" d="M836.6,806.8c-0.6,0-1-0.4-1-1v-2.5c0-0.6,0.4-1,1-1s1,0.4,1,1v2.5C837.6,806.4,837.2,806.8,836.6,806.8z"/>
<path class="st0" d="M836.6,809.3c-0.6,0-1-0.4-1-1v-2.5c0-0.6,0.4-1,1-1s1,0.4,1,1v2.5C837.6,808.9,837.2,809.3,836.6,809.3z"/>
<path class="st0" d="M824.4,798.5h-2.5c-0.6,0-1-0.4-1-1s0.4-1,1-1h2.5c0.6,0,1,0.4,1,1S824.9,798.5,824.4,798.5z"/>
<path class="st0" d="M824.4,817.2h-2.5c-0.6,0-1-0.4-1-1s0.4-1,1-1h2.5c0.6,0,1,0.4,1,1S824.9,817.2,824.4,817.2z"/>
<path class="st0" d="M836.6,798.5h-2.5c-0.6,0-1-0.4-1-1s0.4-1,1-1h2.5c0.6,0,1,0.4,1,1S837.2,798.5,836.6,798.5z"/>
<path class="st0" d="M836.6,798.5c-0.6,0-1-0.4-1-1v-10.2c0-0.6,0.4-1,1-1s1,0.4,1,1v10.2C837.6,798,837.2,798.5,836.6,798.5z"/>
<path class="st0" d="M947.7,817.2c-0.6,0-1-0.4-1-1v-28.1c0-0.6,0.4-1,1-1s1,0.4,1,1v28.1C948.7,816.7,948.2,817.2,947.7,817.2z"/>
<path class="st0" d="M947.7,817.6l-4.1-4.2c-0.4-0.4-0.4-1,0-1.4s1-0.4,1.4,0l0,0l2.7,2.8l2.7-2.8c0.4-0.4,1-0.4,1.4,0s0.4,1,0,1.4
	l0,0L947.7,817.6z"/>
<path class="st0" d="M944.2,791.7c-0.6,0-1-0.5-1-1c0-0.3,0.1-0.5,0.3-0.7l4.1-4.2l4.1,4.2c0.4,0.4,0.4,1,0,1.4s-1,0.4-1.4,0
	l-2.7-2.8l-2.7,2.7C944.8,791.6,944.5,791.7,944.2,791.7z"/>
<path class="st0" d="M986.2,826.8h-27.7c-0.6,0-1-0.4-1-1s0.4-1,1-1h27.7c0.6,0,1,0.4,1,1S986.8,826.8,986.2,826.8z"/>
<path class="st0" d="M982.8,830.3c-0.6,0-1-0.5-1-1c0-0.3,0.1-0.5,0.3-0.7l2.7-2.8l-2.7-2.8c-0.4-0.4-0.4-1,0-1.4s1-0.4,1.4,0
	l4.1,4.2l-4.1,4.2C983.3,830.2,983.1,830.3,982.8,830.3z"/>
<path class="st0" d="M961.1,830.3c-0.3,0-0.5-0.1-0.7-0.3l-4.1-4.2l4.1-4.2c0.4-0.4,1-0.4,1.4,0s0.4,1,0,1.4l-2.7,2.8l2.7,2.8
	c0.4,0.4,0.4,1,0,1.4C961.6,830.2,961.4,830.3,961.1,830.3L961.1,830.3z"/>
<path class="st0" d="M987.2,817.2h-30.5v-30.9h30.5V817.2z M958.7,815.2h26.5v-26.9h-26.5V815.2z"/>
<path class="st0" d="M975.4,807.7c-1.5-1.9-4.2-2.2-6.1-0.8c-0.3,0.2-0.6,0.5-0.8,0.8c-2.5-0.1-4.5-2.2-4.5-4.7
	c0-1.2,0.4-2.3,1.2-3.2c-0.1-0.4-0.1-0.9-0.1-1.3c-0.1-3.8,2.8-6.9,6.6-7.1c3.8-0.1,6.9,2.8,7.1,6.6c0,0.2,0,0.3,0,0.5
	c0,0.5,0,0.9-0.1,1.3c0.8,0.9,1.2,2,1.2,3.2C979.9,805.5,977.9,807.6,975.4,807.7z M972.8,803.3l0.3,0.7c0.3,1,1.2,1.7,2.3,1.7
	c1.4-0.1,2.5-1.3,2.5-2.7c0-0.8-0.4-1.6-1-2.1l-0.5-0.4l0.2-0.6c0.1-0.5,0.2-0.9,0.2-1.4c0.1-2.7-1.9-4.9-4.6-5
	c-2.7-0.1-4.9,1.9-5,4.6c0,0.1,0,0.3,0,0.4c0,0.5,0.1,0.9,0.2,1.4l0.2,0.6l-0.5,0.4c-0.6,0.5-1,1.3-1,2.1c-0.1,1.4,1,2.6,2.5,2.7
	c1.1,0,2-0.7,2.3-1.7l0.3-0.7h0.9H972.8z"/>
<path class="st0" d="M972,811.9c-0.6,0-1-0.4-1-1v-11.6c0-0.6,0.4-1,1-1s1,0.4,1,1v11.6C973,811.5,972.6,811.9,972,811.9z"/>
<path class="st0" d="M972,804.8l-2.9-3c-0.4-0.4-0.4-1,0-1.4s1-0.4,1.4,0l1.5,1.5l1.5-1.5c0.4-0.4,1-0.4,1.4,0s0.4,1,0,1.4
	L972,804.8z"/>
<polygon class="st0" points="578.6,906.3 576.6,906.3 576.6,880.6 554.6,869.4 532.6,880.6 532.6,906.3 530.6,906.3 530.6,879.4 
	554.6,867.2 578.6,879.4 "/>
<path class="st0" d="M566.6,905.1h-24c-1.3,0-2.4-1.1-2.4-2.4v-8l1.7-1.7l1.4,1.4l-1.1,1.1v7.2c0,0.2,0.2,0.4,0.4,0.4h24
	c0.2,0,0.4-0.2,0.4-0.4v-7.2l-1.1-1.1l1.4-1.4l1.7,1.7v8C569,904,567.9,905.1,566.6,905.1z"/>
<path class="st0" d="M568,894.6h-26.9l2.7-8.1c0.5-1.5,1.4-2.3,2.6-2.3h16.5c0.8,0,2,0.4,2.6,2.3L568,894.6z M543.8,892.6h21.4
	l-1.7-5.5c-0.2-0.6-0.4-0.9-0.7-0.9h-16.4c-0.1,0-0.4,0-0.7,1L543.8,892.6z"/>
<rect x="566.1" y="891.9" transform="matrix(0.8936 -0.4489 0.4489 0.8936 -340.3822 349.8717)" class="st0" width="3.2" height="2"/>
<rect x="540.5" y="891.4" transform="matrix(0.4489 -0.8936 0.8936 0.4489 -499.5472 975.9615)" class="st0" width="2" height="3.2"/>
<path class="st0" d="M555.6,906.8h-2c-1.1,0-2.1-0.9-2.1-2.1l0,0v-2h2v2c0,0,0,0.1,0.1,0.1l0,0h2c0,0,0.1,0,0.1-0.1l0,0V904h2v0.7
	C557.7,905.9,556.7,906.8,555.6,906.8L555.6,906.8z"/>
<path class="st0" d="M555.6,906.8h-2c-1.1,0-2.1-0.9-2.1-2.1l0,0v-0.6h2v0.6c0,0,0,0.1,0.1,0.1l0,0h2c0,0,0.1,0,0.1-0.1l0,0v-2h2v2
	C557.7,905.9,556.7,906.8,555.6,906.8L555.6,906.8z"/>
<ellipse class="st0" cx="554.6" cy="897.1" rx="1.5" ry="1.5"/>
<ellipse class="st0" cx="554.6" cy="897.1" rx="1.5" ry="1.5"/>
<polygon class="st0" points="558.4,903.7 558.4,901.1 550.7,901.1 550.7,903.6 548.7,903.6 548.7,899.1 560.4,899.1 560.4,903.7 "/>
<rect x="683.9" y="893.8" class="st0" width="2" height="10.5"/>
<rect x="676.2" y="892.8" class="st0" width="17.4" height="2"/>
<polygon class="st0" points="675.2,904.6 674.5,899.2 670.3,899.2 669.7,904.6 667.7,904.4 668.5,897.2 676.3,897.2 677.2,904.4 "/>
<rect x="665" y="887.1" transform="matrix(0.9835 -0.1807 0.1807 0.9835 -150.0672 135.023)" class="st0" width="2" height="8"/>
<polygon class="st0" points="700.2,904.6 699.5,899.2 695.3,899.2 694.6,904.6 692.6,904.4 693.5,897.2 701.3,897.2 702.1,904.4 "/>
<rect x="697.1" y="893.3" transform="matrix(0.1807 -0.9835 0.9835 0.1807 -305.1734 1422.1898)" class="st0" width="8" height="2"/>
<path class="st0" d="M705.2,876.8h-32.1l10.3-12.1h30.4l-0.2,2.3L705.2,876.8z M677.4,874.8h26.9l6.9-8.1h-26.9L677.4,874.8z"/>
<rect x="682.4" y="869.7" transform="matrix(0.6349 -0.7726 0.7726 0.6349 -421.2003 850.1611)" class="st0" width="13.1" height="2"/>
<rect x="692.6" y="869.7" transform="matrix(0.6349 -0.7726 0.7726 0.6349 -417.4696 858.0374)" class="st0" width="13.1" height="2"/>
<rect x="681.2" y="875.5" class="st0" width="2" height="18.3"/>
<rect x="713" y="864.7" class="st0" width="2" height="40"/>
<polygon class="st0" points="708.3,887.2 687.9,887.2 687.9,875.6 689.9,875.6 689.9,885.2 706.3,885.2 706.3,872.8 708.3,872.8 "/>
<path class="st0" d="M839.7,909.3h-34.4v-42h34.4V909.3z M807.3,907.3h30.4v-38h-30.4V907.3z"/>
<rect x="821.5" y="868.3" class="st0" width="2" height="40"/>
<path class="st0" d="M854.1,886.5h-11.4l5.7-9L854.1,886.5z M846.3,884.5h4.1l-2.1-3.2L846.3,884.5z"/>
<path class="st0" d="M848.4,899.1l-5.7-9h11.4L848.4,899.1z M846.3,892.1l2.1,3.2l2.1-3.2H846.3z"/>
<path class="st0" d="M965.4,909.9c-12.7,0-22.9-10.3-22.9-22.9s10.3-22.9,22.9-22.9s22.9,10.3,22.9,22.9l0,0
	C988.3,899.6,978.1,909.8,965.4,909.9z M965.4,866c-11.5,0-20.9,9.4-20.9,20.9s9.4,20.9,20.9,20.9s20.9-9.4,20.9-20.9l0,0
	C986.4,875.4,977,866,965.4,866L965.4,866z"/>
<rect x="964.4" y="864.9" class="st0" width="2" height="2.5"/>
<rect x="943.4" y="885.9" class="st0" width="2.5" height="2"/>
<rect x="964.4" y="906.5" class="st0" width="2" height="2.5"/>
<rect x="985" y="885.9" class="st0" width="2.5" height="2"/>
<polygon class="st0" points="965.4,886.9 968.5,890 977.3,875.1 962.4,883.9 "/>
<path class="st0" d="M968.5,891c-0.3,0-0.5-0.1-0.7-0.3l-3.1-3.1l0,0l-3.1-3.1c-0.4-0.4-0.4-1,0-1.4c0.1-0.1,0.1-0.1,0.2-0.2
	l14.9-8.8c0.5-0.3,1.1-0.1,1.4,0.4c0.2,0.3,0.2,0.7,0,1l-8.8,14.9c-0.2,0.3-0.4,0.4-0.7,0.5L968.5,891L968.5,891z M966.2,886.2
	l2.2,2.2l6.2-10.5l-10.5,6.2L966.2,886.2z"/>
<path class="st0" d="M953.6,899.8c-0.6,0-1-0.4-1-1c0-0.2,0-0.4,0.1-0.5l8.8-14.9c0.3-0.5,0.9-0.6,1.4-0.4c0.1,0,0.1,0.1,0.2,0.2
	l6.1,6.1c0.4,0.4,0.4,1,0,1.4c-0.1,0.1-0.1,0.1-0.2,0.2l-14.9,8.8C953.9,899.8,953.8,899.8,953.6,899.8z M962.6,885.5l-6.2,10.5
	l10.5-6.2l-2.2-2.2l0,0L962.6,885.5z"/>
<path class="st2" d="M1184,615.9h-8.7v-2.3c3.8-5.9,13.5-5.9,17.3,0v2.3H1184z"/>
<circle class="st2" cx="1184" cy="603" r="4.1"/>
<path class="st1" d="M1263.2,618.6c-3-2.1-8.7-6.2-9-10.3c-0.5-5.6,6.1-8.2,9-2.7c2.9-5.5,9.4-2.9,9,2.7
	C1271.9,612.4,1266.2,616.5,1263.2,618.6z"/>
<path class="st1" d="M295,18c-3-2.1-8.7-6.2-9-10.3c-0.5-5.6,6.1-8.2,9-2.7c2.9-5.5,9.4-2.9,9,2.7C303.7,11.8,298,15.9,295,18z"/>
<path class="st0" d="M1184,676.9h-8.7v-2.3c3.8-5.9,13.5-5.9,17.3,0v2.3H1184z"/>
<circle class="st0" cx="1184" cy="664.1" r="4.1"/>
<path class="st0" d="M1148.6,774.4v-9.8l9.5,4.9L1148.6,774.4L1148.6,774.4z M1152.3,757.5h-0.2c-0.9,0-7.6,0-12.2,0.3
	c-1.3,0-2.6,0.5-3.5,1.5c-0.7,1-1.2,2.2-1.4,3.5c-0.2,1.9-0.3,3.8-0.3,5.7v2.7c0,1.9,0.1,3.8,0.3,5.7c0.2,1.3,0.6,2.5,1.4,3.5
	c1.1,0.9,2.4,1.5,3.9,1.5c2.8,0.3,11.9,0.3,11.9,0.3s7.4,0,12.3-0.4c1.3,0,2.6-0.5,3.5-1.5c0.7-1,1.2-2.2,1.4-3.5
	c0.2-1.9,0.3-3.8,0.3-5.7v-2.7c0-1.9-0.1-3.8-0.3-5.7c-0.2-1.3-0.6-2.5-1.4-3.5c-0.9-0.9-2.2-1.5-3.5-1.5
	C1159.9,757.6,1153.2,757.5,1152.3,757.5L1152.3,757.5z"/>
<path class="st0" d="M1236.5,784.6v-13.5h4.5l0.7-5.3h-5.2v-3.3c0-1.5,0.4-2.6,2.6-2.6h2.8v-4.7c-1.3-0.1-2.7-0.2-4.1-0.2
	c-4,0-6.8,2.5-6.8,6.9v3.9h-4.5v5.3h4.5v13.5L1236.5,784.6L1236.5,784.6z"/>
<path class="st0" d="M1316.3,757.4c4,0,4.5,0,6.1,0.1c1,0,1.9,0.2,2.8,0.5c1.3,0.5,2.4,1.6,2.9,2.9c0.3,0.9,0.5,1.9,0.5,2.8
	c0.1,1.6,0.1,2.1,0.1,6.1s0,4.5-0.1,6.1c0,1-0.2,1.9-0.5,2.8c-0.5,1.3-1.6,2.4-2.9,2.9c-0.9,0.3-1.9,0.5-2.8,0.5
	c-1.6,0.1-2.1,0.1-6.1,0.1s-4.5,0-6.1-0.1c-1,0-1.9-0.2-2.8-0.5c-1.3-0.5-2.4-1.6-2.9-2.9c-0.3-0.9-0.5-1.8-0.5-2.8
	c-0.1-1.6-0.1-2.1-0.1-6.1s0-4.5,0.1-6.1c0-1,0.2-1.9,0.5-2.8c0.5-1.3,1.6-2.4,2.9-2.9c0.9-0.3,1.9-0.5,2.8-0.5
	C1311.8,757.5,1312.3,757.5,1316.3,757.4L1316.3,757.4z M1331.4,770.2v-0.8c0-3.8,0-4.3-0.1-5.9c0-1.3-0.3-2.5-0.7-3.7
	c-0.8-2-2.4-3.6-4.4-4.4c-1.2-0.4-2.4-0.7-3.7-0.7c-1.6-0.1-2.1-0.1-5.9-0.1h-0.8c-3.8,0-4.3,0-5.9,0.1c-1.3,0-2.5,0.3-3.7,0.7
	c-2,0.8-3.6,2.4-4.4,4.4c-0.4,1.2-0.7,2.4-0.7,3.7c-0.1,1.6-0.1,2.1-0.1,6.2s0,4.6,0.1,6.2c0,1.3,0.3,2.5,0.7,3.7
	c0.8,2,2.4,3.6,4.4,4.4c1.2,0.4,2.4,0.7,3.7,0.7c1.6,0.1,2.1,0.1,6.2,0.1s4.6,0,6.2-0.1c1.3,0,2.5-0.3,3.7-0.7
	c2-0.8,3.6-2.4,4.4-4.4c0.4-1.2,0.7-2.4,0.7-3.7C1331.4,774.5,1331.4,774,1331.4,770.2L1331.4,770.2z"/>
<path class="st0" d="M1316.3,762.1c-4.3,0-7.8,3.5-7.8,7.8s3.5,7.8,7.8,7.8s7.8-3.5,7.8-7.8S1320.6,762.1,1316.3,762.1L1316.3,762.1
	z M1316.3,774.9c-2.8,0-5-2.2-5-5s2.2-5,5-5s5,2.2,5,5S1319.1,774.9,1316.3,774.9z"/>
<circle class="st0" cx="1324.4" cy="761.8" r="1.8"/>
<path class="st0" d="M1380.8,769.3c0.3-5.9,5.2-10.6,11.2-10.6c2.7,0,5.4,1,7.5,2.8c-0.9,1-1.8,2-2.8,2.9c-2.5-1.8-6.2-2.3-8.7-0.2
	c-3.1,2.4-3.8,6.9-1.4,10c0.3,0.4,0.7,0.8,1.1,1.1c3.4,3.1,9.8,1.5,10.8-3.2c-2.1,0-4.3,0-6.4-0.1c0-1.3,0-2.5,0-3.8
	c3.6,0,7.1,0,10.7,0c0.2,3-0.2,6.2-2,8.6c-2.8,3.9-8.4,5.1-12.7,3.4C1383.4,778.5,1380.6,774.1,1380.8,769.3L1380.8,769.3z
	 M1409.6,765h3.2c0,1.1,0,2.1,0,3.2h3.2v3.2h-3.2c0,1.1,0,2.1,0,3.2h-3.2c0-1.1,0-2.1,0-3.2h-3.2v-3.2h3.2
	C1409.5,767.2,1409.5,766.1,1409.6,765L1409.6,765z"/>
<path class="st0" d="M1140.6,1020.5c2.6,4.7,6.4,8.6,11.2,11.2c0.6,0.3,1.3,0.5,1.9,0.5c0.8,0,1-0.1,1.2-0.2c0.7-0.6,1.4-1.4,2-2.2
	c0.4-0.5,0.3-1-0.1-1.3l-3.6-2.3c-0.3-0.2-0.7-0.2-0.9,0l-1.9,1.2c-2.1-1.5-3.9-3.4-5.4-5.4l1.2-2c0.2-0.3,0.2-0.6,0-0.9l-2.3-3.5
	c-0.3-0.4-0.8-0.4-1.3-0.1c-0.8,0.6-1.5,1.3-2.2,2c-0.1,0.2-0.3,0.4-0.2,1.2C1140.2,1019.3,1140.3,1019.9,1140.6,1020.5z"/>
<path class="st5" d="M1149.6,851.4v-9.8l9.5,4.9L1149.6,851.4L1149.6,851.4z M1153.3,834.5h-0.2c-0.9,0-7.6,0-12.2,0.3
	c-1.3,0-2.6,0.5-3.5,1.5c-0.7,1-1.2,2.2-1.4,3.5c-0.2,1.9-0.3,3.8-0.3,5.7v2.7c0,1.9,0.1,3.8,0.3,5.7c0.2,1.3,0.6,2.5,1.4,3.5
	c1.1,0.9,2.4,1.5,3.9,1.5c2.8,0.3,11.9,0.3,11.9,0.3s7.4,0,12.3-0.4c1.3,0,2.6-0.5,3.5-1.5c0.7-1,1.2-2.2,1.4-3.5
	c0.2-1.9,0.3-3.8,0.3-5.7v-2.7c0-1.9-0.1-3.8-0.3-5.7c-0.2-1.3-0.6-2.5-1.4-3.5c-0.9-0.9-2.2-1.5-3.5-1.5
	C1160.9,834.6,1154.2,834.5,1153.3,834.5L1153.3,834.5z"/>
<path class="st5" d="M1237.5,861.6v-13.5h4.5l0.7-5.3h-5.2v-3.3c0-1.5,0.4-2.6,2.6-2.6h2.8v-4.7c-1.3-0.1-2.7-0.2-4.1-0.2
	c-4,0-6.8,2.5-6.8,6.9v3.9h-4.5v5.3h4.5v13.5L1237.5,861.6L1237.5,861.6z"/>
<path class="st5" d="M1317.3,834.4c4,0,4.5,0,6.1,0.1c1,0,1.9,0.2,2.8,0.5c1.3,0.5,2.4,1.6,2.9,2.9c0.3,0.9,0.5,1.9,0.5,2.8
	c0.1,1.6,0.1,2.1,0.1,6.1s0,4.5-0.1,6.1c0,1-0.2,1.9-0.5,2.8c-0.5,1.3-1.6,2.4-2.9,2.9c-0.9,0.3-1.9,0.5-2.8,0.5
	c-1.6,0.1-2.1,0.1-6.1,0.1s-4.5,0-6.1-0.1c-1,0-1.9-0.2-2.8-0.5c-1.3-0.5-2.4-1.6-2.9-2.9c-0.3-0.9-0.5-1.8-0.5-2.8
	c-0.1-1.6-0.1-2.1-0.1-6.1s0-4.5,0.1-6.1c0-1,0.2-1.9,0.5-2.8c0.5-1.3,1.6-2.4,2.9-2.9c0.9-0.3,1.9-0.5,2.8-0.5
	C1312.8,834.5,1313.3,834.5,1317.3,834.4L1317.3,834.4z M1332.4,847.2v-0.8c0-3.8,0-4.3-0.1-5.9c0-1.3-0.3-2.5-0.7-3.7
	c-0.8-2-2.4-3.6-4.4-4.4c-1.2-0.4-2.4-0.7-3.7-0.7c-1.6-0.1-2.1-0.1-5.9-0.1h-0.8c-3.8,0-4.3,0-5.9,0.1c-1.3,0-2.5,0.3-3.7,0.7
	c-2,0.8-3.6,2.4-4.4,4.4c-0.4,1.2-0.7,2.4-0.7,3.7c-0.1,1.6-0.1,2.1-0.1,6.2s0,4.6,0.1,6.2c0,1.3,0.3,2.5,0.7,3.7
	c0.8,2,2.4,3.6,4.4,4.4c1.2,0.4,2.4,0.7,3.7,0.7c1.6,0.1,2.1,0.1,6.2,0.1s4.6,0,6.2-0.1c1.3,0,2.5-0.3,3.7-0.7
	c2-0.8,3.6-2.4,4.4-4.4c0.4-1.2,0.7-2.4,0.7-3.7C1332.4,851.5,1332.4,851,1332.4,847.2L1332.4,847.2z"/>
<path class="st5" d="M1317.3,839.1c-4.3,0-7.8,3.5-7.8,7.8s3.5,7.8,7.8,7.8s7.8-3.5,7.8-7.8S1321.6,839.1,1317.3,839.1L1317.3,839.1
	z M1317.3,851.9c-2.8,0-5-2.2-5-5s2.2-5,5-5s5,2.2,5,5S1320.1,851.9,1317.3,851.9z"/>
<circle class="st5" cx="1325.4" cy="838.8" r="1.8"/>
<path class="st5" d="M1381.8,846.3c0.3-5.9,5.2-10.6,11.2-10.6c2.7,0,5.4,1,7.5,2.8c-0.9,1-1.8,2-2.8,2.9c-2.5-1.8-6.2-2.3-8.7-0.2
	c-3.1,2.4-3.8,6.9-1.4,10c0.3,0.4,0.7,0.8,1.1,1.1c3.4,3.1,9.8,1.5,10.8-3.2c-2.1,0-4.3,0-6.4-0.1c0-1.3,0-2.5,0-3.8
	c3.6,0,7.1,0,10.7,0c0.2,3-0.2,6.2-2,8.6c-2.8,3.9-8.4,5.1-12.7,3.4C1384.4,855.5,1381.6,851.1,1381.8,846.3L1381.8,846.3z
	 M1410.6,842h3.2c0,1.1,0,2.1,0,3.2h3.2v3.2h-3.2c0,1.1,0,2.1,0,3.2h-3.2c0-1.1,0-2.1,0-3.2h-3.2v-3.2h3.2
	C1410.5,844.2,1410.5,843.1,1410.6,842L1410.6,842z"/>
<path class="st0" d="M1146.7,966c2.4,0,4.7,1,6.4,2.7c1.7,1.7,2.6,4.1,2.6,6.5c0,4.3-3.4,7.5-6.4,10.4c-0.7,0.6-1.3,1.2-1.9,1.8
	l-0.6,0.6l-0.6-0.6c-0.7-0.7-1.3-1.3-2-2c-3.1-2.9-6.4-6-6.4-10.3c0-2.4,0.9-4.8,2.6-6.5C1142,967,1144.3,966,1146.7,966L1146.7,966
	z M1146.7,971c-2.2,0-4,1.8-4,4s1.8,4,4,4s4-1.8,4-4S1148.9,971,1146.7,971z"/>
<path class="st0" d="M576.2,986.4c2.4,4.4,6.1,8.1,10.5,10.5c0.6,0.3,1.2,0.4,1.8,0.5c0.7,0,1-0.1,1.1-0.2c0.7-0.6,1.3-1.3,1.8-2
	c0.3-0.5,0.3-1-0.1-1.2l-3.3-2.2c-0.3-0.2-0.6-0.2-0.9,0l-1.8,1.1c-1.9-1.4-3.7-3.2-5.1-5.1l1.1-1.8c0.2-0.3,0.2-0.6,0-0.9l-2.2-3.3
	c-0.3-0.4-0.8-0.4-1.2-0.1c-0.7,0.5-1.4,1.2-2,1.8c-0.1,0.1-0.3,0.4-0.2,1.1C575.8,985.2,576,985.8,576.2,986.4z"/>
<path class="st0" d="M595.4,1040.6L595.4,1040.6L595.4,1040.6L595.4,1040.6c0.2-0.6,0.2-1.2,0.2-1.8c0-5.5-4.4-9.9-9.9-9.9l0,0
	c-0.6,0-1.3,0.1-1.9,0.2l0,0l0.1,0.1h-0.2h0.1c-2.9-1.5-6.4-0.4-7.9,2.5c-0.9,1.7-0.9,3.8,0,5.5v-0.1v0.2v-0.1
	c-0.1,0.6-0.1,1.1-0.2,1.7c0,5.5,4.4,9.9,9.9,9.9l0,0c0.6,0,1.2,0,1.7-0.2l-0.1-0.1h0.2h-0.1c2.8,1.6,6.4,0.6,8-2.2
	C596.4,1044.5,596.4,1042.3,595.4,1040.6L595.4,1040.6z M585.7,1044.8L585.7,1044.8c-3.5,0-5.1-1.7-5.1-3c0-0.6,0.5-1.1,1.1-1.1h0.1
	c1.5,0,1.1,2.2,3.9,2.2c1.4,0,2.2-0.8,2.2-1.6c0-0.5-0.2-1-1.2-1.3l-3.1-0.8c-2.5-0.6-3-2-3-3.3c0-2.7,2.5-3.7,4.9-3.7
	c2.2,0,4.7,1.2,4.7,2.8c0,0.6-0.6,1.1-1.2,1.1c0,0,0,0-0.1,0c-1.3,0-1-1.8-3.6-1.8c-1.3,0-2,0.6-2,1.4s1,1.1,1.9,1.3l2.3,0.5
	c2.5,0.6,3.2,2,3.2,3.4C590.7,1043.2,589,1044.8,585.7,1044.8L585.7,1044.8z"/>
<g id="g4780">
	<g id="g15">
		<path id="path17-6" class="st0" d="M675.7,994.8c-0.6-0.5-1.2-0.9-1.8-1.3c-1.2-0.8-2.3-0.9-3.1,0.5c-0.4,0.6-1.2,0.9-1.8,0.5
			c0,0,0,0-0.1,0c-2-0.9-3.6-2.4-4.4-4.4c-0.5-0.8-0.3-1.9,0.5-2.4l0,0c0.6-0.3,0.9-0.9,1-1.5c0-1-2.4-4.2-3.3-4.6
			c-0.4-0.1-0.8-0.1-1.1,0c-1.8,0.4-2.9,2.2-2.4,4c0.1,0.2,0.1,0.5,0.3,0.7c2.4,6.1,7.1,11,13.1,13.5c0.3,0.1,0.6,0.2,0.9,0.3
			c1.6-0.2,2.9-1.2,3.5-2.7C677.4,996,676.4,995.5,675.7,994.8L675.7,994.8z"/>
		<path id="path19-1" class="st0" d="M668.8,982c4.5,0.7,6.5,2.9,7.1,7.5c0,0.4-0.1,1.1,0.5,1.1s0.5-0.6,0.5-1c0-4.5-3.5-8.2-8-8.5
			c-0.3,0-1-0.2-1,0.5C667.9,982.1,668.4,982,668.8,982L668.8,982z"/>
		<path id="path21-2" class="st0" d="M669.7,983.3c-0.4,0-1-0.3-1.1,0.3s0.5,0.6,0.9,0.7c2.8,0.6,3.7,1.7,4.2,4.5
			c0.1,0.4-0.1,1,0.6,0.9c0.5-0.1,0.3-0.6,0.4-0.9C674.6,986,672.5,983.6,669.7,983.3L669.7,983.3z"/>
		<path id="path23" class="st0" d="M669.9,985.5c-0.3,0-0.6,0-0.7,0.3c-0.2,0.5,0.2,0.6,0.5,0.6c1,0.1,1.9,1,1.8,2
			c0,0.3,0.2,0.6,0.5,0.5s0.5-0.4,0.4-0.8C672.5,986.8,671.4,985.6,669.9,985.5L669.9,985.5z"/>
	</g>
</g>
<path class="st0" d="M676.6,1048.8c0.4,0,0.8-0.1,1-0.4l-5.1-5l-0.3,0.3c-0.4,0.3-0.7,0.5-0.9,0.7c-0.3,0.2-0.6,0.3-1,0.5
	s-0.7,0.2-1.1,0.2l0,0c-0.4,0-0.8-0.1-1.1-0.2s-0.6-0.3-1-0.5c-0.2-0.2-0.5-0.4-0.9-0.7l-0.3-0.3l-5.1,5c0.3,0.3,0.7,0.4,1,0.4
	H676.6z"/>
<path class="st0" d="M661.2,1040.2c-0.4-0.2-0.7-0.5-1-0.9v7.7l4.5-4.4C663.8,1041.9,662.6,1041.1,661.2,1040.2L661.2,1040.2z"/>
<path class="st0" d="M677.2,1040.2c-1.4,0.9-2.5,1.7-3.5,2.4l4.5,4.4v-7.7C677.9,1039.7,677.6,1040,677.2,1040.2L677.2,1040.2z"/>
<path class="st0" d="M676.6,1034.8h-14.8c-0.5,0-0.9,0.2-1.2,0.5c-0.3,0.4-0.4,0.8-0.4,1.3s0.2,1,0.5,1.4s0.7,0.8,1.2,1.2l2.1,1.4
	l1.6,1.1l1,0.7l0.2,0.1l0.3,0.2l0.5,0.4l0.5,0.3c0.2,0.1,0.4,0.2,0.6,0.3c0.2,0.1,0.3,0.1,0.5,0.1l0,0c0.2,0,0.3,0,0.5-0.1
	s0.4-0.2,0.6-0.3l0.5-0.3l0.5-0.4l0.3-0.2l0.2-0.1l1-0.7l3.7-2.5c0.5-0.3,0.9-0.7,1.2-1.2c0.3-0.4,0.5-1,0.5-1.5
	c0-0.4-0.2-0.8-0.5-1.1C677.4,1035,677,1034.8,676.6,1034.8L676.6,1034.8z"/>
<path class="st0" d="M645.7,993.9c-0.3-0.1-1.5-0.8-1.7-0.9s-0.4-0.2-0.6,0.1s-0.7,0.8-0.8,1s-0.3,0.2-0.5,0c-0.7-0.3-1.4-0.8-2-1.4
	c-0.5-0.6-1-1.2-1.3-1.9c-0.1-0.2-0.1-0.4,0.1-0.5c0.1-0.1,0.3-0.3,0.4-0.4c0.1-0.1,0.2-0.3,0.3-0.4c0.1-0.1,0.1-0.3,0-0.5
	c-0.1-0.1-0.5-1.4-0.7-2s-0.4-0.5-0.5-0.5h-0.5c-0.3,0-0.5,0.1-0.7,0.3c-0.6,0.5-1,1.3-1,2.1c0,1,0.4,1.9,0.9,2.7
	c1,1.7,2.4,3.2,4.1,4.1c2.5,1.2,2.5,0.8,3,0.8c0.7-0.1,1.4-0.6,1.7-1.2c0.2-0.4,0.2-0.8,0.2-1.2C646.1,994,645.9,994,645.7,993.9
	L645.7,993.9z M641.1,1000.1c-1.6,0-3.2-0.5-4.5-1.4l-3.1,1l1-3.2c-1-1.5-1.6-3.2-1.6-5c0.2-4.5,4-8,8.5-7.8s8,4,7.8,8.5
	C649.1,996.6,645.5,1000,641.1,1000.1L641.1,1000.1z M641.1,981.3c-5.5,0.1-9.9,4.7-9.8,10.2c0,0,0,0,0,0.1c0,1.9,0.5,3.7,1.4,5.3
	l-1.8,5.5l5.4-1.8c1.4,0.8,3.1,1.3,4.8,1.3c5.6-0.2,10-5,9.8-10.7C650.7,985.8,646.4,981.5,641.1,981.3L641.1,981.3z"/>
<polygon class="st6" points="1340.2,116.7 1337.8,141.1 1308.6,141.1 1306.7,117.1 1323.2,126.4 "/>
<polygon class="st6" points="1339.4,112.1 1323.2,127.3 1307,112.1 1323.2,112.1 "/>
<path class="st7" d="M1308.6,119.1v22h-2.6c-1,0-1.8-0.8-1.8-1.8l0,0v-23.5l2.9,0.1L1308.6,119.1z"/>
<path class="st8" d="M1342.2,115.9v23.4c0,1-0.8,1.8-1.8,1.8l0,0h-2.6v-22l1.5-3.5L1342.2,115.9z"/>
<path class="st7" d="M1342.2,113.9v2l-4.4,3.2l-14.6,10.6l-14.6-10.6l-4.4-3.2v-2c0-1,0.8-1.8,1.8-1.8l0,0h1l16.2,11.8l16.2-11.8h1
	C1341.3,112,1342.2,112.8,1342.2,113.9C1342.2,113.8,1342.2,113.8,1342.2,113.9z"/>
<polygon class="st8" points="1308.6,119.1 1304.2,118.4 1304.2,115.9 "/>
<path class="st9" d="M1238.4,139.1c11.6,0,17.9-9.6,17.9-17.9c0-0.3,0-0.5,0-0.8c1.2-0.9,2.3-2,3.1-3.3c-1.1,0.5-2.4,0.8-3.6,1
	c1.3-0.8,2.3-2,2.8-3.5c-1.2,0.7-2.6,1.3-4,1.5c-2.4-2.5-6.4-2.7-8.9-0.3c-1.6,1.5-2.3,3.8-1.8,6c-5.1-0.2-9.8-2.6-13-6.6
	c-1.7,2.9-0.8,6.6,2,8.4c-1,0-2-0.3-2.8-0.8v0.1c0,3,2.1,5.6,5.1,6.2c-0.9,0.3-1.9,0.3-2.8,0.1c0.8,2.6,3.2,4.3,5.9,4.4
	c-2.2,1.8-5,2.7-7.8,2.7c-0.5,0-1,0-1.5-0.1C1231.7,138.1,1235,139,1238.4,139.1z"/>
<path id="White" class="st10" d="M1167.6,111.6h-26.7c-0.9,0-1.7,0.7-1.7,1.7l0,0V140c0,0.9,0.7,1.7,1.7,1.7l0,0h14.4V130h-3.9v-4.5
	h3.9v-3.3c0-3.9,2.4-6,5.8-6c1.2,0,2.3,0.1,3.5,0.2v4h-2.4c-1.9,0-2.2,0.9-2.2,2.2v2.9h4.5l-0.6,4.5h-3.9v11.6h7.6
	c0.9,0,1.7-0.7,1.7-1.7l0,0v-26.7C1169.2,112.3,1168.5,111.6,1167.6,111.6z"/>
<path class="st0" d="M1145.3,262.3c-0.2,0-0.4-0.1-0.6-0.2c-4.7-3.2-10-7.5-10.4-12.1c-0.4-3.2,1.5-6.2,4.5-7.2
	c2.4-0.7,5,0.3,6.5,2.3c1.5-2.1,4-3,6.5-2.3c3,1,4.9,4,4.5,7.2c-0.4,4.5-5.8,8.8-10.4,12.1C1145.7,262.3,1145.5,262.3,1145.3,262.3z
	 M1140.4,244.7c-0.3,0-0.7,0.1-1,0.1c-2.1,0.7-3.4,2.9-3.1,5.1c0.3,3.9,6.2,8.2,9,10.2c2.8-2,8.7-6.3,9-10.2
	c0.4-2.2-0.9-4.4-3.1-5.1c-1.5-0.4-3.6,0-5,2.7c-0.3,0.5-0.9,0.7-1.4,0.4c-0.2-0.1-0.3-0.2-0.4-0.4
	C1143.3,245.4,1141.8,244.7,1140.4,244.7z"/>
<path class="st4" d="M1145.3,315.5c-0.2,0-0.4-0.1-0.6-0.2c-4.7-3.2-10-7.5-10.4-12.1c-0.4-3.2,1.5-6.2,4.5-7.2
	c2.4-0.7,5,0.3,6.5,2.3c1.5-2.1,4-3,6.5-2.3c3,1,4.9,4,4.5,7.2c-0.4,4.5-5.8,8.8-10.4,12.1C1145.7,315.4,1145.5,315.5,1145.3,315.5z
	 M1140.4,297.8c-0.3,0-0.7,0.1-1,0.1c-2.1,0.7-3.4,2.9-3.1,5.1c0.3,3.9,6.2,8.2,9,10.2c2.8-2,8.7-6.3,9-10.2c0.3-2.2-1-4.4-3.1-5.1
	c-1.5-0.4-3.6,0-5,2.7c-0.3,0.5-0.9,0.7-1.4,0.4c-0.2-0.1-0.3-0.2-0.4-0.4C1143.3,298.6,1141.8,297.8,1140.4,297.8z"/>
</svg>
