<?xml version="1.0" encoding="UTF-8"?>
<!DOCTYPE svg PUBLIC "-//W3C//DTD SVG 1.1//EN" "http://www.w3.org/Graphics/SVG/1.1/DTD/svg11.dtd">
<svg xmlns="http://www.w3.org/2000/svg">
<symbol id="icon-affinage-empty" viewBox="0 0 30 30">
	<path fill="none" stroke="#000" d="M26.5 25.685c-.415 0-.829-.203-1.244-.203a4.53 4.53 0 0 1-1.036-.61 4.258 4.258 0 0 1-.83-1.221 11.395 11.395 0 0 1-1.035-1.628L14.688 3.5h-1.036L3.5 26.5h23v-.815h0z"/>
</symbol>
<symbol id="icon-affinage-filled" viewBox="0 0 23 23">
	<path d="M23 22.186c-.415 0-.829-.203-1.244-.203a4.592 4.592 0 0 1-1.036-.611 4.275 4.275 0 0 1-.829-1.221 11.26 11.26 0 0 1-1.036-1.628L11.188 0h-1.036L0 23h23v-.814z"/>
</symbol>
<symbol id="icon-affinage-shadow" viewBox="0 0 28 28">
	<path d="M23.8 11.8c-.5 0-1.5-1.5-2.1-2.8v-.9c0-.4 0-.7-.1-1.1 0-.4-.1-.7-.2-1.1-.1-.4-.3-.7-.5-1.1-.8-.8-1.7-1.4-2.7-1.8-1.5-.5-3-.8-4.5-.7-1.4 0-2.8.2-4 .8-1.3.5-2.3 1.2-3.2 2.2-.9.9-1.6 2-2 3.2-.5 1.3-.7 2.6-.7 4s.3 2.9.8 4.2c.5 1.3 1.3 2.4 2.2 3.4 1 1 2.1 1.7 3.4 2.3 1.3.6 2.7.8 4.2.8h.2c1.3 0 2.7-.2 4-.5 1.3-.3 2.5-.8 3.6-1.5l.2-.1v-5.4c0-.6.1-1.2.4-1.7.2-.3.6-.5.9-.5h.5v-1.8h-.4zM22 13.5c-.4.7-.5 1.5-.5 2.2v4.8c-1 .6-2 1-3.1 1.2-1.3.3-2.6.4-3.9.4-1.3 0-2.6-.2-3.9-.8-1.2-.5-2.2-1.2-3.1-2.1-.9-.9-1.6-1.9-2-3.1-.5-1.2-.7-2.5-.7-3.8 0-1.2.2-2.5.6-3.6.4-1.1 1-2.1 1.8-2.9C8 5.1 8.9 4.5 10 4c1.2-.5 2.4-.7 3.7-.7 1.4 0 2.8.2 4.2.7.9.3 1.7.8 2.3 1.4.2.2.3.4.3.7.1.3.2.6.2.9 0 .3.1.7.1 1v1.2c.3.7 1.2 2.7 2.3 3.3-.5.2-.9.5-1.1 1z"/>
</symbol>
<symbol id="icon-arrow-left" viewBox="0 0 22 38">
	<path d="M1 18.916L18.206 1 21 3.93 6.527 19 21 34.07 18.206 37 1 19.083 1.08 19 1 18.916z"/>
</symbol>
<symbol id="icon-arrow-right" viewBox="0 0 22 38">
	<path d="M21 19.084L3.794 37 1 34.07 15.473 19 1 3.93 3.794 1 21 18.917l-.08.083.08.084z"/>
</symbol>
<symbol id="icon-logo" viewBox="0 0 25 25">
	<path d="M10.532 5.884l4.352 9.974H5.973l4.558-9.974h.001zm13.467 17.301c-.415 0-.829-.203-1.244-.203a4.551 4.551 0 0 1-1.036-.61 4.275 4.275 0 0 1-.829-1.221 11.401 11.401 0 0 1-1.036-1.628L12.188 1h-1.036L1 24h1.45l2.902-6.717h10.36l.829 2.239a7.028 7.028 0 0 0 1.451 2.443 5.552 5.552 0 0 0 1.658 1.424c.538.237 1.092.441 1.657.611H24v-.815"/>
</symbol>
<symbol id="icon-trapeze-mobile" viewBox="0 0 289 184">
	<path d="M286 181.1l-.6-.1L3 142.9V3h283v178.1zm-282-39L285 180V4H4v138.1z"/>
</symbol>
<symbol id="icon-trapeze" viewBox="0 0 186 291">
	<path d="M143.9 287H4V4h178.1l-.1.6L143.9 287zM5 286h138.1L180.9 5H5v281z"/>
</symbol>
</svg>